%TF.GenerationSoftware,KiCad,Pcbnew,6.0.11-2627ca5db0~126~ubuntu20.04.1*%
%TF.CreationDate,2023-02-28T18:41:24+07:00*%
%TF.ProjectId,CY7C68013A-100,43593743-3638-4303-9133-412d3130302e,rev?*%
%TF.SameCoordinates,Original*%
%TF.FileFunction,Soldermask,Bot*%
%TF.FilePolarity,Negative*%
%FSLAX46Y46*%
G04 Gerber Fmt 4.6, Leading zero omitted, Abs format (unit mm)*
G04 Created by KiCad (PCBNEW 6.0.11-2627ca5db0~126~ubuntu20.04.1) date 2023-02-28 18:41:24*
%MOMM*%
%LPD*%
G01*
G04 APERTURE LIST*
%ADD10R,1.700000X1.700000*%
%ADD11O,1.700000X1.700000*%
%ADD12C,0.800000*%
%ADD13C,6.400000*%
%ADD14C,0.650000*%
%ADD15O,1.000000X2.100000*%
%ADD16O,1.000000X1.800000*%
G04 APERTURE END LIST*
D10*
%TO.C,J3*%
X149563932Y-131013200D03*
D11*
X147023932Y-131013200D03*
%TD*%
D12*
%TO.C,H1*%
X110980600Y-128468200D03*
X115780600Y-128468200D03*
X115077656Y-130165256D03*
D13*
X113380600Y-128468200D03*
D12*
X111683544Y-130165256D03*
X113380600Y-130868200D03*
X113380600Y-126068200D03*
X115077656Y-126771144D03*
X111683544Y-126771144D03*
%TD*%
D14*
%TO.C,J5*%
X132055600Y-76345000D03*
X137835600Y-76345000D03*
D15*
X130625600Y-76865000D03*
D16*
X130625600Y-72665000D03*
X139265600Y-72665000D03*
D15*
X139265600Y-76865000D03*
%TD*%
D10*
%TO.C,J4*%
X125477266Y-131013200D03*
D11*
X122937266Y-131013200D03*
%TD*%
D12*
%TO.C,H4*%
X157403544Y-126771144D03*
X161500600Y-128468200D03*
X159100600Y-126068200D03*
X157403544Y-130165256D03*
X156700600Y-128468200D03*
X160797656Y-126771144D03*
X159100600Y-130868200D03*
X160797656Y-130165256D03*
D13*
X159100600Y-128468200D03*
%TD*%
D12*
%TO.C,H2*%
X115077656Y-76825256D03*
X113380600Y-72728200D03*
X115077656Y-73431144D03*
D13*
X113380600Y-75128200D03*
D12*
X115780600Y-75128200D03*
X113380600Y-77528200D03*
X111683544Y-76825256D03*
X111683544Y-73431144D03*
X110980600Y-75128200D03*
%TD*%
%TO.C,H3*%
X157403544Y-76825256D03*
D13*
X159100600Y-75128200D03*
D12*
X160797656Y-76825256D03*
X159100600Y-77528200D03*
X156700600Y-75128200D03*
X161500600Y-75128200D03*
X157403544Y-73431144D03*
X160797656Y-73431144D03*
X159100600Y-72728200D03*
%TD*%
D10*
%TO.C,J1*%
X159100600Y-80208200D03*
D11*
X161640600Y-80208200D03*
X159100600Y-82748200D03*
X161640600Y-82748200D03*
X159100600Y-85288200D03*
X161640600Y-85288200D03*
X159100600Y-87828200D03*
X161640600Y-87828200D03*
X159100600Y-90368200D03*
X161640600Y-90368200D03*
X159100600Y-92908200D03*
X161640600Y-92908200D03*
X159100600Y-95448200D03*
X161640600Y-95448200D03*
X159100600Y-97988200D03*
X161640600Y-97988200D03*
X159100600Y-100528200D03*
X161640600Y-100528200D03*
X159100600Y-103068200D03*
X161640600Y-103068200D03*
X159100600Y-105608200D03*
X161640600Y-105608200D03*
X159100600Y-108148200D03*
X161640600Y-108148200D03*
X159100600Y-110688200D03*
X161640600Y-110688200D03*
X159100600Y-113228200D03*
X161640600Y-113228200D03*
X159100600Y-115768200D03*
X161640600Y-115768200D03*
X159100600Y-118308200D03*
X161640600Y-118308200D03*
X159100600Y-120848200D03*
X161640600Y-120848200D03*
X159100600Y-123388200D03*
X161640600Y-123388200D03*
%TD*%
D10*
%TO.C,J2*%
X110840600Y-80208200D03*
D11*
X113380600Y-80208200D03*
X110840600Y-82748200D03*
X113380600Y-82748200D03*
X110840600Y-85288200D03*
X113380600Y-85288200D03*
X110840600Y-87828200D03*
X113380600Y-87828200D03*
X110840600Y-90368200D03*
X113380600Y-90368200D03*
X110840600Y-92908200D03*
X113380600Y-92908200D03*
X110840600Y-95448200D03*
X113380600Y-95448200D03*
X110840600Y-97988200D03*
X113380600Y-97988200D03*
X110840600Y-100528200D03*
X113380600Y-100528200D03*
X110840600Y-103068200D03*
X113380600Y-103068200D03*
X110840600Y-105608200D03*
X113380600Y-105608200D03*
X110840600Y-108148200D03*
X113380600Y-108148200D03*
X110840600Y-110688200D03*
X113380600Y-110688200D03*
X110840600Y-113228200D03*
X113380600Y-113228200D03*
X110840600Y-115768200D03*
X113380600Y-115768200D03*
X110840600Y-118308200D03*
X113380600Y-118308200D03*
X110840600Y-120848200D03*
X113380600Y-120848200D03*
X110840600Y-123388200D03*
X113380600Y-123388200D03*
%TD*%
G36*
X121074721Y-130703002D02*
G01*
X121121214Y-130756658D01*
X121132600Y-130809000D01*
X121132600Y-132182600D01*
X121112598Y-132250721D01*
X121058942Y-132297214D01*
X121006600Y-132308600D01*
X116331000Y-132308600D01*
X116262879Y-132288598D01*
X116216386Y-132234942D01*
X116205000Y-132182600D01*
X116205000Y-130809000D01*
X116225002Y-130740879D01*
X116278658Y-130694386D01*
X116331000Y-130683000D01*
X121006600Y-130683000D01*
X121074721Y-130703002D01*
G37*
M02*
