%TF.GenerationSoftware,KiCad,Pcbnew,6.0.11-2627ca5db0~126~ubuntu20.04.1*%
%TF.CreationDate,2023-02-28T18:41:23+07:00*%
%TF.ProjectId,CY7C68013A-100,43593743-3638-4303-9133-412d3130302e,rev?*%
%TF.SameCoordinates,Original*%
%TF.FileFunction,Legend,Bot*%
%TF.FilePolarity,Positive*%
%FSLAX46Y46*%
G04 Gerber Fmt 4.6, Leading zero omitted, Abs format (unit mm)*
G04 Created by KiCad (PCBNEW 6.0.11-2627ca5db0~126~ubuntu20.04.1) date 2023-02-28 18:41:23*
%MOMM*%
%LPD*%
G01*
G04 APERTURE LIST*
%ADD10C,0.200000*%
G04 APERTURE END LIST*
D10*
X121989695Y-99909380D02*
X121418266Y-99909380D01*
X121703980Y-100909380D02*
X121703980Y-99909380D01*
X121180171Y-99909380D02*
X120513504Y-100909380D01*
X120513504Y-99909380D02*
X121180171Y-100909380D01*
X119608742Y-100909380D02*
X120180171Y-100909380D01*
X119894457Y-100909380D02*
X119894457Y-99909380D01*
X119989695Y-100052238D01*
X120084933Y-100147476D01*
X120180171Y-100195095D01*
X118509895Y-123845580D02*
X118509895Y-122845580D01*
X118128942Y-122845580D01*
X118033704Y-122893200D01*
X117986085Y-122940819D01*
X117938466Y-123036057D01*
X117938466Y-123178914D01*
X117986085Y-123274152D01*
X118033704Y-123321771D01*
X118128942Y-123369390D01*
X118509895Y-123369390D01*
X116938466Y-123750342D02*
X116986085Y-123797961D01*
X117128942Y-123845580D01*
X117224180Y-123845580D01*
X117367038Y-123797961D01*
X117462276Y-123702723D01*
X117509895Y-123607485D01*
X117557514Y-123417009D01*
X117557514Y-123274152D01*
X117509895Y-123083676D01*
X117462276Y-122988438D01*
X117367038Y-122893200D01*
X117224180Y-122845580D01*
X117128942Y-122845580D01*
X116986085Y-122893200D01*
X116938466Y-122940819D01*
X116081323Y-122845580D02*
X116271800Y-122845580D01*
X116367038Y-122893200D01*
X116414657Y-122940819D01*
X116509895Y-123083676D01*
X116557514Y-123274152D01*
X116557514Y-123655104D01*
X116509895Y-123750342D01*
X116462276Y-123797961D01*
X116367038Y-123845580D01*
X116176561Y-123845580D01*
X116081323Y-123797961D01*
X116033704Y-123750342D01*
X115986085Y-123655104D01*
X115986085Y-123417009D01*
X116033704Y-123321771D01*
X116081323Y-123274152D01*
X116176561Y-123226533D01*
X116367038Y-123226533D01*
X116462276Y-123274152D01*
X116509895Y-123321771D01*
X116557514Y-123417009D01*
X118509895Y-106065580D02*
X118509895Y-105065580D01*
X118128942Y-105065580D01*
X118033704Y-105113200D01*
X117986085Y-105160819D01*
X117938466Y-105256057D01*
X117938466Y-105398914D01*
X117986085Y-105494152D01*
X118033704Y-105541771D01*
X118128942Y-105589390D01*
X118509895Y-105589390D01*
X117176561Y-105541771D02*
X117033704Y-105589390D01*
X116986085Y-105637009D01*
X116938466Y-105732247D01*
X116938466Y-105875104D01*
X116986085Y-105970342D01*
X117033704Y-106017961D01*
X117128942Y-106065580D01*
X117509895Y-106065580D01*
X117509895Y-105065580D01*
X117176561Y-105065580D01*
X117081323Y-105113200D01*
X117033704Y-105160819D01*
X116986085Y-105256057D01*
X116986085Y-105351295D01*
X117033704Y-105446533D01*
X117081323Y-105494152D01*
X117176561Y-105541771D01*
X117509895Y-105541771D01*
X116033704Y-105065580D02*
X116509895Y-105065580D01*
X116557514Y-105541771D01*
X116509895Y-105494152D01*
X116414657Y-105446533D01*
X116176561Y-105446533D01*
X116081323Y-105494152D01*
X116033704Y-105541771D01*
X115986085Y-105637009D01*
X115986085Y-105875104D01*
X116033704Y-105970342D01*
X116081323Y-106017961D01*
X116176561Y-106065580D01*
X116414657Y-106065580D01*
X116509895Y-106017961D01*
X116557514Y-105970342D01*
X118073323Y-90301771D02*
X117930466Y-90349390D01*
X117882847Y-90397009D01*
X117835228Y-90492247D01*
X117835228Y-90635104D01*
X117882847Y-90730342D01*
X117930466Y-90777961D01*
X118025704Y-90825580D01*
X118406657Y-90825580D01*
X118406657Y-89825580D01*
X118073323Y-89825580D01*
X117978085Y-89873200D01*
X117930466Y-89920819D01*
X117882847Y-90016057D01*
X117882847Y-90111295D01*
X117930466Y-90206533D01*
X117978085Y-90254152D01*
X118073323Y-90301771D01*
X118406657Y-90301771D01*
X117406657Y-90825580D02*
X117406657Y-89825580D01*
X116835228Y-90825580D02*
X117263799Y-90254152D01*
X116835228Y-89825580D02*
X117406657Y-90397009D01*
X116406657Y-90825580D02*
X116406657Y-89825580D01*
X116025704Y-89825580D01*
X115930466Y-89873200D01*
X115882847Y-89920819D01*
X115835228Y-90016057D01*
X115835228Y-90158914D01*
X115882847Y-90254152D01*
X115930466Y-90301771D01*
X116025704Y-90349390D01*
X116406657Y-90349390D01*
X115549514Y-89825580D02*
X114978085Y-89825580D01*
X115263799Y-90825580D02*
X115263799Y-89825580D01*
X123118333Y-88234780D02*
X123118333Y-87234780D01*
X122308809Y-87710971D02*
X122642142Y-87710971D01*
X122642142Y-88234780D02*
X122642142Y-87234780D01*
X122165952Y-87234780D01*
X121213571Y-88139542D02*
X121261190Y-88187161D01*
X121404047Y-88234780D01*
X121499285Y-88234780D01*
X121642142Y-88187161D01*
X121737380Y-88091923D01*
X121785000Y-87996685D01*
X121832619Y-87806209D01*
X121832619Y-87663352D01*
X121785000Y-87472876D01*
X121737380Y-87377638D01*
X121642142Y-87282400D01*
X121499285Y-87234780D01*
X121404047Y-87234780D01*
X121261190Y-87282400D01*
X121213571Y-87330019D01*
X120308809Y-88234780D02*
X120785000Y-88234780D01*
X120785000Y-87234780D01*
X119975476Y-88234780D02*
X119975476Y-87234780D01*
X119404047Y-88234780D02*
X119832619Y-87663352D01*
X119404047Y-87234780D02*
X119975476Y-87806209D01*
X156854448Y-82180180D02*
X157330638Y-82180180D01*
X157378257Y-82656371D01*
X157330638Y-82608752D01*
X157235400Y-82561133D01*
X156997305Y-82561133D01*
X156902067Y-82608752D01*
X156854448Y-82656371D01*
X156806829Y-82751609D01*
X156806829Y-82989704D01*
X156854448Y-83084942D01*
X156902067Y-83132561D01*
X156997305Y-83180180D01*
X157235400Y-83180180D01*
X157330638Y-83132561D01*
X157378257Y-83084942D01*
X156521114Y-82180180D02*
X156187781Y-83180180D01*
X155854448Y-82180180D01*
X152898267Y-111094780D02*
X152898267Y-110094780D01*
X152517314Y-110094780D01*
X152422076Y-110142400D01*
X152374457Y-110190019D01*
X152326838Y-110285257D01*
X152326838Y-110428114D01*
X152374457Y-110523352D01*
X152422076Y-110570971D01*
X152517314Y-110618590D01*
X152898267Y-110618590D01*
X151898267Y-111094780D02*
X151898267Y-110094780D01*
X151660172Y-110094780D01*
X151517314Y-110142400D01*
X151422076Y-110237638D01*
X151374457Y-110332876D01*
X151326838Y-110523352D01*
X151326838Y-110666209D01*
X151374457Y-110856685D01*
X151422076Y-110951923D01*
X151517314Y-111047161D01*
X151660172Y-111094780D01*
X151898267Y-111094780D01*
X150374457Y-111094780D02*
X150945886Y-111094780D01*
X150660172Y-111094780D02*
X150660172Y-110094780D01*
X150755410Y-110237638D01*
X150850648Y-110332876D01*
X150945886Y-110380495D01*
X121989695Y-103449380D02*
X121989695Y-102449380D01*
X121608742Y-102449380D01*
X121513504Y-102497000D01*
X121465885Y-102544619D01*
X121418266Y-102639857D01*
X121418266Y-102782714D01*
X121465885Y-102877952D01*
X121513504Y-102925571D01*
X121608742Y-102973190D01*
X121989695Y-102973190D01*
X120656361Y-102925571D02*
X120513504Y-102973190D01*
X120465885Y-103020809D01*
X120418266Y-103116047D01*
X120418266Y-103258904D01*
X120465885Y-103354142D01*
X120513504Y-103401761D01*
X120608742Y-103449380D01*
X120989695Y-103449380D01*
X120989695Y-102449380D01*
X120656361Y-102449380D01*
X120561123Y-102497000D01*
X120513504Y-102544619D01*
X120465885Y-102639857D01*
X120465885Y-102735095D01*
X120513504Y-102830333D01*
X120561123Y-102877952D01*
X120656361Y-102925571D01*
X120989695Y-102925571D01*
X119561123Y-102782714D02*
X119561123Y-103449380D01*
X119799219Y-102401761D02*
X120037314Y-103116047D01*
X119418266Y-103116047D01*
X118135304Y-79713200D02*
X118230542Y-79665580D01*
X118373400Y-79665580D01*
X118516257Y-79713200D01*
X118611495Y-79808438D01*
X118659114Y-79903676D01*
X118706733Y-80094152D01*
X118706733Y-80237009D01*
X118659114Y-80427485D01*
X118611495Y-80522723D01*
X118516257Y-80617961D01*
X118373400Y-80665580D01*
X118278161Y-80665580D01*
X118135304Y-80617961D01*
X118087685Y-80570342D01*
X118087685Y-80237009D01*
X118278161Y-80237009D01*
X117659114Y-80665580D02*
X117659114Y-79665580D01*
X117087685Y-80665580D01*
X117087685Y-79665580D01*
X116611495Y-80665580D02*
X116611495Y-79665580D01*
X116373400Y-79665580D01*
X116230542Y-79713200D01*
X116135304Y-79808438D01*
X116087685Y-79903676D01*
X116040066Y-80094152D01*
X116040066Y-80237009D01*
X116087685Y-80427485D01*
X116135304Y-80522723D01*
X116230542Y-80617961D01*
X116373400Y-80665580D01*
X116611495Y-80665580D01*
X152285580Y-113564942D02*
X152333200Y-113612561D01*
X152476057Y-113660180D01*
X152571295Y-113660180D01*
X152714152Y-113612561D01*
X152809390Y-113517323D01*
X152857009Y-113422085D01*
X152904628Y-113231609D01*
X152904628Y-113088752D01*
X152857009Y-112898276D01*
X152809390Y-112803038D01*
X152714152Y-112707800D01*
X152571295Y-112660180D01*
X152476057Y-112660180D01*
X152333200Y-112707800D01*
X152285580Y-112755419D01*
X151999866Y-112660180D02*
X151428438Y-112660180D01*
X151714152Y-113660180D02*
X151714152Y-112660180D01*
X150618914Y-113660180D02*
X151095104Y-113660180D01*
X151095104Y-112660180D01*
X149809390Y-112660180D02*
X150285580Y-112660180D01*
X150333200Y-113136371D01*
X150285580Y-113088752D01*
X150190342Y-113041133D01*
X149952247Y-113041133D01*
X149857009Y-113088752D01*
X149809390Y-113136371D01*
X149761771Y-113231609D01*
X149761771Y-113469704D01*
X149809390Y-113564942D01*
X149857009Y-113612561D01*
X149952247Y-113660180D01*
X150190342Y-113660180D01*
X150285580Y-113612561D01*
X150333200Y-113564942D01*
X122019818Y-110974142D02*
X122067438Y-111021761D01*
X122210295Y-111069380D01*
X122305533Y-111069380D01*
X122448390Y-111021761D01*
X122543628Y-110926523D01*
X122591247Y-110831285D01*
X122638866Y-110640809D01*
X122638866Y-110497952D01*
X122591247Y-110307476D01*
X122543628Y-110212238D01*
X122448390Y-110117000D01*
X122305533Y-110069380D01*
X122210295Y-110069380D01*
X122067438Y-110117000D01*
X122019818Y-110164619D01*
X121734104Y-110069380D02*
X121162676Y-110069380D01*
X121448390Y-111069380D02*
X121448390Y-110069380D01*
X120353152Y-111069380D02*
X120829342Y-111069380D01*
X120829342Y-110069380D01*
X119829342Y-110069380D02*
X119734104Y-110069380D01*
X119638866Y-110117000D01*
X119591247Y-110164619D01*
X119543628Y-110259857D01*
X119496009Y-110450333D01*
X119496009Y-110688428D01*
X119543628Y-110878904D01*
X119591247Y-110974142D01*
X119638866Y-111021761D01*
X119734104Y-111069380D01*
X119829342Y-111069380D01*
X119924580Y-111021761D01*
X119972199Y-110974142D01*
X120019818Y-110878904D01*
X120067438Y-110688428D01*
X120067438Y-110450333D01*
X120019818Y-110259857D01*
X119972199Y-110164619D01*
X119924580Y-110117000D01*
X119829342Y-110069380D01*
X122015095Y-116174780D02*
X122015095Y-115174780D01*
X121634142Y-115174780D01*
X121538904Y-115222400D01*
X121491285Y-115270019D01*
X121443666Y-115365257D01*
X121443666Y-115508114D01*
X121491285Y-115603352D01*
X121538904Y-115650971D01*
X121634142Y-115698590D01*
X122015095Y-115698590D01*
X120443666Y-116079542D02*
X120491285Y-116127161D01*
X120634142Y-116174780D01*
X120729380Y-116174780D01*
X120872238Y-116127161D01*
X120967476Y-116031923D01*
X121015095Y-115936685D01*
X121062714Y-115746209D01*
X121062714Y-115603352D01*
X121015095Y-115412876D01*
X120967476Y-115317638D01*
X120872238Y-115222400D01*
X120729380Y-115174780D01*
X120634142Y-115174780D01*
X120491285Y-115222400D01*
X120443666Y-115270019D01*
X119491285Y-116174780D02*
X120062714Y-116174780D01*
X119777000Y-116174780D02*
X119777000Y-115174780D01*
X119872238Y-115317638D01*
X119967476Y-115412876D01*
X120062714Y-115460495D01*
X117914657Y-100985580D02*
X118247990Y-100509390D01*
X118486085Y-100985580D02*
X118486085Y-99985580D01*
X118105133Y-99985580D01*
X118009895Y-100033200D01*
X117962276Y-100080819D01*
X117914657Y-100176057D01*
X117914657Y-100318914D01*
X117962276Y-100414152D01*
X118009895Y-100461771D01*
X118105133Y-100509390D01*
X118486085Y-100509390D01*
X117581323Y-99985580D02*
X116914657Y-100985580D01*
X116914657Y-99985580D02*
X117581323Y-100985580D01*
X116343228Y-99985580D02*
X116247990Y-99985580D01*
X116152752Y-100033200D01*
X116105133Y-100080819D01*
X116057514Y-100176057D01*
X116009895Y-100366533D01*
X116009895Y-100604628D01*
X116057514Y-100795104D01*
X116105133Y-100890342D01*
X116152752Y-100937961D01*
X116247990Y-100985580D01*
X116343228Y-100985580D01*
X116438466Y-100937961D01*
X116486085Y-100890342D01*
X116533704Y-100795104D01*
X116581323Y-100604628D01*
X116581323Y-100366533D01*
X116533704Y-100176057D01*
X116486085Y-100080819D01*
X116438466Y-100033200D01*
X116343228Y-99985580D01*
X118516304Y-84720180D02*
X117944876Y-84720180D01*
X118230590Y-85720180D02*
X118230590Y-84720180D01*
X117421066Y-84720180D02*
X117325828Y-84720180D01*
X117230590Y-84767800D01*
X117182971Y-84815419D01*
X117135352Y-84910657D01*
X117087733Y-85101133D01*
X117087733Y-85339228D01*
X117135352Y-85529704D01*
X117182971Y-85624942D01*
X117230590Y-85672561D01*
X117325828Y-85720180D01*
X117421066Y-85720180D01*
X117516304Y-85672561D01*
X117563923Y-85624942D01*
X117611542Y-85529704D01*
X117659161Y-85339228D01*
X117659161Y-85101133D01*
X117611542Y-84910657D01*
X117563923Y-84815419D01*
X117516304Y-84767800D01*
X117421066Y-84720180D01*
X157422695Y-95880180D02*
X157422695Y-94880180D01*
X157041742Y-94880180D01*
X156946504Y-94927800D01*
X156898885Y-94975419D01*
X156851266Y-95070657D01*
X156851266Y-95213514D01*
X156898885Y-95308752D01*
X156946504Y-95356371D01*
X157041742Y-95403990D01*
X157422695Y-95403990D01*
X156422695Y-95880180D02*
X156422695Y-94880180D01*
X156184600Y-94880180D01*
X156041742Y-94927800D01*
X155946504Y-95023038D01*
X155898885Y-95118276D01*
X155851266Y-95308752D01*
X155851266Y-95451609D01*
X155898885Y-95642085D01*
X155946504Y-95737323D01*
X156041742Y-95832561D01*
X156184600Y-95880180D01*
X156422695Y-95880180D01*
X154946504Y-94880180D02*
X155422695Y-94880180D01*
X155470314Y-95356371D01*
X155422695Y-95308752D01*
X155327457Y-95261133D01*
X155089361Y-95261133D01*
X154994123Y-95308752D01*
X154946504Y-95356371D01*
X154898885Y-95451609D01*
X154898885Y-95689704D01*
X154946504Y-95784942D01*
X154994123Y-95832561D01*
X155089361Y-95880180D01*
X155327457Y-95880180D01*
X155422695Y-95832561D01*
X155470314Y-95784942D01*
X152877638Y-116174780D02*
X152877638Y-115174780D01*
X152496686Y-115174780D01*
X152401448Y-115222400D01*
X152353829Y-115270019D01*
X152306210Y-115365257D01*
X152306210Y-115508114D01*
X152353829Y-115603352D01*
X152401448Y-115650971D01*
X152496686Y-115698590D01*
X152877638Y-115698590D01*
X151925257Y-115889066D02*
X151449067Y-115889066D01*
X152020495Y-116174780D02*
X151687162Y-115174780D01*
X151353829Y-116174780D01*
X150591924Y-115174780D02*
X150782400Y-115174780D01*
X150877638Y-115222400D01*
X150925257Y-115270019D01*
X151020495Y-115412876D01*
X151068114Y-115603352D01*
X151068114Y-115984304D01*
X151020495Y-116079542D01*
X150972876Y-116127161D01*
X150877638Y-116174780D01*
X150687162Y-116174780D01*
X150591924Y-116127161D01*
X150544305Y-116079542D01*
X150496686Y-115984304D01*
X150496686Y-115746209D01*
X150544305Y-115650971D01*
X150591924Y-115603352D01*
X150687162Y-115555733D01*
X150877638Y-115555733D01*
X150972876Y-115603352D01*
X151020495Y-115650971D01*
X151068114Y-115746209D01*
X121989695Y-105989380D02*
X121989695Y-104989380D01*
X121608742Y-104989380D01*
X121513504Y-105037000D01*
X121465885Y-105084619D01*
X121418266Y-105179857D01*
X121418266Y-105322714D01*
X121465885Y-105417952D01*
X121513504Y-105465571D01*
X121608742Y-105513190D01*
X121989695Y-105513190D01*
X120656361Y-105465571D02*
X120513504Y-105513190D01*
X120465885Y-105560809D01*
X120418266Y-105656047D01*
X120418266Y-105798904D01*
X120465885Y-105894142D01*
X120513504Y-105941761D01*
X120608742Y-105989380D01*
X120989695Y-105989380D01*
X120989695Y-104989380D01*
X120656361Y-104989380D01*
X120561123Y-105037000D01*
X120513504Y-105084619D01*
X120465885Y-105179857D01*
X120465885Y-105275095D01*
X120513504Y-105370333D01*
X120561123Y-105417952D01*
X120656361Y-105465571D01*
X120989695Y-105465571D01*
X119561123Y-104989380D02*
X119751600Y-104989380D01*
X119846838Y-105037000D01*
X119894457Y-105084619D01*
X119989695Y-105227476D01*
X120037314Y-105417952D01*
X120037314Y-105798904D01*
X119989695Y-105894142D01*
X119942076Y-105941761D01*
X119846838Y-105989380D01*
X119656361Y-105989380D01*
X119561123Y-105941761D01*
X119513504Y-105894142D01*
X119465885Y-105798904D01*
X119465885Y-105560809D01*
X119513504Y-105465571D01*
X119561123Y-105417952D01*
X119656361Y-105370333D01*
X119846838Y-105370333D01*
X119942076Y-105417952D01*
X119989695Y-105465571D01*
X120037314Y-105560809D01*
X157351266Y-121280180D02*
X157351266Y-120280180D01*
X156970314Y-120280180D01*
X156875076Y-120327800D01*
X156827457Y-120375419D01*
X156779838Y-120470657D01*
X156779838Y-120613514D01*
X156827457Y-120708752D01*
X156875076Y-120756371D01*
X156970314Y-120803990D01*
X157351266Y-120803990D01*
X156398885Y-120994466D02*
X155922695Y-120994466D01*
X156494123Y-121280180D02*
X156160790Y-120280180D01*
X155827457Y-121280180D01*
X155589361Y-120280180D02*
X154970314Y-120280180D01*
X155303647Y-120661133D01*
X155160790Y-120661133D01*
X155065552Y-120708752D01*
X155017933Y-120756371D01*
X154970314Y-120851609D01*
X154970314Y-121089704D01*
X155017933Y-121184942D01*
X155065552Y-121232561D01*
X155160790Y-121280180D01*
X155446504Y-121280180D01*
X155541742Y-121232561D01*
X155589361Y-121184942D01*
X122019818Y-113514142D02*
X122067438Y-113561761D01*
X122210295Y-113609380D01*
X122305533Y-113609380D01*
X122448390Y-113561761D01*
X122543628Y-113466523D01*
X122591247Y-113371285D01*
X122638866Y-113180809D01*
X122638866Y-113037952D01*
X122591247Y-112847476D01*
X122543628Y-112752238D01*
X122448390Y-112657000D01*
X122305533Y-112609380D01*
X122210295Y-112609380D01*
X122067438Y-112657000D01*
X122019818Y-112704619D01*
X121734104Y-112609380D02*
X121162676Y-112609380D01*
X121448390Y-113609380D02*
X121448390Y-112609380D01*
X120353152Y-113609380D02*
X120829342Y-113609380D01*
X120829342Y-112609380D01*
X120067438Y-112704619D02*
X120019818Y-112657000D01*
X119924580Y-112609380D01*
X119686485Y-112609380D01*
X119591247Y-112657000D01*
X119543628Y-112704619D01*
X119496009Y-112799857D01*
X119496009Y-112895095D01*
X119543628Y-113037952D01*
X120115057Y-113609380D01*
X119496009Y-113609380D01*
X157351266Y-118740180D02*
X157351266Y-117740180D01*
X156970314Y-117740180D01*
X156875076Y-117787800D01*
X156827457Y-117835419D01*
X156779838Y-117930657D01*
X156779838Y-118073514D01*
X156827457Y-118168752D01*
X156875076Y-118216371D01*
X156970314Y-118263990D01*
X157351266Y-118263990D01*
X156398885Y-118454466D02*
X155922695Y-118454466D01*
X156494123Y-118740180D02*
X156160790Y-117740180D01*
X155827457Y-118740180D01*
X155017933Y-117740180D02*
X155494123Y-117740180D01*
X155541742Y-118216371D01*
X155494123Y-118168752D01*
X155398885Y-118121133D01*
X155160790Y-118121133D01*
X155065552Y-118168752D01*
X155017933Y-118216371D01*
X154970314Y-118311609D01*
X154970314Y-118549704D01*
X155017933Y-118644942D01*
X155065552Y-118692561D01*
X155160790Y-118740180D01*
X155398885Y-118740180D01*
X155494123Y-118692561D01*
X155541742Y-118644942D01*
X118509895Y-108605580D02*
X118509895Y-107605580D01*
X118128942Y-107605580D01*
X118033704Y-107653200D01*
X117986085Y-107700819D01*
X117938466Y-107796057D01*
X117938466Y-107938914D01*
X117986085Y-108034152D01*
X118033704Y-108081771D01*
X118128942Y-108129390D01*
X118509895Y-108129390D01*
X117176561Y-108081771D02*
X117033704Y-108129390D01*
X116986085Y-108177009D01*
X116938466Y-108272247D01*
X116938466Y-108415104D01*
X116986085Y-108510342D01*
X117033704Y-108557961D01*
X117128942Y-108605580D01*
X117509895Y-108605580D01*
X117509895Y-107605580D01*
X117176561Y-107605580D01*
X117081323Y-107653200D01*
X117033704Y-107700819D01*
X116986085Y-107796057D01*
X116986085Y-107891295D01*
X117033704Y-107986533D01*
X117081323Y-108034152D01*
X117176561Y-108081771D01*
X117509895Y-108081771D01*
X116605133Y-107605580D02*
X115938466Y-107605580D01*
X116367038Y-108605580D01*
X118419428Y-92083200D02*
X117276571Y-92083200D01*
X118276571Y-92365580D02*
X118038476Y-93365580D01*
X117848000Y-92651295D01*
X117657523Y-93365580D01*
X117419428Y-92365580D01*
X117276571Y-92083200D02*
X116276571Y-92083200D01*
X116467047Y-93365580D02*
X116800380Y-92889390D01*
X117038476Y-93365580D02*
X117038476Y-92365580D01*
X116657523Y-92365580D01*
X116562285Y-92413200D01*
X116514666Y-92460819D01*
X116467047Y-92556057D01*
X116467047Y-92698914D01*
X116514666Y-92794152D01*
X116562285Y-92841771D01*
X116657523Y-92889390D01*
X117038476Y-92889390D01*
X156870210Y-85694780D02*
X157203543Y-85218590D01*
X157441638Y-85694780D02*
X157441638Y-84694780D01*
X157060686Y-84694780D01*
X156965448Y-84742400D01*
X156917829Y-84790019D01*
X156870210Y-84885257D01*
X156870210Y-85028114D01*
X156917829Y-85123352D01*
X156965448Y-85170971D01*
X157060686Y-85218590D01*
X157441638Y-85218590D01*
X156441638Y-85694780D02*
X156441638Y-84694780D01*
X156203543Y-84694780D01*
X156060686Y-84742400D01*
X155965448Y-84837638D01*
X155917829Y-84932876D01*
X155870210Y-85123352D01*
X155870210Y-85266209D01*
X155917829Y-85456685D01*
X155965448Y-85551923D01*
X156060686Y-85647161D01*
X156203543Y-85694780D01*
X156441638Y-85694780D01*
X155251162Y-85218590D02*
X155251162Y-85694780D01*
X155584495Y-84694780D02*
X155251162Y-85218590D01*
X154917829Y-84694780D01*
X154155924Y-85028114D02*
X154155924Y-85694780D01*
X154394019Y-84647161D02*
X154632114Y-85361447D01*
X154013067Y-85361447D01*
X117914657Y-103525580D02*
X118247990Y-103049390D01*
X118486085Y-103525580D02*
X118486085Y-102525580D01*
X118105133Y-102525580D01*
X118009895Y-102573200D01*
X117962276Y-102620819D01*
X117914657Y-102716057D01*
X117914657Y-102858914D01*
X117962276Y-102954152D01*
X118009895Y-103001771D01*
X118105133Y-103049390D01*
X118486085Y-103049390D01*
X117581323Y-102525580D02*
X116914657Y-103525580D01*
X116914657Y-102525580D02*
X117581323Y-103525580D01*
X116009895Y-103525580D02*
X116581323Y-103525580D01*
X116295609Y-103525580D02*
X116295609Y-102525580D01*
X116390847Y-102668438D01*
X116486085Y-102763676D01*
X116581323Y-102811295D01*
X121548400Y-89467000D02*
X120548400Y-89467000D01*
X120738876Y-90749380D02*
X121072209Y-90273190D01*
X121310304Y-90749380D02*
X121310304Y-89749380D01*
X120929352Y-89749380D01*
X120834114Y-89797000D01*
X120786495Y-89844619D01*
X120738876Y-89939857D01*
X120738876Y-90082714D01*
X120786495Y-90177952D01*
X120834114Y-90225571D01*
X120929352Y-90273190D01*
X121310304Y-90273190D01*
X120548400Y-89467000D02*
X119548400Y-89467000D01*
X120310304Y-90749380D02*
X120310304Y-89749380D01*
X120072209Y-89749380D01*
X119929352Y-89797000D01*
X119834114Y-89892238D01*
X119786495Y-89987476D01*
X119738876Y-90177952D01*
X119738876Y-90320809D01*
X119786495Y-90511285D01*
X119834114Y-90606523D01*
X119929352Y-90701761D01*
X120072209Y-90749380D01*
X120310304Y-90749380D01*
X121989695Y-95829380D02*
X121989695Y-94829380D01*
X121608742Y-94829380D01*
X121513504Y-94877000D01*
X121465885Y-94924619D01*
X121418266Y-95019857D01*
X121418266Y-95162714D01*
X121465885Y-95257952D01*
X121513504Y-95305571D01*
X121608742Y-95353190D01*
X121989695Y-95353190D01*
X120656361Y-95305571D02*
X120513504Y-95353190D01*
X120465885Y-95400809D01*
X120418266Y-95496047D01*
X120418266Y-95638904D01*
X120465885Y-95734142D01*
X120513504Y-95781761D01*
X120608742Y-95829380D01*
X120989695Y-95829380D01*
X120989695Y-94829380D01*
X120656361Y-94829380D01*
X120561123Y-94877000D01*
X120513504Y-94924619D01*
X120465885Y-95019857D01*
X120465885Y-95115095D01*
X120513504Y-95210333D01*
X120561123Y-95257952D01*
X120656361Y-95305571D01*
X120989695Y-95305571D01*
X120037314Y-94924619D02*
X119989695Y-94877000D01*
X119894457Y-94829380D01*
X119656361Y-94829380D01*
X119561123Y-94877000D01*
X119513504Y-94924619D01*
X119465885Y-95019857D01*
X119465885Y-95115095D01*
X119513504Y-95257952D01*
X120084933Y-95829380D01*
X119465885Y-95829380D01*
X157422695Y-113660180D02*
X157422695Y-112660180D01*
X157041742Y-112660180D01*
X156946504Y-112707800D01*
X156898885Y-112755419D01*
X156851266Y-112850657D01*
X156851266Y-112993514D01*
X156898885Y-113088752D01*
X156946504Y-113136371D01*
X157041742Y-113183990D01*
X157422695Y-113183990D01*
X156422695Y-113660180D02*
X156422695Y-112660180D01*
X156184600Y-112660180D01*
X156041742Y-112707800D01*
X155946504Y-112803038D01*
X155898885Y-112898276D01*
X155851266Y-113088752D01*
X155851266Y-113231609D01*
X155898885Y-113422085D01*
X155946504Y-113517323D01*
X156041742Y-113612561D01*
X156184600Y-113660180D01*
X156422695Y-113660180D01*
X155232219Y-112660180D02*
X155136980Y-112660180D01*
X155041742Y-112707800D01*
X154994123Y-112755419D01*
X154946504Y-112850657D01*
X154898885Y-113041133D01*
X154898885Y-113279228D01*
X154946504Y-113469704D01*
X154994123Y-113564942D01*
X155041742Y-113612561D01*
X155136980Y-113660180D01*
X155232219Y-113660180D01*
X155327457Y-113612561D01*
X155375076Y-113564942D01*
X155422695Y-113469704D01*
X155470314Y-113279228D01*
X155470314Y-113041133D01*
X155422695Y-112850657D01*
X155375076Y-112755419D01*
X155327457Y-112707800D01*
X155232219Y-112660180D01*
X121989695Y-97369380D02*
X121418266Y-97369380D01*
X121703980Y-98369380D02*
X121703980Y-97369380D01*
X121180171Y-97369380D02*
X120513504Y-98369380D01*
X120513504Y-97369380D02*
X121180171Y-98369380D01*
X119942076Y-97369380D02*
X119846838Y-97369380D01*
X119751600Y-97417000D01*
X119703980Y-97464619D01*
X119656361Y-97559857D01*
X119608742Y-97750333D01*
X119608742Y-97988428D01*
X119656361Y-98178904D01*
X119703980Y-98274142D01*
X119751600Y-98321761D01*
X119846838Y-98369380D01*
X119942076Y-98369380D01*
X120037314Y-98321761D01*
X120084933Y-98274142D01*
X120132552Y-98178904D01*
X120180171Y-97988428D01*
X120180171Y-97750333D01*
X120132552Y-97559857D01*
X120084933Y-97464619D01*
X120037314Y-97417000D01*
X119942076Y-97369380D01*
X122234152Y-83154780D02*
X122234152Y-82154780D01*
X121757961Y-83154780D02*
X121757961Y-82154780D01*
X121186533Y-83154780D01*
X121186533Y-82154780D01*
X120853200Y-82154780D02*
X120281771Y-82154780D01*
X120567485Y-83154780D02*
X120567485Y-82154780D01*
X119519866Y-82488114D02*
X119519866Y-83154780D01*
X119757961Y-82107161D02*
X119996057Y-82821447D01*
X119377009Y-82821447D01*
X117868580Y-113590342D02*
X117916200Y-113637961D01*
X118059057Y-113685580D01*
X118154295Y-113685580D01*
X118297152Y-113637961D01*
X118392390Y-113542723D01*
X118440009Y-113447485D01*
X118487628Y-113257009D01*
X118487628Y-113114152D01*
X118440009Y-112923676D01*
X118392390Y-112828438D01*
X118297152Y-112733200D01*
X118154295Y-112685580D01*
X118059057Y-112685580D01*
X117916200Y-112733200D01*
X117868580Y-112780819D01*
X117582866Y-112685580D02*
X117011438Y-112685580D01*
X117297152Y-113685580D02*
X117297152Y-112685580D01*
X116201914Y-113685580D02*
X116678104Y-113685580D01*
X116678104Y-112685580D01*
X115344771Y-113685580D02*
X115916200Y-113685580D01*
X115630485Y-113685580D02*
X115630485Y-112685580D01*
X115725723Y-112828438D01*
X115820961Y-112923676D01*
X115916200Y-112971295D01*
X157422695Y-93340180D02*
X157422695Y-92340180D01*
X157041742Y-92340180D01*
X156946504Y-92387800D01*
X156898885Y-92435419D01*
X156851266Y-92530657D01*
X156851266Y-92673514D01*
X156898885Y-92768752D01*
X156946504Y-92816371D01*
X157041742Y-92863990D01*
X157422695Y-92863990D01*
X156422695Y-93340180D02*
X156422695Y-92340180D01*
X156184600Y-92340180D01*
X156041742Y-92387800D01*
X155946504Y-92483038D01*
X155898885Y-92578276D01*
X155851266Y-92768752D01*
X155851266Y-92911609D01*
X155898885Y-93102085D01*
X155946504Y-93197323D01*
X156041742Y-93292561D01*
X156184600Y-93340180D01*
X156422695Y-93340180D01*
X155517933Y-92340180D02*
X154851266Y-92340180D01*
X155279838Y-93340180D01*
X118509895Y-116225580D02*
X118509895Y-115225580D01*
X118128942Y-115225580D01*
X118033704Y-115273200D01*
X117986085Y-115320819D01*
X117938466Y-115416057D01*
X117938466Y-115558914D01*
X117986085Y-115654152D01*
X118033704Y-115701771D01*
X118128942Y-115749390D01*
X118509895Y-115749390D01*
X116938466Y-116130342D02*
X116986085Y-116177961D01*
X117128942Y-116225580D01*
X117224180Y-116225580D01*
X117367038Y-116177961D01*
X117462276Y-116082723D01*
X117509895Y-115987485D01*
X117557514Y-115797009D01*
X117557514Y-115654152D01*
X117509895Y-115463676D01*
X117462276Y-115368438D01*
X117367038Y-115273200D01*
X117224180Y-115225580D01*
X117128942Y-115225580D01*
X116986085Y-115273200D01*
X116938466Y-115320819D01*
X116319419Y-115225580D02*
X116224180Y-115225580D01*
X116128942Y-115273200D01*
X116081323Y-115320819D01*
X116033704Y-115416057D01*
X115986085Y-115606533D01*
X115986085Y-115844628D01*
X116033704Y-116035104D01*
X116081323Y-116130342D01*
X116128942Y-116177961D01*
X116224180Y-116225580D01*
X116319419Y-116225580D01*
X116414657Y-116177961D01*
X116462276Y-116130342D01*
X116509895Y-116035104D01*
X116557514Y-115844628D01*
X116557514Y-115606533D01*
X116509895Y-115416057D01*
X116462276Y-115320819D01*
X116414657Y-115273200D01*
X116319419Y-115225580D01*
X152949067Y-93340180D02*
X152949067Y-92340180D01*
X152568114Y-92340180D01*
X152472876Y-92387800D01*
X152425257Y-92435419D01*
X152377638Y-92530657D01*
X152377638Y-92673514D01*
X152425257Y-92768752D01*
X152472876Y-92816371D01*
X152568114Y-92863990D01*
X152949067Y-92863990D01*
X151949067Y-93340180D02*
X151949067Y-92340180D01*
X151710972Y-92340180D01*
X151568114Y-92387800D01*
X151472876Y-92483038D01*
X151425257Y-92578276D01*
X151377638Y-92768752D01*
X151377638Y-92911609D01*
X151425257Y-93102085D01*
X151472876Y-93197323D01*
X151568114Y-93292561D01*
X151710972Y-93340180D01*
X151949067Y-93340180D01*
X150520495Y-92340180D02*
X150710972Y-92340180D01*
X150806210Y-92387800D01*
X150853829Y-92435419D01*
X150949067Y-92578276D01*
X150996686Y-92768752D01*
X150996686Y-93149704D01*
X150949067Y-93244942D01*
X150901448Y-93292561D01*
X150806210Y-93340180D01*
X150615733Y-93340180D01*
X150520495Y-93292561D01*
X150472876Y-93244942D01*
X150425257Y-93149704D01*
X150425257Y-92911609D01*
X150472876Y-92816371D01*
X150520495Y-92768752D01*
X150615733Y-92721133D01*
X150806210Y-92721133D01*
X150901448Y-92768752D01*
X150949067Y-92816371D01*
X150996686Y-92911609D01*
X157498847Y-107297800D02*
X157022657Y-107297800D01*
X157260752Y-108580180D02*
X157260752Y-107580180D01*
X157022657Y-107297800D02*
X155975038Y-107297800D01*
X156784561Y-108580180D02*
X156784561Y-107580180D01*
X156213133Y-108580180D01*
X156213133Y-107580180D01*
X155975038Y-107297800D02*
X155213133Y-107297800D01*
X155879800Y-107580180D02*
X155308371Y-107580180D01*
X155594085Y-108580180D02*
X155594085Y-107580180D01*
X155213133Y-107297800D02*
X154260752Y-107297800D01*
X154498847Y-107580180D02*
X154975038Y-107580180D01*
X155022657Y-108056371D01*
X154975038Y-108008752D01*
X154879800Y-107961133D01*
X154641704Y-107961133D01*
X154546466Y-108008752D01*
X154498847Y-108056371D01*
X154451228Y-108151609D01*
X154451228Y-108389704D01*
X154498847Y-108484942D01*
X154546466Y-108532561D01*
X154641704Y-108580180D01*
X154879800Y-108580180D01*
X154975038Y-108532561D01*
X155022657Y-108484942D01*
X157375076Y-100960180D02*
X157375076Y-99960180D01*
X156994123Y-99960180D01*
X156898885Y-100007800D01*
X156851266Y-100055419D01*
X156803647Y-100150657D01*
X156803647Y-100293514D01*
X156851266Y-100388752D01*
X156898885Y-100436371D01*
X156994123Y-100483990D01*
X157375076Y-100483990D01*
X156375076Y-100436371D02*
X156041742Y-100436371D01*
X155898885Y-100960180D02*
X156375076Y-100960180D01*
X156375076Y-99960180D01*
X155898885Y-99960180D01*
X154994123Y-99960180D02*
X155470314Y-99960180D01*
X155517933Y-100436371D01*
X155470314Y-100388752D01*
X155375076Y-100341133D01*
X155136980Y-100341133D01*
X155041742Y-100388752D01*
X154994123Y-100436371D01*
X154946504Y-100531609D01*
X154946504Y-100769704D01*
X154994123Y-100864942D01*
X155041742Y-100912561D01*
X155136980Y-100960180D01*
X155375076Y-100960180D01*
X155470314Y-100912561D01*
X155517933Y-100864942D01*
X118440104Y-87285580D02*
X117868676Y-87285580D01*
X118154390Y-88285580D02*
X118154390Y-87285580D01*
X117582961Y-87380819D02*
X117535342Y-87333200D01*
X117440104Y-87285580D01*
X117202009Y-87285580D01*
X117106771Y-87333200D01*
X117059152Y-87380819D01*
X117011533Y-87476057D01*
X117011533Y-87571295D01*
X117059152Y-87714152D01*
X117630580Y-88285580D01*
X117011533Y-88285580D01*
X152877638Y-121254780D02*
X152877638Y-120254780D01*
X152496686Y-120254780D01*
X152401448Y-120302400D01*
X152353829Y-120350019D01*
X152306210Y-120445257D01*
X152306210Y-120588114D01*
X152353829Y-120683352D01*
X152401448Y-120730971D01*
X152496686Y-120778590D01*
X152877638Y-120778590D01*
X151925257Y-120969066D02*
X151449067Y-120969066D01*
X152020495Y-121254780D02*
X151687162Y-120254780D01*
X151353829Y-121254780D01*
X151068114Y-120350019D02*
X151020495Y-120302400D01*
X150925257Y-120254780D01*
X150687162Y-120254780D01*
X150591924Y-120302400D01*
X150544305Y-120350019D01*
X150496686Y-120445257D01*
X150496686Y-120540495D01*
X150544305Y-120683352D01*
X151115733Y-121254780D01*
X150496686Y-121254780D01*
X152901448Y-98420180D02*
X152901448Y-97420180D01*
X152520495Y-97420180D01*
X152425257Y-97467800D01*
X152377638Y-97515419D01*
X152330019Y-97610657D01*
X152330019Y-97753514D01*
X152377638Y-97848752D01*
X152425257Y-97896371D01*
X152520495Y-97943990D01*
X152901448Y-97943990D01*
X151901448Y-97896371D02*
X151568114Y-97896371D01*
X151425257Y-98420180D02*
X151901448Y-98420180D01*
X151901448Y-97420180D01*
X151425257Y-97420180D01*
X150568114Y-97420180D02*
X150758591Y-97420180D01*
X150853829Y-97467800D01*
X150901448Y-97515419D01*
X150996686Y-97658276D01*
X151044305Y-97848752D01*
X151044305Y-98229704D01*
X150996686Y-98324942D01*
X150949067Y-98372561D01*
X150853829Y-98420180D01*
X150663352Y-98420180D01*
X150568114Y-98372561D01*
X150520495Y-98324942D01*
X150472876Y-98229704D01*
X150472876Y-97991609D01*
X150520495Y-97896371D01*
X150568114Y-97848752D01*
X150663352Y-97801133D01*
X150853829Y-97801133D01*
X150949067Y-97848752D01*
X150996686Y-97896371D01*
X151044305Y-97991609D01*
X152479238Y-88285580D02*
X152812571Y-87809390D01*
X153050666Y-88285580D02*
X153050666Y-87285580D01*
X152669714Y-87285580D01*
X152574476Y-87333200D01*
X152526857Y-87380819D01*
X152479238Y-87476057D01*
X152479238Y-87618914D01*
X152526857Y-87714152D01*
X152574476Y-87761771D01*
X152669714Y-87809390D01*
X153050666Y-87809390D01*
X152050666Y-88285580D02*
X152050666Y-87285580D01*
X151812571Y-87285580D01*
X151669714Y-87333200D01*
X151574476Y-87428438D01*
X151526857Y-87523676D01*
X151479238Y-87714152D01*
X151479238Y-87857009D01*
X151526857Y-88047485D01*
X151574476Y-88142723D01*
X151669714Y-88237961D01*
X151812571Y-88285580D01*
X152050666Y-88285580D01*
X150860190Y-87809390D02*
X150860190Y-88285580D01*
X151193523Y-87285580D02*
X150860190Y-87809390D01*
X150526857Y-87285580D01*
X149669714Y-88285580D02*
X150241142Y-88285580D01*
X149955428Y-88285580D02*
X149955428Y-87285580D01*
X150050666Y-87428438D01*
X150145904Y-87523676D01*
X150241142Y-87571295D01*
X121989695Y-93289380D02*
X121989695Y-92289380D01*
X121608742Y-92289380D01*
X121513504Y-92337000D01*
X121465885Y-92384619D01*
X121418266Y-92479857D01*
X121418266Y-92622714D01*
X121465885Y-92717952D01*
X121513504Y-92765571D01*
X121608742Y-92813190D01*
X121989695Y-92813190D01*
X120656361Y-92765571D02*
X120513504Y-92813190D01*
X120465885Y-92860809D01*
X120418266Y-92956047D01*
X120418266Y-93098904D01*
X120465885Y-93194142D01*
X120513504Y-93241761D01*
X120608742Y-93289380D01*
X120989695Y-93289380D01*
X120989695Y-92289380D01*
X120656361Y-92289380D01*
X120561123Y-92337000D01*
X120513504Y-92384619D01*
X120465885Y-92479857D01*
X120465885Y-92575095D01*
X120513504Y-92670333D01*
X120561123Y-92717952D01*
X120656361Y-92765571D01*
X120989695Y-92765571D01*
X119799219Y-92289380D02*
X119703980Y-92289380D01*
X119608742Y-92337000D01*
X119561123Y-92384619D01*
X119513504Y-92479857D01*
X119465885Y-92670333D01*
X119465885Y-92908428D01*
X119513504Y-93098904D01*
X119561123Y-93194142D01*
X119608742Y-93241761D01*
X119703980Y-93289380D01*
X119799219Y-93289380D01*
X119894457Y-93241761D01*
X119942076Y-93194142D01*
X119989695Y-93098904D01*
X120037314Y-92908428D01*
X120037314Y-92670333D01*
X119989695Y-92479857D01*
X119942076Y-92384619D01*
X119894457Y-92337000D01*
X119799219Y-92289380D01*
X152949067Y-95880180D02*
X152949067Y-94880180D01*
X152568114Y-94880180D01*
X152472876Y-94927800D01*
X152425257Y-94975419D01*
X152377638Y-95070657D01*
X152377638Y-95213514D01*
X152425257Y-95308752D01*
X152472876Y-95356371D01*
X152568114Y-95403990D01*
X152949067Y-95403990D01*
X151949067Y-95880180D02*
X151949067Y-94880180D01*
X151710972Y-94880180D01*
X151568114Y-94927800D01*
X151472876Y-95023038D01*
X151425257Y-95118276D01*
X151377638Y-95308752D01*
X151377638Y-95451609D01*
X151425257Y-95642085D01*
X151472876Y-95737323D01*
X151568114Y-95832561D01*
X151710972Y-95880180D01*
X151949067Y-95880180D01*
X150520495Y-95213514D02*
X150520495Y-95880180D01*
X150758591Y-94832561D02*
X150996686Y-95546847D01*
X150377638Y-95546847D01*
X118509895Y-95905580D02*
X118509895Y-94905580D01*
X118128942Y-94905580D01*
X118033704Y-94953200D01*
X117986085Y-95000819D01*
X117938466Y-95096057D01*
X117938466Y-95238914D01*
X117986085Y-95334152D01*
X118033704Y-95381771D01*
X118128942Y-95429390D01*
X118509895Y-95429390D01*
X117176561Y-95381771D02*
X117033704Y-95429390D01*
X116986085Y-95477009D01*
X116938466Y-95572247D01*
X116938466Y-95715104D01*
X116986085Y-95810342D01*
X117033704Y-95857961D01*
X117128942Y-95905580D01*
X117509895Y-95905580D01*
X117509895Y-94905580D01*
X117176561Y-94905580D01*
X117081323Y-94953200D01*
X117033704Y-95000819D01*
X116986085Y-95096057D01*
X116986085Y-95191295D01*
X117033704Y-95286533D01*
X117081323Y-95334152D01*
X117176561Y-95381771D01*
X117509895Y-95381771D01*
X115986085Y-95905580D02*
X116557514Y-95905580D01*
X116271800Y-95905580D02*
X116271800Y-94905580D01*
X116367038Y-95048438D01*
X116462276Y-95143676D01*
X116557514Y-95191295D01*
X157375076Y-106040180D02*
X157375076Y-105040180D01*
X156994123Y-105040180D01*
X156898885Y-105087800D01*
X156851266Y-105135419D01*
X156803647Y-105230657D01*
X156803647Y-105373514D01*
X156851266Y-105468752D01*
X156898885Y-105516371D01*
X156994123Y-105563990D01*
X157375076Y-105563990D01*
X156375076Y-105516371D02*
X156041742Y-105516371D01*
X155898885Y-106040180D02*
X156375076Y-106040180D01*
X156375076Y-105040180D01*
X155898885Y-105040180D01*
X154946504Y-106040180D02*
X155517933Y-106040180D01*
X155232219Y-106040180D02*
X155232219Y-105040180D01*
X155327457Y-105183038D01*
X155422695Y-105278276D01*
X155517933Y-105325895D01*
X122015095Y-118714780D02*
X122015095Y-117714780D01*
X121634142Y-117714780D01*
X121538904Y-117762400D01*
X121491285Y-117810019D01*
X121443666Y-117905257D01*
X121443666Y-118048114D01*
X121491285Y-118143352D01*
X121538904Y-118190971D01*
X121634142Y-118238590D01*
X122015095Y-118238590D01*
X120443666Y-118619542D02*
X120491285Y-118667161D01*
X120634142Y-118714780D01*
X120729380Y-118714780D01*
X120872238Y-118667161D01*
X120967476Y-118571923D01*
X121015095Y-118476685D01*
X121062714Y-118286209D01*
X121062714Y-118143352D01*
X121015095Y-117952876D01*
X120967476Y-117857638D01*
X120872238Y-117762400D01*
X120729380Y-117714780D01*
X120634142Y-117714780D01*
X120491285Y-117762400D01*
X120443666Y-117810019D01*
X120110333Y-117714780D02*
X119491285Y-117714780D01*
X119824619Y-118095733D01*
X119681761Y-118095733D01*
X119586523Y-118143352D01*
X119538904Y-118190971D01*
X119491285Y-118286209D01*
X119491285Y-118524304D01*
X119538904Y-118619542D01*
X119586523Y-118667161D01*
X119681761Y-118714780D01*
X119967476Y-118714780D01*
X120062714Y-118667161D01*
X120110333Y-118619542D01*
X157351266Y-123820180D02*
X157351266Y-122820180D01*
X156970314Y-122820180D01*
X156875076Y-122867800D01*
X156827457Y-122915419D01*
X156779838Y-123010657D01*
X156779838Y-123153514D01*
X156827457Y-123248752D01*
X156875076Y-123296371D01*
X156970314Y-123343990D01*
X157351266Y-123343990D01*
X156398885Y-123534466D02*
X155922695Y-123534466D01*
X156494123Y-123820180D02*
X156160790Y-122820180D01*
X155827457Y-123820180D01*
X154970314Y-123820180D02*
X155541742Y-123820180D01*
X155256028Y-123820180D02*
X155256028Y-122820180D01*
X155351266Y-122963038D01*
X155446504Y-123058276D01*
X155541742Y-123105895D01*
X122015095Y-123794780D02*
X122015095Y-122794780D01*
X121634142Y-122794780D01*
X121538904Y-122842400D01*
X121491285Y-122890019D01*
X121443666Y-122985257D01*
X121443666Y-123128114D01*
X121491285Y-123223352D01*
X121538904Y-123270971D01*
X121634142Y-123318590D01*
X122015095Y-123318590D01*
X120443666Y-123699542D02*
X120491285Y-123747161D01*
X120634142Y-123794780D01*
X120729380Y-123794780D01*
X120872238Y-123747161D01*
X120967476Y-123651923D01*
X121015095Y-123556685D01*
X121062714Y-123366209D01*
X121062714Y-123223352D01*
X121015095Y-123032876D01*
X120967476Y-122937638D01*
X120872238Y-122842400D01*
X120729380Y-122794780D01*
X120634142Y-122794780D01*
X120491285Y-122842400D01*
X120443666Y-122890019D01*
X120110333Y-122794780D02*
X119443666Y-122794780D01*
X119872238Y-123794780D01*
X157375076Y-103500180D02*
X157375076Y-102500180D01*
X156994123Y-102500180D01*
X156898885Y-102547800D01*
X156851266Y-102595419D01*
X156803647Y-102690657D01*
X156803647Y-102833514D01*
X156851266Y-102928752D01*
X156898885Y-102976371D01*
X156994123Y-103023990D01*
X157375076Y-103023990D01*
X156375076Y-102976371D02*
X156041742Y-102976371D01*
X155898885Y-103500180D02*
X156375076Y-103500180D01*
X156375076Y-102500180D01*
X155898885Y-102500180D01*
X155565552Y-102500180D02*
X154946504Y-102500180D01*
X155279838Y-102881133D01*
X155136980Y-102881133D01*
X155041742Y-102928752D01*
X154994123Y-102976371D01*
X154946504Y-103071609D01*
X154946504Y-103309704D01*
X154994123Y-103404942D01*
X155041742Y-103452561D01*
X155136980Y-103500180D01*
X155422695Y-103500180D01*
X155517933Y-103452561D01*
X155565552Y-103404942D01*
X152901448Y-103500180D02*
X152901448Y-102500180D01*
X152520495Y-102500180D01*
X152425257Y-102547800D01*
X152377638Y-102595419D01*
X152330019Y-102690657D01*
X152330019Y-102833514D01*
X152377638Y-102928752D01*
X152425257Y-102976371D01*
X152520495Y-103023990D01*
X152901448Y-103023990D01*
X151901448Y-102976371D02*
X151568114Y-102976371D01*
X151425257Y-103500180D02*
X151901448Y-103500180D01*
X151901448Y-102500180D01*
X151425257Y-102500180D01*
X151044305Y-102595419D02*
X150996686Y-102547800D01*
X150901448Y-102500180D01*
X150663352Y-102500180D01*
X150568114Y-102547800D01*
X150520495Y-102595419D01*
X150472876Y-102690657D01*
X150472876Y-102785895D01*
X150520495Y-102928752D01*
X151091924Y-103500180D01*
X150472876Y-103500180D01*
X152926895Y-108580180D02*
X152926895Y-107580180D01*
X152545942Y-107580180D01*
X152450704Y-107627800D01*
X152403085Y-107675419D01*
X152355466Y-107770657D01*
X152355466Y-107913514D01*
X152403085Y-108008752D01*
X152450704Y-108056371D01*
X152545942Y-108103990D01*
X152926895Y-108103990D01*
X151926895Y-108580180D02*
X151926895Y-107580180D01*
X151688800Y-107580180D01*
X151545942Y-107627800D01*
X151450704Y-107723038D01*
X151403085Y-107818276D01*
X151355466Y-108008752D01*
X151355466Y-108151609D01*
X151403085Y-108342085D01*
X151450704Y-108437323D01*
X151545942Y-108532561D01*
X151688800Y-108580180D01*
X151926895Y-108580180D01*
X151022133Y-107580180D02*
X150403085Y-107580180D01*
X150736419Y-107961133D01*
X150593561Y-107961133D01*
X150498323Y-108008752D01*
X150450704Y-108056371D01*
X150403085Y-108151609D01*
X150403085Y-108389704D01*
X150450704Y-108484942D01*
X150498323Y-108532561D01*
X150593561Y-108580180D01*
X150879276Y-108580180D01*
X150974514Y-108532561D01*
X151022133Y-108484942D01*
X152877638Y-123794780D02*
X152877638Y-122794780D01*
X152496686Y-122794780D01*
X152401448Y-122842400D01*
X152353829Y-122890019D01*
X152306210Y-122985257D01*
X152306210Y-123128114D01*
X152353829Y-123223352D01*
X152401448Y-123270971D01*
X152496686Y-123318590D01*
X152877638Y-123318590D01*
X151925257Y-123509066D02*
X151449067Y-123509066D01*
X152020495Y-123794780D02*
X151687162Y-122794780D01*
X151353829Y-123794780D01*
X150830019Y-122794780D02*
X150734781Y-122794780D01*
X150639543Y-122842400D01*
X150591924Y-122890019D01*
X150544305Y-122985257D01*
X150496686Y-123175733D01*
X150496686Y-123413828D01*
X150544305Y-123604304D01*
X150591924Y-123699542D01*
X150639543Y-123747161D01*
X150734781Y-123794780D01*
X150830019Y-123794780D01*
X150925257Y-123747161D01*
X150972876Y-123699542D01*
X151020495Y-123604304D01*
X151068114Y-123413828D01*
X151068114Y-123175733D01*
X151020495Y-122985257D01*
X150972876Y-122890019D01*
X150925257Y-122842400D01*
X150830019Y-122794780D01*
X156844810Y-88260180D02*
X157178143Y-87783990D01*
X157416238Y-88260180D02*
X157416238Y-87260180D01*
X157035286Y-87260180D01*
X156940048Y-87307800D01*
X156892429Y-87355419D01*
X156844810Y-87450657D01*
X156844810Y-87593514D01*
X156892429Y-87688752D01*
X156940048Y-87736371D01*
X157035286Y-87783990D01*
X157416238Y-87783990D01*
X156416238Y-88260180D02*
X156416238Y-87260180D01*
X156178143Y-87260180D01*
X156035286Y-87307800D01*
X155940048Y-87403038D01*
X155892429Y-87498276D01*
X155844810Y-87688752D01*
X155844810Y-87831609D01*
X155892429Y-88022085D01*
X155940048Y-88117323D01*
X156035286Y-88212561D01*
X156178143Y-88260180D01*
X156416238Y-88260180D01*
X155225762Y-87783990D02*
X155225762Y-88260180D01*
X155559095Y-87260180D02*
X155225762Y-87783990D01*
X154892429Y-87260180D01*
X154606714Y-87355419D02*
X154559095Y-87307800D01*
X154463857Y-87260180D01*
X154225762Y-87260180D01*
X154130524Y-87307800D01*
X154082905Y-87355419D01*
X154035286Y-87450657D01*
X154035286Y-87545895D01*
X154082905Y-87688752D01*
X154654333Y-88260180D01*
X154035286Y-88260180D01*
X118509895Y-98445580D02*
X118509895Y-97445580D01*
X118128942Y-97445580D01*
X118033704Y-97493200D01*
X117986085Y-97540819D01*
X117938466Y-97636057D01*
X117938466Y-97778914D01*
X117986085Y-97874152D01*
X118033704Y-97921771D01*
X118128942Y-97969390D01*
X118509895Y-97969390D01*
X117176561Y-97921771D02*
X117033704Y-97969390D01*
X116986085Y-98017009D01*
X116938466Y-98112247D01*
X116938466Y-98255104D01*
X116986085Y-98350342D01*
X117033704Y-98397961D01*
X117128942Y-98445580D01*
X117509895Y-98445580D01*
X117509895Y-97445580D01*
X117176561Y-97445580D01*
X117081323Y-97493200D01*
X117033704Y-97540819D01*
X116986085Y-97636057D01*
X116986085Y-97731295D01*
X117033704Y-97826533D01*
X117081323Y-97874152D01*
X117176561Y-97921771D01*
X117509895Y-97921771D01*
X116605133Y-97445580D02*
X115986085Y-97445580D01*
X116319419Y-97826533D01*
X116176561Y-97826533D01*
X116081323Y-97874152D01*
X116033704Y-97921771D01*
X115986085Y-98017009D01*
X115986085Y-98255104D01*
X116033704Y-98350342D01*
X116081323Y-98397961D01*
X116176561Y-98445580D01*
X116462276Y-98445580D01*
X116557514Y-98397961D01*
X116605133Y-98350342D01*
X118509895Y-121305580D02*
X118509895Y-120305580D01*
X118128942Y-120305580D01*
X118033704Y-120353200D01*
X117986085Y-120400819D01*
X117938466Y-120496057D01*
X117938466Y-120638914D01*
X117986085Y-120734152D01*
X118033704Y-120781771D01*
X118128942Y-120829390D01*
X118509895Y-120829390D01*
X116938466Y-121210342D02*
X116986085Y-121257961D01*
X117128942Y-121305580D01*
X117224180Y-121305580D01*
X117367038Y-121257961D01*
X117462276Y-121162723D01*
X117509895Y-121067485D01*
X117557514Y-120877009D01*
X117557514Y-120734152D01*
X117509895Y-120543676D01*
X117462276Y-120448438D01*
X117367038Y-120353200D01*
X117224180Y-120305580D01*
X117128942Y-120305580D01*
X116986085Y-120353200D01*
X116938466Y-120400819D01*
X116081323Y-120638914D02*
X116081323Y-121305580D01*
X116319419Y-120257961D02*
X116557514Y-120972247D01*
X115938466Y-120972247D01*
X152901448Y-106040180D02*
X152901448Y-105040180D01*
X152520495Y-105040180D01*
X152425257Y-105087800D01*
X152377638Y-105135419D01*
X152330019Y-105230657D01*
X152330019Y-105373514D01*
X152377638Y-105468752D01*
X152425257Y-105516371D01*
X152520495Y-105563990D01*
X152901448Y-105563990D01*
X151901448Y-105516371D02*
X151568114Y-105516371D01*
X151425257Y-106040180D02*
X151901448Y-106040180D01*
X151901448Y-105040180D01*
X151425257Y-105040180D01*
X150806210Y-105040180D02*
X150710972Y-105040180D01*
X150615733Y-105087800D01*
X150568114Y-105135419D01*
X150520495Y-105230657D01*
X150472876Y-105421133D01*
X150472876Y-105659228D01*
X150520495Y-105849704D01*
X150568114Y-105944942D01*
X150615733Y-105992561D01*
X150710972Y-106040180D01*
X150806210Y-106040180D01*
X150901448Y-105992561D01*
X150949067Y-105944942D01*
X150996686Y-105849704D01*
X151044305Y-105659228D01*
X151044305Y-105421133D01*
X150996686Y-105230657D01*
X150949067Y-105135419D01*
X150901448Y-105087800D01*
X150806210Y-105040180D01*
X157422695Y-111120180D02*
X157422695Y-110120180D01*
X157041742Y-110120180D01*
X156946504Y-110167800D01*
X156898885Y-110215419D01*
X156851266Y-110310657D01*
X156851266Y-110453514D01*
X156898885Y-110548752D01*
X156946504Y-110596371D01*
X157041742Y-110643990D01*
X157422695Y-110643990D01*
X156422695Y-111120180D02*
X156422695Y-110120180D01*
X156184600Y-110120180D01*
X156041742Y-110167800D01*
X155946504Y-110263038D01*
X155898885Y-110358276D01*
X155851266Y-110548752D01*
X155851266Y-110691609D01*
X155898885Y-110882085D01*
X155946504Y-110977323D01*
X156041742Y-111072561D01*
X156184600Y-111120180D01*
X156422695Y-111120180D01*
X155470314Y-110215419D02*
X155422695Y-110167800D01*
X155327457Y-110120180D01*
X155089361Y-110120180D01*
X154994123Y-110167800D01*
X154946504Y-110215419D01*
X154898885Y-110310657D01*
X154898885Y-110405895D01*
X154946504Y-110548752D01*
X155517933Y-111120180D01*
X154898885Y-111120180D01*
X152530038Y-85720180D02*
X152863371Y-85243990D01*
X153101466Y-85720180D02*
X153101466Y-84720180D01*
X152720514Y-84720180D01*
X152625276Y-84767800D01*
X152577657Y-84815419D01*
X152530038Y-84910657D01*
X152530038Y-85053514D01*
X152577657Y-85148752D01*
X152625276Y-85196371D01*
X152720514Y-85243990D01*
X153101466Y-85243990D01*
X152101466Y-85720180D02*
X152101466Y-84720180D01*
X151863371Y-84720180D01*
X151720514Y-84767800D01*
X151625276Y-84863038D01*
X151577657Y-84958276D01*
X151530038Y-85148752D01*
X151530038Y-85291609D01*
X151577657Y-85482085D01*
X151625276Y-85577323D01*
X151720514Y-85672561D01*
X151863371Y-85720180D01*
X152101466Y-85720180D01*
X150910990Y-85243990D02*
X150910990Y-85720180D01*
X151244323Y-84720180D02*
X150910990Y-85243990D01*
X150577657Y-84720180D01*
X150339561Y-84720180D02*
X149720514Y-84720180D01*
X150053847Y-85101133D01*
X149910990Y-85101133D01*
X149815752Y-85148752D01*
X149768133Y-85196371D01*
X149720514Y-85291609D01*
X149720514Y-85529704D01*
X149768133Y-85624942D01*
X149815752Y-85672561D01*
X149910990Y-85720180D01*
X150196704Y-85720180D01*
X150291942Y-85672561D01*
X150339561Y-85624942D01*
X122015095Y-121254780D02*
X122015095Y-120254780D01*
X121634142Y-120254780D01*
X121538904Y-120302400D01*
X121491285Y-120350019D01*
X121443666Y-120445257D01*
X121443666Y-120588114D01*
X121491285Y-120683352D01*
X121538904Y-120730971D01*
X121634142Y-120778590D01*
X122015095Y-120778590D01*
X120443666Y-121159542D02*
X120491285Y-121207161D01*
X120634142Y-121254780D01*
X120729380Y-121254780D01*
X120872238Y-121207161D01*
X120967476Y-121111923D01*
X121015095Y-121016685D01*
X121062714Y-120826209D01*
X121062714Y-120683352D01*
X121015095Y-120492876D01*
X120967476Y-120397638D01*
X120872238Y-120302400D01*
X120729380Y-120254780D01*
X120634142Y-120254780D01*
X120491285Y-120302400D01*
X120443666Y-120350019D01*
X119538904Y-120254780D02*
X120015095Y-120254780D01*
X120062714Y-120730971D01*
X120015095Y-120683352D01*
X119919857Y-120635733D01*
X119681761Y-120635733D01*
X119586523Y-120683352D01*
X119538904Y-120730971D01*
X119491285Y-120826209D01*
X119491285Y-121064304D01*
X119538904Y-121159542D01*
X119586523Y-121207161D01*
X119681761Y-121254780D01*
X119919857Y-121254780D01*
X120015095Y-121207161D01*
X120062714Y-121159542D01*
X152901448Y-100960180D02*
X152901448Y-99960180D01*
X152520495Y-99960180D01*
X152425257Y-100007800D01*
X152377638Y-100055419D01*
X152330019Y-100150657D01*
X152330019Y-100293514D01*
X152377638Y-100388752D01*
X152425257Y-100436371D01*
X152520495Y-100483990D01*
X152901448Y-100483990D01*
X151901448Y-100436371D02*
X151568114Y-100436371D01*
X151425257Y-100960180D02*
X151901448Y-100960180D01*
X151901448Y-99960180D01*
X151425257Y-99960180D01*
X150568114Y-100293514D02*
X150568114Y-100960180D01*
X150806210Y-99912561D02*
X151044305Y-100626847D01*
X150425257Y-100626847D01*
X118509895Y-118765580D02*
X118509895Y-117765580D01*
X118128942Y-117765580D01*
X118033704Y-117813200D01*
X117986085Y-117860819D01*
X117938466Y-117956057D01*
X117938466Y-118098914D01*
X117986085Y-118194152D01*
X118033704Y-118241771D01*
X118128942Y-118289390D01*
X118509895Y-118289390D01*
X116938466Y-118670342D02*
X116986085Y-118717961D01*
X117128942Y-118765580D01*
X117224180Y-118765580D01*
X117367038Y-118717961D01*
X117462276Y-118622723D01*
X117509895Y-118527485D01*
X117557514Y-118337009D01*
X117557514Y-118194152D01*
X117509895Y-118003676D01*
X117462276Y-117908438D01*
X117367038Y-117813200D01*
X117224180Y-117765580D01*
X117128942Y-117765580D01*
X116986085Y-117813200D01*
X116938466Y-117860819D01*
X116557514Y-117860819D02*
X116509895Y-117813200D01*
X116414657Y-117765580D01*
X116176561Y-117765580D01*
X116081323Y-117813200D01*
X116033704Y-117860819D01*
X115986085Y-117956057D01*
X115986085Y-118051295D01*
X116033704Y-118194152D01*
X116605133Y-118765580D01*
X115986085Y-118765580D01*
X118509895Y-82205580D02*
X117890847Y-82205580D01*
X118224180Y-82586533D01*
X118081323Y-82586533D01*
X117986085Y-82634152D01*
X117938466Y-82681771D01*
X117890847Y-82777009D01*
X117890847Y-83015104D01*
X117938466Y-83110342D01*
X117986085Y-83157961D01*
X118081323Y-83205580D01*
X118367038Y-83205580D01*
X118462276Y-83157961D01*
X118509895Y-83110342D01*
X117605133Y-82205580D02*
X117271800Y-83205580D01*
X116938466Y-82205580D01*
X116700371Y-82205580D02*
X116081323Y-82205580D01*
X116414657Y-82586533D01*
X116271800Y-82586533D01*
X116176561Y-82634152D01*
X116128942Y-82681771D01*
X116081323Y-82777009D01*
X116081323Y-83015104D01*
X116128942Y-83110342D01*
X116176561Y-83157961D01*
X116271800Y-83205580D01*
X116557514Y-83205580D01*
X116652752Y-83157961D01*
X116700371Y-83110342D01*
X120878504Y-84669380D02*
X120307076Y-84669380D01*
X120592790Y-85669380D02*
X120592790Y-84669380D01*
X119449933Y-85669380D02*
X120021361Y-85669380D01*
X119735647Y-85669380D02*
X119735647Y-84669380D01*
X119830885Y-84812238D01*
X119926123Y-84907476D01*
X120021361Y-84955095D01*
X156895704Y-79687800D02*
X156990942Y-79640180D01*
X157133800Y-79640180D01*
X157276657Y-79687800D01*
X157371895Y-79783038D01*
X157419514Y-79878276D01*
X157467133Y-80068752D01*
X157467133Y-80211609D01*
X157419514Y-80402085D01*
X157371895Y-80497323D01*
X157276657Y-80592561D01*
X157133800Y-80640180D01*
X157038561Y-80640180D01*
X156895704Y-80592561D01*
X156848085Y-80544942D01*
X156848085Y-80211609D01*
X157038561Y-80211609D01*
X156419514Y-80640180D02*
X156419514Y-79640180D01*
X155848085Y-80640180D01*
X155848085Y-79640180D01*
X155371895Y-80640180D02*
X155371895Y-79640180D01*
X155133800Y-79640180D01*
X154990942Y-79687800D01*
X154895704Y-79783038D01*
X154848085Y-79878276D01*
X154800466Y-80068752D01*
X154800466Y-80211609D01*
X154848085Y-80402085D01*
X154895704Y-80497323D01*
X154990942Y-80592561D01*
X155133800Y-80640180D01*
X155371895Y-80640180D01*
X157375076Y-98420180D02*
X157375076Y-97420180D01*
X156994123Y-97420180D01*
X156898885Y-97467800D01*
X156851266Y-97515419D01*
X156803647Y-97610657D01*
X156803647Y-97753514D01*
X156851266Y-97848752D01*
X156898885Y-97896371D01*
X156994123Y-97943990D01*
X157375076Y-97943990D01*
X156375076Y-97896371D02*
X156041742Y-97896371D01*
X155898885Y-98420180D02*
X156375076Y-98420180D01*
X156375076Y-97420180D01*
X155898885Y-97420180D01*
X155565552Y-97420180D02*
X154898885Y-97420180D01*
X155327457Y-98420180D01*
X122045218Y-108434142D02*
X122092838Y-108481761D01*
X122235695Y-108529380D01*
X122330933Y-108529380D01*
X122473790Y-108481761D01*
X122569028Y-108386523D01*
X122616647Y-108291285D01*
X122664266Y-108100809D01*
X122664266Y-107957952D01*
X122616647Y-107767476D01*
X122569028Y-107672238D01*
X122473790Y-107577000D01*
X122330933Y-107529380D01*
X122235695Y-107529380D01*
X122092838Y-107577000D01*
X122045218Y-107624619D01*
X121759504Y-107529380D02*
X121188076Y-107529380D01*
X121473790Y-108529380D02*
X121473790Y-107529380D01*
X120378552Y-108529380D02*
X120854742Y-108529380D01*
X120854742Y-107529380D01*
X120140457Y-107529380D02*
X119521409Y-107529380D01*
X119854742Y-107910333D01*
X119711885Y-107910333D01*
X119616647Y-107957952D01*
X119569028Y-108005571D01*
X119521409Y-108100809D01*
X119521409Y-108338904D01*
X119569028Y-108434142D01*
X119616647Y-108481761D01*
X119711885Y-108529380D01*
X119997599Y-108529380D01*
X120092838Y-108481761D01*
X120140457Y-108434142D01*
X117868580Y-111050342D02*
X117916200Y-111097961D01*
X118059057Y-111145580D01*
X118154295Y-111145580D01*
X118297152Y-111097961D01*
X118392390Y-111002723D01*
X118440009Y-110907485D01*
X118487628Y-110717009D01*
X118487628Y-110574152D01*
X118440009Y-110383676D01*
X118392390Y-110288438D01*
X118297152Y-110193200D01*
X118154295Y-110145580D01*
X118059057Y-110145580D01*
X117916200Y-110193200D01*
X117868580Y-110240819D01*
X117582866Y-110145580D02*
X117011438Y-110145580D01*
X117297152Y-111145580D02*
X117297152Y-110145580D01*
X116201914Y-111145580D02*
X116678104Y-111145580D01*
X116678104Y-110145580D01*
X115440009Y-110478914D02*
X115440009Y-111145580D01*
X115678104Y-110097961D02*
X115916200Y-110812247D01*
X115297152Y-110812247D01*
X152477647Y-90704942D02*
X152525266Y-90752561D01*
X152668123Y-90800180D01*
X152763361Y-90800180D01*
X152906219Y-90752561D01*
X153001457Y-90657323D01*
X153049076Y-90562085D01*
X153096695Y-90371609D01*
X153096695Y-90228752D01*
X153049076Y-90038276D01*
X153001457Y-89943038D01*
X152906219Y-89847800D01*
X152763361Y-89800180D01*
X152668123Y-89800180D01*
X152525266Y-89847800D01*
X152477647Y-89895419D01*
X151572885Y-90800180D02*
X152049076Y-90800180D01*
X152049076Y-89800180D01*
X151239552Y-90800180D02*
X151239552Y-89800180D01*
X150668123Y-90800180D02*
X151096695Y-90228752D01*
X150668123Y-89800180D02*
X151239552Y-90371609D01*
X150049076Y-89800180D02*
X149858600Y-89800180D01*
X149763361Y-89847800D01*
X149668123Y-89943038D01*
X149620504Y-90133514D01*
X149620504Y-90466847D01*
X149668123Y-90657323D01*
X149763361Y-90752561D01*
X149858600Y-90800180D01*
X150049076Y-90800180D01*
X150144314Y-90752561D01*
X150239552Y-90657323D01*
X150287171Y-90466847D01*
X150287171Y-90133514D01*
X150239552Y-89943038D01*
X150144314Y-89847800D01*
X150049076Y-89800180D01*
X152877638Y-118714780D02*
X152877638Y-117714780D01*
X152496686Y-117714780D01*
X152401448Y-117762400D01*
X152353829Y-117810019D01*
X152306210Y-117905257D01*
X152306210Y-118048114D01*
X152353829Y-118143352D01*
X152401448Y-118190971D01*
X152496686Y-118238590D01*
X152877638Y-118238590D01*
X151925257Y-118429066D02*
X151449067Y-118429066D01*
X152020495Y-118714780D02*
X151687162Y-117714780D01*
X151353829Y-118714780D01*
X150591924Y-118048114D02*
X150591924Y-118714780D01*
X150830019Y-117667161D02*
X151068114Y-118381447D01*
X150449067Y-118381447D01*
X157351266Y-116200180D02*
X157351266Y-115200180D01*
X156970314Y-115200180D01*
X156875076Y-115247800D01*
X156827457Y-115295419D01*
X156779838Y-115390657D01*
X156779838Y-115533514D01*
X156827457Y-115628752D01*
X156875076Y-115676371D01*
X156970314Y-115723990D01*
X157351266Y-115723990D01*
X156398885Y-115914466D02*
X155922695Y-115914466D01*
X156494123Y-116200180D02*
X156160790Y-115200180D01*
X155827457Y-116200180D01*
X155589361Y-115200180D02*
X154922695Y-115200180D01*
X155351266Y-116200180D01*
X156844810Y-90774780D02*
X157178143Y-90298590D01*
X157416238Y-90774780D02*
X157416238Y-89774780D01*
X157035286Y-89774780D01*
X156940048Y-89822400D01*
X156892429Y-89870019D01*
X156844810Y-89965257D01*
X156844810Y-90108114D01*
X156892429Y-90203352D01*
X156940048Y-90250971D01*
X157035286Y-90298590D01*
X157416238Y-90298590D01*
X156416238Y-90774780D02*
X156416238Y-89774780D01*
X156178143Y-89774780D01*
X156035286Y-89822400D01*
X155940048Y-89917638D01*
X155892429Y-90012876D01*
X155844810Y-90203352D01*
X155844810Y-90346209D01*
X155892429Y-90536685D01*
X155940048Y-90631923D01*
X156035286Y-90727161D01*
X156178143Y-90774780D01*
X156416238Y-90774780D01*
X155225762Y-90298590D02*
X155225762Y-90774780D01*
X155559095Y-89774780D02*
X155225762Y-90298590D01*
X154892429Y-89774780D01*
X154368619Y-89774780D02*
X154273381Y-89774780D01*
X154178143Y-89822400D01*
X154130524Y-89870019D01*
X154082905Y-89965257D01*
X154035286Y-90155733D01*
X154035286Y-90393828D01*
X154082905Y-90584304D01*
X154130524Y-90679542D01*
X154178143Y-90727161D01*
X154273381Y-90774780D01*
X154368619Y-90774780D01*
X154463857Y-90727161D01*
X154511476Y-90679542D01*
X154559095Y-90584304D01*
X154606714Y-90393828D01*
X154606714Y-90155733D01*
X154559095Y-89965257D01*
X154511476Y-89870019D01*
X154463857Y-89822400D01*
X154368619Y-89774780D01*
X152758638Y-83205580D02*
X153091971Y-82729390D01*
X153330066Y-83205580D02*
X153330066Y-82205580D01*
X152949114Y-82205580D01*
X152853876Y-82253200D01*
X152806257Y-82300819D01*
X152758638Y-82396057D01*
X152758638Y-82538914D01*
X152806257Y-82634152D01*
X152853876Y-82681771D01*
X152949114Y-82729390D01*
X153330066Y-82729390D01*
X152330066Y-83205580D02*
X152330066Y-82205580D01*
X152091971Y-82205580D01*
X151949114Y-82253200D01*
X151853876Y-82348438D01*
X151806257Y-82443676D01*
X151758638Y-82634152D01*
X151758638Y-82777009D01*
X151806257Y-82967485D01*
X151853876Y-83062723D01*
X151949114Y-83157961D01*
X152091971Y-83205580D01*
X152330066Y-83205580D01*
X151139590Y-82729390D02*
X151139590Y-83205580D01*
X151472923Y-82205580D02*
X151139590Y-82729390D01*
X150806257Y-82205580D01*
X149996733Y-82205580D02*
X150472923Y-82205580D01*
X150520542Y-82681771D01*
X150472923Y-82634152D01*
X150377685Y-82586533D01*
X150139590Y-82586533D01*
X150044352Y-82634152D01*
X149996733Y-82681771D01*
X149949114Y-82777009D01*
X149949114Y-83015104D01*
X149996733Y-83110342D01*
X150044352Y-83157961D01*
X150139590Y-83205580D01*
X150377685Y-83205580D01*
X150472923Y-83157961D01*
X150520542Y-83110342D01*
M02*
