%TF.GenerationSoftware,KiCad,Pcbnew,6.0.11-2627ca5db0~126~ubuntu20.04.1*%
%TF.CreationDate,2023-02-28T18:41:23+07:00*%
%TF.ProjectId,CY7C68013A-100,43593743-3638-4303-9133-412d3130302e,rev?*%
%TF.SameCoordinates,Original*%
%TF.FileFunction,Copper,L1,Top*%
%TF.FilePolarity,Positive*%
%FSLAX46Y46*%
G04 Gerber Fmt 4.6, Leading zero omitted, Abs format (unit mm)*
G04 Created by KiCad (PCBNEW 6.0.11-2627ca5db0~126~ubuntu20.04.1) date 2023-02-28 18:41:23*
%MOMM*%
%LPD*%
G01*
G04 APERTURE LIST*
G04 Aperture macros list*
%AMRoundRect*
0 Rectangle with rounded corners*
0 $1 Rounding radius*
0 $2 $3 $4 $5 $6 $7 $8 $9 X,Y pos of 4 corners*
0 Add a 4 corners polygon primitive as box body*
4,1,4,$2,$3,$4,$5,$6,$7,$8,$9,$2,$3,0*
0 Add four circle primitives for the rounded corners*
1,1,$1+$1,$2,$3*
1,1,$1+$1,$4,$5*
1,1,$1+$1,$6,$7*
1,1,$1+$1,$8,$9*
0 Add four rect primitives between the rounded corners*
20,1,$1+$1,$2,$3,$4,$5,0*
20,1,$1+$1,$4,$5,$6,$7,0*
20,1,$1+$1,$6,$7,$8,$9,0*
20,1,$1+$1,$8,$9,$2,$3,0*%
G04 Aperture macros list end*
%ADD10C,0.250000*%
%TA.AperFunction,NonConductor*%
%ADD11C,0.250000*%
%TD*%
%TA.AperFunction,SMDPad,CuDef*%
%ADD12RoundRect,0.243750X0.456250X-0.243750X0.456250X0.243750X-0.456250X0.243750X-0.456250X-0.243750X0*%
%TD*%
%TA.AperFunction,ComponentPad*%
%ADD13R,1.700000X1.700000*%
%TD*%
%TA.AperFunction,ComponentPad*%
%ADD14O,1.700000X1.700000*%
%TD*%
%TA.AperFunction,SMDPad,CuDef*%
%ADD15RoundRect,0.135000X-0.185000X0.135000X-0.185000X-0.135000X0.185000X-0.135000X0.185000X0.135000X0*%
%TD*%
%TA.AperFunction,ComponentPad*%
%ADD16C,0.800000*%
%TD*%
%TA.AperFunction,ComponentPad*%
%ADD17C,6.400000*%
%TD*%
%TA.AperFunction,SMDPad,CuDef*%
%ADD18RoundRect,0.135000X0.185000X-0.135000X0.185000X0.135000X-0.185000X0.135000X-0.185000X-0.135000X0*%
%TD*%
%TA.AperFunction,SMDPad,CuDef*%
%ADD19R,1.500000X2.000000*%
%TD*%
%TA.AperFunction,SMDPad,CuDef*%
%ADD20R,3.800000X2.000000*%
%TD*%
%TA.AperFunction,SMDPad,CuDef*%
%ADD21RoundRect,0.140000X0.140000X0.170000X-0.140000X0.170000X-0.140000X-0.170000X0.140000X-0.170000X0*%
%TD*%
%TA.AperFunction,SMDPad,CuDef*%
%ADD22R,1.000000X0.900000*%
%TD*%
%TA.AperFunction,SMDPad,CuDef*%
%ADD23R,0.600000X1.240000*%
%TD*%
%TA.AperFunction,SMDPad,CuDef*%
%ADD24R,0.300000X1.240000*%
%TD*%
%TA.AperFunction,ComponentPad*%
%ADD25O,1.000000X2.100000*%
%TD*%
%TA.AperFunction,ComponentPad*%
%ADD26O,1.000000X1.800000*%
%TD*%
%TA.AperFunction,SMDPad,CuDef*%
%ADD27RoundRect,0.250000X-0.475000X0.250000X-0.475000X-0.250000X0.475000X-0.250000X0.475000X0.250000X0*%
%TD*%
%TA.AperFunction,SMDPad,CuDef*%
%ADD28RoundRect,0.140000X-0.170000X0.140000X-0.170000X-0.140000X0.170000X-0.140000X0.170000X0.140000X0*%
%TD*%
%TA.AperFunction,SMDPad,CuDef*%
%ADD29RoundRect,0.250000X0.325000X0.650000X-0.325000X0.650000X-0.325000X-0.650000X0.325000X-0.650000X0*%
%TD*%
%TA.AperFunction,SMDPad,CuDef*%
%ADD30RoundRect,0.140000X-0.140000X-0.170000X0.140000X-0.170000X0.140000X0.170000X-0.140000X0.170000X0*%
%TD*%
%TA.AperFunction,SMDPad,CuDef*%
%ADD31RoundRect,0.135000X0.135000X0.185000X-0.135000X0.185000X-0.135000X-0.185000X0.135000X-0.185000X0*%
%TD*%
%TA.AperFunction,SMDPad,CuDef*%
%ADD32RoundRect,0.243750X0.243750X0.456250X-0.243750X0.456250X-0.243750X-0.456250X0.243750X-0.456250X0*%
%TD*%
%TA.AperFunction,SMDPad,CuDef*%
%ADD33RoundRect,0.250000X0.250000X0.475000X-0.250000X0.475000X-0.250000X-0.475000X0.250000X-0.475000X0*%
%TD*%
%TA.AperFunction,SMDPad,CuDef*%
%ADD34R,1.400000X1.200000*%
%TD*%
%TA.AperFunction,SMDPad,CuDef*%
%ADD35RoundRect,0.150000X-0.825000X-0.150000X0.825000X-0.150000X0.825000X0.150000X-0.825000X0.150000X0*%
%TD*%
%TA.AperFunction,SMDPad,CuDef*%
%ADD36RoundRect,0.250000X0.262500X0.450000X-0.262500X0.450000X-0.262500X-0.450000X0.262500X-0.450000X0*%
%TD*%
%TA.AperFunction,SMDPad,CuDef*%
%ADD37RoundRect,0.100000X-0.100000X0.775000X-0.100000X-0.775000X0.100000X-0.775000X0.100000X0.775000X0*%
%TD*%
%TA.AperFunction,SMDPad,CuDef*%
%ADD38RoundRect,0.100000X-0.775000X0.100000X-0.775000X-0.100000X0.775000X-0.100000X0.775000X0.100000X0*%
%TD*%
%TA.AperFunction,ViaPad*%
%ADD39C,0.800000*%
%TD*%
%TA.AperFunction,Conductor*%
%ADD40C,0.400000*%
%TD*%
%TA.AperFunction,Conductor*%
%ADD41C,0.250000*%
%TD*%
%TA.AperFunction,Conductor*%
%ADD42C,0.800000*%
%TD*%
%TA.AperFunction,Conductor*%
%ADD43C,0.600000*%
%TD*%
%TA.AperFunction,Conductor*%
%ADD44C,0.300000*%
%TD*%
%TA.AperFunction,Conductor*%
%ADD45C,0.150000*%
%TD*%
G04 APERTURE END LIST*
D10*
D11*
X117074914Y-131973580D02*
X116503485Y-131973580D01*
X116789200Y-131973580D02*
X116789200Y-130973580D01*
X116693961Y-131116438D01*
X116598723Y-131211676D01*
X116503485Y-131259295D01*
D12*
%TO.P,D3,1,K*%
%TO.N,Net-(D2-Pad1)*%
X140106400Y-120596900D03*
%TO.P,D3,2,A*%
%TO.N,Net-(D3-Pad2)*%
X140106400Y-118721900D03*
%TD*%
D13*
%TO.P,J3,1,Pin_1*%
%TO.N,GND*%
X149563932Y-131013200D03*
D14*
%TO.P,J3,2,Pin_2*%
%TO.N,Net-(D2-Pad1)*%
X147023932Y-131013200D03*
%TD*%
D15*
%TO.P,R1,1*%
%TO.N,/USB-Power/RST*%
X143720600Y-107920000D03*
%TO.P,R1,2*%
%TO.N,+3V3*%
X143720600Y-108940000D03*
%TD*%
D16*
%TO.P,H1,1,1*%
%TO.N,GND*%
X110980600Y-128468200D03*
X115780600Y-128468200D03*
X115077656Y-130165256D03*
D17*
X113380600Y-128468200D03*
D16*
X111683544Y-130165256D03*
X113380600Y-130868200D03*
X113380600Y-126068200D03*
X115077656Y-126771144D03*
X111683544Y-126771144D03*
%TD*%
D18*
%TO.P,R9,1*%
%TO.N,Net-(D3-Pad2)*%
X140106400Y-116918200D03*
%TO.P,R9,2*%
%TO.N,/GPIO/PE1*%
X140106400Y-115898200D03*
%TD*%
%TO.P,R10,1*%
%TO.N,GND*%
X132675000Y-81060000D03*
%TO.P,R10,2*%
%TO.N,Net-(J5-PadB5)*%
X132675000Y-80040000D03*
%TD*%
D12*
%TO.P,D1,1,K*%
%TO.N,GND*%
X132435600Y-120596900D03*
%TO.P,D1,2,A*%
%TO.N,Net-(D1-Pad2)*%
X132435600Y-118721900D03*
%TD*%
D19*
%TO.P,U3,1,GND*%
%TO.N,GND*%
X146594800Y-79832600D03*
D20*
%TO.P,U3,2,VO*%
%TO.N,+3V3*%
X148894800Y-73532600D03*
D19*
X148894800Y-79832600D03*
%TO.P,U3,3,VI*%
%TO.N,VBUS*%
X151194800Y-79832600D03*
%TD*%
D21*
%TO.P,C17,1*%
%TO.N,+3V3*%
X144170400Y-75158600D03*
%TO.P,C17,2*%
%TO.N,GND*%
X143210400Y-75158600D03*
%TD*%
D22*
%TO.P,SW1,1,1*%
%TO.N,/USB-Power/RST*%
X120154600Y-72194200D03*
X120154600Y-76294200D03*
%TO.P,SW1,2,2*%
%TO.N,GND*%
X118554600Y-72194200D03*
X118554600Y-76294200D03*
%TD*%
D23*
%TO.P,J5,A1,GND*%
%TO.N,GND*%
X138145600Y-77465000D03*
%TO.P,J5,A4,VBUS*%
%TO.N,/USB-Power/VUSB*%
X137345600Y-77465000D03*
D24*
%TO.P,J5,A5,CC1*%
%TO.N,Net-(J5-PadA5)*%
X136195600Y-77465000D03*
%TO.P,J5,A6,D+*%
%TO.N,/USB-Power/D+*%
X135195600Y-77465000D03*
%TO.P,J5,A7,D-*%
%TO.N,/USB-Power/D-*%
X134695600Y-77465000D03*
%TO.P,J5,A8,SBU1*%
%TO.N,unconnected-(J5-PadA8)*%
X133695600Y-77465000D03*
D23*
%TO.P,J5,A9,VBUS*%
%TO.N,/USB-Power/VUSB*%
X132545600Y-77465000D03*
%TO.P,J5,A12,GND*%
%TO.N,GND*%
X131745600Y-77465000D03*
%TO.P,J5,B1,GND*%
X131745600Y-77465000D03*
%TO.P,J5,B4,VBUS*%
%TO.N,/USB-Power/VUSB*%
X132545600Y-77465000D03*
D24*
%TO.P,J5,B5,CC2*%
%TO.N,Net-(J5-PadB5)*%
X133195600Y-77465000D03*
%TO.P,J5,B6,D+*%
%TO.N,/USB-Power/D+*%
X134195600Y-77465000D03*
%TO.P,J5,B7,D-*%
%TO.N,/USB-Power/D-*%
X135695600Y-77465000D03*
%TO.P,J5,B8,SBU2*%
%TO.N,unconnected-(J5-PadB8)*%
X136695600Y-77465000D03*
D23*
%TO.P,J5,B9,VBUS*%
%TO.N,/USB-Power/VUSB*%
X137345600Y-77465000D03*
%TO.P,J5,B12,GND*%
%TO.N,GND*%
X138145600Y-77465000D03*
D25*
%TO.P,J5,S1,SHIELD*%
%TO.N,/USB-Power/SHIELD*%
X130625600Y-76865000D03*
D26*
X130625600Y-72665000D03*
X139265600Y-72665000D03*
D25*
X139265600Y-76865000D03*
%TD*%
D18*
%TO.P,R7,1*%
%TO.N,GND*%
X137200000Y-81035000D03*
%TO.P,R7,2*%
%TO.N,Net-(J5-PadA5)*%
X137200000Y-80015000D03*
%TD*%
D27*
%TO.P,C15,1*%
%TO.N,VBUS*%
X151180800Y-81803200D03*
%TO.P,C15,2*%
%TO.N,GND*%
X151180800Y-83703200D03*
%TD*%
D28*
%TO.P,C6,1*%
%TO.N,+3V3*%
X136245600Y-107797400D03*
%TO.P,C6,2*%
%TO.N,GND*%
X136245600Y-108757400D03*
%TD*%
D15*
%TO.P,R6,1*%
%TO.N,+3V3*%
X132435600Y-115872800D03*
%TO.P,R6,2*%
%TO.N,Net-(D1-Pad2)*%
X132435600Y-116892800D03*
%TD*%
D21*
%TO.P,C11,1*%
%TO.N,+3V3*%
X122936000Y-92656400D03*
%TO.P,C11,2*%
%TO.N,GND*%
X121976000Y-92656400D03*
%TD*%
D29*
%TO.P,C5,1*%
%TO.N,/USB-Power/SHIELD*%
X128375000Y-74100000D03*
%TO.P,C5,2*%
%TO.N,GND*%
X125425000Y-74100000D03*
%TD*%
D30*
%TO.P,C12,1*%
%TO.N,+3V3*%
X147602000Y-88516200D03*
%TO.P,C12,2*%
%TO.N,GND*%
X148562000Y-88516200D03*
%TD*%
D13*
%TO.P,J4,1,Pin_1*%
%TO.N,Net-(J4-Pad1)*%
X125477266Y-131013200D03*
D14*
%TO.P,J4,2,Pin_2*%
%TO.N,+3V3*%
X122937266Y-131013200D03*
%TD*%
D28*
%TO.P,C10,1*%
%TO.N,+3V3*%
X122936000Y-102920600D03*
%TO.P,C10,2*%
%TO.N,GND*%
X122936000Y-103880600D03*
%TD*%
%TO.P,C14,1*%
%TO.N,+3V3*%
X128117600Y-107845600D03*
%TO.P,C14,2*%
%TO.N,GND*%
X128117600Y-108805600D03*
%TD*%
D31*
%TO.P,R2,1*%
%TO.N,+3V3*%
X142559600Y-131545800D03*
%TO.P,R2,2*%
%TO.N,/USB-Power/SDA*%
X141539600Y-131545800D03*
%TD*%
D30*
%TO.P,C7,1*%
%TO.N,+3V3*%
X150091200Y-101114600D03*
%TO.P,C7,2*%
%TO.N,GND*%
X151051200Y-101114600D03*
%TD*%
D28*
%TO.P,C13,1*%
%TO.N,+3V3*%
X145020600Y-107950000D03*
%TO.P,C13,2*%
%TO.N,GND*%
X145020600Y-108910000D03*
%TD*%
D16*
%TO.P,H4,1,1*%
%TO.N,GND*%
X157403544Y-126771144D03*
X161500600Y-128468200D03*
X159100600Y-126068200D03*
X157403544Y-130165256D03*
X156700600Y-128468200D03*
X160797656Y-126771144D03*
X159100600Y-130868200D03*
X160797656Y-130165256D03*
D17*
X159100600Y-128468200D03*
%TD*%
D28*
%TO.P,C2,1*%
%TO.N,/USB-Power/RST*%
X142420600Y-107952800D03*
%TO.P,C2,2*%
%TO.N,GND*%
X142420600Y-108912800D03*
%TD*%
D32*
%TO.P,F1,1*%
%TO.N,VBUS*%
X141350000Y-80575000D03*
%TO.P,F1,2*%
%TO.N,/USB-Power/VUSB*%
X139475000Y-80575000D03*
%TD*%
D33*
%TO.P,C18,1*%
%TO.N,+3V3*%
X144383800Y-73533000D03*
%TO.P,C18,2*%
%TO.N,GND*%
X142483800Y-73533000D03*
%TD*%
D21*
%TO.P,C8,1*%
%TO.N,+3V3*%
X122933400Y-95958400D03*
%TO.P,C8,2*%
%TO.N,GND*%
X121973400Y-95958400D03*
%TD*%
D28*
%TO.P,C16,1*%
%TO.N,VBUS*%
X149529800Y-82016600D03*
%TO.P,C16,2*%
%TO.N,GND*%
X149529800Y-82976600D03*
%TD*%
D15*
%TO.P,R5,1*%
%TO.N,Net-(J4-Pad1)*%
X132373600Y-130295800D03*
%TO.P,R5,2*%
%TO.N,GND*%
X132373600Y-131315800D03*
%TD*%
D34*
%TO.P,Y1,1,1*%
%TO.N,Net-(C4-Pad1)*%
X141370600Y-83147800D03*
%TO.P,Y1,2,2*%
%TO.N,GND*%
X139170600Y-83147800D03*
%TO.P,Y1,3,3*%
%TO.N,Net-(C3-Pad2)*%
X139170600Y-84847800D03*
%TO.P,Y1,4,4*%
%TO.N,GND*%
X141370600Y-84847800D03*
%TD*%
D21*
%TO.P,C9,1*%
%TO.N,+3V3*%
X133779200Y-87347800D03*
%TO.P,C9,2*%
%TO.N,GND*%
X132819200Y-87347800D03*
%TD*%
D28*
%TO.P,C3,1*%
%TO.N,GND*%
X137541000Y-83517800D03*
%TO.P,C3,2*%
%TO.N,Net-(C3-Pad2)*%
X137541000Y-84477800D03*
%TD*%
D16*
%TO.P,H2,1,1*%
%TO.N,GND*%
X115077656Y-76825256D03*
X113380600Y-72728200D03*
X115077656Y-73431144D03*
D17*
X113380600Y-75128200D03*
D16*
X115780600Y-75128200D03*
X113380600Y-77528200D03*
X111683544Y-76825256D03*
X111683544Y-73431144D03*
X110980600Y-75128200D03*
%TD*%
D30*
%TO.P,C1,1*%
%TO.N,+3V3*%
X141569600Y-127745800D03*
%TO.P,C1,2*%
%TO.N,GND*%
X142529600Y-127745800D03*
%TD*%
D31*
%TO.P,R3,1*%
%TO.N,+3V3*%
X142559600Y-130270800D03*
%TO.P,R3,2*%
%TO.N,/USB-Power/SCL*%
X141539600Y-130270800D03*
%TD*%
D16*
%TO.P,H3,1,1*%
%TO.N,GND*%
X157403544Y-76825256D03*
D17*
X159100600Y-75128200D03*
D16*
X160797656Y-76825256D03*
X159100600Y-77528200D03*
X156700600Y-75128200D03*
X161500600Y-75128200D03*
X157403544Y-73431144D03*
X160797656Y-73431144D03*
X159100600Y-72728200D03*
%TD*%
D13*
%TO.P,J1,1,Pin_1*%
%TO.N,GND*%
X159100600Y-80208200D03*
D14*
%TO.P,J1,2,Pin_2*%
X161640600Y-80208200D03*
%TO.P,J1,3,Pin_3*%
%TO.N,/GPIO/RDY.5*%
X159100600Y-82748200D03*
%TO.P,J1,4,Pin_4*%
%TO.N,VBUS*%
X161640600Y-82748200D03*
%TO.P,J1,5,Pin_5*%
%TO.N,/GPIO/RDY.3*%
X159100600Y-85288200D03*
%TO.P,J1,6,Pin_6*%
%TO.N,/GPIO/RDY.4*%
X161640600Y-85288200D03*
%TO.P,J1,7,Pin_7*%
%TO.N,/GPIO/RDY.1{slash}SLWR*%
X159100600Y-87828200D03*
%TO.P,J1,8,Pin_8*%
%TO.N,/GPIO/RDY.2*%
X161640600Y-87828200D03*
%TO.P,J1,9,Pin_9*%
%TO.N,/GPIO/CLKOUT*%
X159100600Y-90368200D03*
%TO.P,J1,10,Pin_10*%
%TO.N,/GPIO/RDY.0{slash}SLRD*%
X161640600Y-90368200D03*
%TO.P,J1,11,Pin_11*%
%TO.N,/GPIO/PD6*%
X159100600Y-92908200D03*
%TO.P,J1,12,Pin_12*%
%TO.N,/GPIO/PD7*%
X161640600Y-92908200D03*
%TO.P,J1,13,Pin_13*%
%TO.N,/GPIO/PD4*%
X159100600Y-95448200D03*
%TO.P,J1,14,Pin_14*%
%TO.N,/GPIO/PD5*%
X161640600Y-95448200D03*
%TO.P,J1,15,Pin_15*%
%TO.N,/GPIO/PE6*%
X159100600Y-97988200D03*
%TO.P,J1,16,Pin_16*%
%TO.N,/GPIO/PE7*%
X161640600Y-97988200D03*
%TO.P,J1,17,Pin_17*%
%TO.N,/GPIO/PE4*%
X159100600Y-100528200D03*
%TO.P,J1,18,Pin_18*%
%TO.N,/GPIO/PE5*%
X161640600Y-100528200D03*
%TO.P,J1,19,Pin_19*%
%TO.N,/GPIO/PE2*%
X159100600Y-103068200D03*
%TO.P,J1,20,Pin_20*%
%TO.N,/GPIO/PE3*%
X161640600Y-103068200D03*
%TO.P,J1,21,Pin_21*%
%TO.N,/GPIO/PE0*%
X159100600Y-105608200D03*
%TO.P,J1,22,Pin_22*%
%TO.N,/GPIO/PE1*%
X161640600Y-105608200D03*
%TO.P,J1,23,Pin_23*%
%TO.N,/GPIO/PD3*%
X159100600Y-108148200D03*
%TO.P,J1,24,Pin_24*%
%TO.N,/GPIO/~{INT5}*%
X161640600Y-108148200D03*
%TO.P,J1,25,Pin_25*%
%TO.N,/GPIO/PD1*%
X159100600Y-110688200D03*
%TO.P,J1,26,Pin_26*%
%TO.N,/GPIO/PD2*%
X161640600Y-110688200D03*
%TO.P,J1,27,Pin_27*%
%TO.N,/GPIO/CTL.5*%
X159100600Y-113228200D03*
%TO.P,J1,28,Pin_28*%
%TO.N,/GPIO/PD0*%
X161640600Y-113228200D03*
%TO.P,J1,29,Pin_29*%
%TO.N,/GPIO/PA6*%
X159100600Y-115768200D03*
%TO.P,J1,30,Pin_30*%
%TO.N,/GPIO/PA7*%
X161640600Y-115768200D03*
%TO.P,J1,31,Pin_31*%
%TO.N,/GPIO/PA4*%
X159100600Y-118308200D03*
%TO.P,J1,32,Pin_32*%
%TO.N,/GPIO/PA5*%
X161640600Y-118308200D03*
%TO.P,J1,33,Pin_33*%
%TO.N,/GPIO/PA2*%
X159100600Y-120848200D03*
%TO.P,J1,34,Pin_34*%
%TO.N,/GPIO/PA3*%
X161640600Y-120848200D03*
%TO.P,J1,35,Pin_35*%
%TO.N,/GPIO/PA0*%
X159100600Y-123388200D03*
%TO.P,J1,36,Pin_36*%
%TO.N,/GPIO/PA1*%
X161640600Y-123388200D03*
%TD*%
D35*
%TO.P,U1,1,A0*%
%TO.N,GND*%
X134445200Y-127736600D03*
%TO.P,U1,2,A1*%
X134445200Y-129006600D03*
%TO.P,U1,3,A2*%
%TO.N,Net-(J4-Pad1)*%
X134445200Y-130276600D03*
%TO.P,U1,4,GND*%
%TO.N,GND*%
X134445200Y-131546600D03*
%TO.P,U1,5,SDA*%
%TO.N,/USB-Power/SDA*%
X139395200Y-131546600D03*
%TO.P,U1,6,SCL*%
%TO.N,/USB-Power/SCL*%
X139395200Y-130276600D03*
%TO.P,U1,7,WP*%
%TO.N,GND*%
X139395200Y-129006600D03*
%TO.P,U1,8,VCC*%
%TO.N,+3V3*%
X139395200Y-127736600D03*
%TD*%
D12*
%TO.P,D2,1,K*%
%TO.N,Net-(D2-Pad1)*%
X136271000Y-120596900D03*
%TO.P,D2,2,A*%
%TO.N,Net-(D2-Pad2)*%
X136271000Y-118721900D03*
%TD*%
D18*
%TO.P,R8,1*%
%TO.N,Net-(D2-Pad2)*%
X136271000Y-116918200D03*
%TO.P,R8,2*%
%TO.N,/GPIO/PE0*%
X136271000Y-115898200D03*
%TD*%
D36*
%TO.P,R4,1*%
%TO.N,/USB-Power/SHIELD*%
X128373100Y-76335200D03*
%TO.P,R4,2*%
%TO.N,GND*%
X126548100Y-76335200D03*
%TD*%
D37*
%TO.P,U2,1,VCC*%
%TO.N,+3V3*%
X145670600Y-89408200D03*
%TO.P,U2,2,GND*%
%TO.N,GND*%
X145020600Y-89408200D03*
%TO.P,U2,3,RDY0/SLRD*%
%TO.N,/GPIO/RDY.0{slash}SLRD*%
X144370600Y-89408200D03*
%TO.P,U2,4,RDY1/SLWR*%
%TO.N,/GPIO/RDY.1{slash}SLWR*%
X143720600Y-89408200D03*
%TO.P,U2,5,RDY2*%
%TO.N,/GPIO/RDY.2*%
X143070600Y-89408200D03*
%TO.P,U2,6,RDY3*%
%TO.N,/GPIO/RDY.3*%
X142420600Y-89408200D03*
%TO.P,U2,7,RDY4*%
%TO.N,/GPIO/RDY.4*%
X141770600Y-89408200D03*
%TO.P,U2,8,RDY5*%
%TO.N,/GPIO/RDY.5*%
X141120600Y-89408200D03*
%TO.P,U2,9,AVCC*%
%TO.N,+3V3*%
X140470600Y-89408200D03*
%TO.P,U2,10,XTALOUT*%
%TO.N,Net-(C4-Pad1)*%
X139820600Y-89408200D03*
%TO.P,U2,11,XTALIN*%
%TO.N,Net-(C3-Pad2)*%
X139170600Y-89408200D03*
%TO.P,U2,12,AGND*%
%TO.N,GND*%
X138520600Y-89408200D03*
%TO.P,U2,13,NC*%
%TO.N,unconnected-(U2-Pad13)*%
X137870600Y-89408200D03*
%TO.P,U2,14,NC*%
%TO.N,unconnected-(U2-Pad14)*%
X137220600Y-89408200D03*
%TO.P,U2,15,NC*%
%TO.N,unconnected-(U2-Pad15)*%
X136570600Y-89408200D03*
%TO.P,U2,16,AVCC*%
%TO.N,+3V3*%
X135920600Y-89408200D03*
%TO.P,U2,17,DPLUS*%
%TO.N,/USB-Power/D+*%
X135270600Y-89408200D03*
%TO.P,U2,18,DMINUS*%
%TO.N,/USB-Power/D-*%
X134620600Y-89408200D03*
%TO.P,U2,19,AGND*%
%TO.N,GND*%
X133970600Y-89408200D03*
%TO.P,U2,20,VCC*%
%TO.N,+3V3*%
X133320600Y-89408200D03*
%TO.P,U2,21,GND*%
%TO.N,GND*%
X132670600Y-89408200D03*
%TO.P,U2,22,INT4*%
%TO.N,/GPIO/INT4*%
X132020600Y-89408200D03*
%TO.P,U2,23,T0*%
%TO.N,/GPIO/T.0*%
X131370600Y-89408200D03*
%TO.P,U2,24,T1*%
%TO.N,/GPIO/T.1*%
X130720600Y-89408200D03*
%TO.P,U2,25,T2*%
%TO.N,/GPIO/T.2*%
X130070600Y-89408200D03*
%TO.P,U2,26,IFCLK*%
%TO.N,/GPIO/IFCLK*%
X129420600Y-89408200D03*
%TO.P,U2,27,RESERVED*%
%TO.N,GND*%
X128770600Y-89408200D03*
%TO.P,U2,28,BKPT*%
%TO.N,/GPIO/BKPT*%
X128120600Y-89408200D03*
%TO.P,U2,29,SCL*%
%TO.N,/USB-Power/SCL*%
X127470600Y-89408200D03*
%TO.P,U2,30,SDA*%
%TO.N,/USB-Power/SDA*%
X126820600Y-89408200D03*
D38*
%TO.P,U2,31,RD#*%
%TO.N,/GPIO/~{RD}*%
X125120600Y-91358200D03*
%TO.P,U2,32,WR#*%
%TO.N,/GPIO/~{WR}*%
X125120600Y-92008200D03*
%TO.P,U2,33,VCC*%
%TO.N,+3V3*%
X125120600Y-92658200D03*
%TO.P,U2,34,PB0/FD[0]*%
%TO.N,/GPIO/PB0*%
X125120600Y-93308200D03*
%TO.P,U2,35,PB1/FD[1]*%
%TO.N,/GPIO/PB1*%
X125120600Y-93958200D03*
%TO.P,U2,36,PB2/FD[2]*%
%TO.N,/GPIO/PB2*%
X125120600Y-94608200D03*
%TO.P,U2,37,PB3/FD[3]*%
%TO.N,/GPIO/PB3*%
X125120600Y-95258200D03*
%TO.P,U2,38,VCC*%
%TO.N,+3V3*%
X125120600Y-95908200D03*
%TO.P,U2,39,GND*%
%TO.N,GND*%
X125120600Y-96558200D03*
%TO.P,U2,40,TXD0*%
%TO.N,/USB-Power/TXD0*%
X125120600Y-97208200D03*
%TO.P,U2,41,RXD0*%
%TO.N,/USB-Power/RXD0*%
X125120600Y-97858200D03*
%TO.P,U2,42,TXD1*%
%TO.N,/USB-Power/TXD1*%
X125120600Y-98508200D03*
%TO.P,U2,43,RXD1*%
%TO.N,/USB-Power/RXD1*%
X125120600Y-99158200D03*
%TO.P,U2,44,PB4/FD[4]*%
%TO.N,/GPIO/PB4*%
X125120600Y-99808200D03*
%TO.P,U2,45,PB5/FD[5]*%
%TO.N,/GPIO/PB5*%
X125120600Y-100458200D03*
%TO.P,U2,46,PB6/FD[6]*%
%TO.N,/GPIO/PB6*%
X125120600Y-101108200D03*
%TO.P,U2,47,PB7/FD[7]*%
%TO.N,/GPIO/PB7*%
X125120600Y-101758200D03*
%TO.P,U2,48,GND*%
%TO.N,GND*%
X125120600Y-102408200D03*
%TO.P,U2,49,VCC*%
%TO.N,+3V3*%
X125120600Y-103058200D03*
%TO.P,U2,50,GND*%
%TO.N,GND*%
X125120600Y-103708200D03*
D37*
%TO.P,U2,51,CTL3*%
%TO.N,/GPIO/CTL.3*%
X126820600Y-105658200D03*
%TO.P,U2,52,CTL4*%
%TO.N,/GPIO/CTL.4*%
X127470600Y-105658200D03*
%TO.P,U2,53,VCC*%
%TO.N,+3V3*%
X128120600Y-105658200D03*
%TO.P,U2,54,CTL0/FLAGA*%
%TO.N,/GPIO/CTL.0{slash}FLAGA*%
X128770600Y-105658200D03*
%TO.P,U2,55,CTL1/FLAGB*%
%TO.N,/GPIO/CTL.1{slash}FLAGB*%
X129420600Y-105658200D03*
%TO.P,U2,56,CTL2/FLAGC*%
%TO.N,/GPIO/CTL.2{slash}FLAGC*%
X130070600Y-105658200D03*
%TO.P,U2,57,PC0/GPIFADR0*%
%TO.N,/GPIO/PC0*%
X130720600Y-105658200D03*
%TO.P,U2,58,PC1/GPIFADR1*%
%TO.N,/GPIO/PC1*%
X131370600Y-105658200D03*
%TO.P,U2,59,PC2/GPIFADR2*%
%TO.N,/GPIO/PC2*%
X132020600Y-105658200D03*
%TO.P,U2,60,PC3/GPIFADR3*%
%TO.N,/GPIO/PC3*%
X132670600Y-105658200D03*
%TO.P,U2,61,PC4/GPIFADR4*%
%TO.N,/GPIO/PC4*%
X133320600Y-105658200D03*
%TO.P,U2,62,PC5/GPIFADR5*%
%TO.N,/GPIO/PC5*%
X133970600Y-105658200D03*
%TO.P,U2,63,PC6/GPIFADR6*%
%TO.N,/GPIO/PC6*%
X134620600Y-105658200D03*
%TO.P,U2,64,PC7/GPIFADR7*%
%TO.N,/GPIO/PC7*%
X135270600Y-105658200D03*
%TO.P,U2,65,GND*%
%TO.N,GND*%
X135920600Y-105658200D03*
%TO.P,U2,66,VCC*%
%TO.N,+3V3*%
X136570600Y-105658200D03*
%TO.P,U2,67,PA0/INT0#*%
%TO.N,/GPIO/PA0*%
X137220600Y-105658200D03*
%TO.P,U2,68,PA1/INT1#*%
%TO.N,/GPIO/PA1*%
X137870600Y-105658200D03*
%TO.P,U2,69,PA2/SLOE*%
%TO.N,/GPIO/PA2*%
X138520600Y-105658200D03*
%TO.P,U2,70,PA3/WU2*%
%TO.N,/GPIO/PA3*%
X139170600Y-105658200D03*
%TO.P,U2,71,PA4/FIFOADR0*%
%TO.N,/GPIO/PA4*%
X139820600Y-105658200D03*
%TO.P,U2,72,PA5/FIFOADR1*%
%TO.N,/GPIO/PA5*%
X140470600Y-105658200D03*
%TO.P,U2,73,PA6/PKTEND*%
%TO.N,/GPIO/PA6*%
X141120600Y-105658200D03*
%TO.P,U2,74,PA7/FLAGD/SLCS#*%
%TO.N,/GPIO/PA7*%
X141770600Y-105658200D03*
%TO.P,U2,75,GND*%
%TO.N,GND*%
X142420600Y-105658200D03*
%TO.P,U2,76,CTL5*%
%TO.N,/GPIO/CTL.5*%
X143070600Y-105658200D03*
%TO.P,U2,77,RESET#*%
%TO.N,/USB-Power/RST*%
X143720600Y-105658200D03*
%TO.P,U2,78,VCC*%
%TO.N,+3V3*%
X144370600Y-105658200D03*
%TO.P,U2,79,WAKEUP*%
X145020600Y-105658200D03*
%TO.P,U2,80,PD0/FD[8]*%
%TO.N,/GPIO/PD0*%
X145670600Y-105658200D03*
D38*
%TO.P,U2,81,PD1/FD[9]*%
%TO.N,/GPIO/PD1*%
X147370600Y-103708200D03*
%TO.P,U2,82,PD2/FD[10]*%
%TO.N,/GPIO/PD2*%
X147370600Y-103058200D03*
%TO.P,U2,83,PD3/FD[11]*%
%TO.N,/GPIO/PD3*%
X147370600Y-102408200D03*
%TO.P,U2,84,INT5#*%
%TO.N,/GPIO/~{INT5}*%
X147370600Y-101758200D03*
%TO.P,U2,85,VCC*%
%TO.N,+3V3*%
X147370600Y-101108200D03*
%TO.P,U2,86,PE0/T0OUT*%
%TO.N,/GPIO/PE0*%
X147370600Y-100458200D03*
%TO.P,U2,87,PE1/T1OUT*%
%TO.N,/GPIO/PE1*%
X147370600Y-99808200D03*
%TO.P,U2,88,PE2/T2OUT*%
%TO.N,/GPIO/PE2*%
X147370600Y-99158200D03*
%TO.P,U2,89,PE3/RXD0OUT*%
%TO.N,/GPIO/PE3*%
X147370600Y-98508200D03*
%TO.P,U2,90,PE4/RXD1OUT*%
%TO.N,/GPIO/PE4*%
X147370600Y-97858200D03*
%TO.P,U2,91,PE5/INT6*%
%TO.N,/GPIO/PE5*%
X147370600Y-97208200D03*
%TO.P,U2,92,PE6/T2EX*%
%TO.N,/GPIO/PE6*%
X147370600Y-96558200D03*
%TO.P,U2,93,PE7/GPIFADR8*%
%TO.N,/GPIO/PE7*%
X147370600Y-95908200D03*
%TO.P,U2,94,GND*%
%TO.N,GND*%
X147370600Y-95258200D03*
%TO.P,U2,95,PD4/FD[12]*%
%TO.N,/GPIO/PD4*%
X147370600Y-94608200D03*
%TO.P,U2,96,PD5/FD[13]*%
%TO.N,/GPIO/PD5*%
X147370600Y-93958200D03*
%TO.P,U2,97,PD6/FD[14]*%
%TO.N,/GPIO/PD6*%
X147370600Y-93308200D03*
%TO.P,U2,98,PD7/FD[15]*%
%TO.N,/GPIO/PD7*%
X147370600Y-92658200D03*
%TO.P,U2,99,GND*%
%TO.N,GND*%
X147370600Y-92008200D03*
%TO.P,U2,100,CLKOUT*%
%TO.N,/GPIO/CLKOUT*%
X147370600Y-91358200D03*
%TD*%
D13*
%TO.P,J2,1,Pin_1*%
%TO.N,GND*%
X110840600Y-80208200D03*
D14*
%TO.P,J2,2,Pin_2*%
X113380600Y-80208200D03*
%TO.P,J2,3,Pin_3*%
%TO.N,+3V3*%
X110840600Y-82748200D03*
%TO.P,J2,4,Pin_4*%
%TO.N,/GPIO/INT4*%
X113380600Y-82748200D03*
%TO.P,J2,5,Pin_5*%
%TO.N,/GPIO/T.0*%
X110840600Y-85288200D03*
%TO.P,J2,6,Pin_6*%
%TO.N,/GPIO/T.1*%
X113380600Y-85288200D03*
%TO.P,J2,7,Pin_7*%
%TO.N,/GPIO/T.2*%
X110840600Y-87828200D03*
%TO.P,J2,8,Pin_8*%
%TO.N,/GPIO/IFCLK*%
X113380600Y-87828200D03*
%TO.P,J2,9,Pin_9*%
%TO.N,/GPIO/BKPT*%
X110840600Y-90368200D03*
%TO.P,J2,10,Pin_10*%
%TO.N,/GPIO/~{RD}*%
X113380600Y-90368200D03*
%TO.P,J2,11,Pin_11*%
%TO.N,/GPIO/~{WR}*%
X110840600Y-92908200D03*
%TO.P,J2,12,Pin_12*%
%TO.N,/GPIO/PB0*%
X113380600Y-92908200D03*
%TO.P,J2,13,Pin_13*%
%TO.N,/GPIO/PB1*%
X110840600Y-95448200D03*
%TO.P,J2,14,Pin_14*%
%TO.N,/GPIO/PB2*%
X113380600Y-95448200D03*
%TO.P,J2,15,Pin_15*%
%TO.N,/GPIO/PB3*%
X110840600Y-97988200D03*
%TO.P,J2,16,Pin_16*%
%TO.N,/USB-Power/TXD0*%
X113380600Y-97988200D03*
%TO.P,J2,17,Pin_17*%
%TO.N,/USB-Power/RXD0*%
X110840600Y-100528200D03*
%TO.P,J2,18,Pin_18*%
%TO.N,/USB-Power/TXD1*%
X113380600Y-100528200D03*
%TO.P,J2,19,Pin_19*%
%TO.N,/USB-Power/RXD1*%
X110840600Y-103068200D03*
%TO.P,J2,20,Pin_20*%
%TO.N,/GPIO/PB4*%
X113380600Y-103068200D03*
%TO.P,J2,21,Pin_21*%
%TO.N,/GPIO/PB5*%
X110840600Y-105608200D03*
%TO.P,J2,22,Pin_22*%
%TO.N,/GPIO/PB6*%
X113380600Y-105608200D03*
%TO.P,J2,23,Pin_23*%
%TO.N,/GPIO/PB7*%
X110840600Y-108148200D03*
%TO.P,J2,24,Pin_24*%
%TO.N,/GPIO/CTL.3*%
X113380600Y-108148200D03*
%TO.P,J2,25,Pin_25*%
%TO.N,/GPIO/CTL.4*%
X110840600Y-110688200D03*
%TO.P,J2,26,Pin_26*%
%TO.N,/GPIO/CTL.0{slash}FLAGA*%
X113380600Y-110688200D03*
%TO.P,J2,27,Pin_27*%
%TO.N,/GPIO/CTL.1{slash}FLAGB*%
X110840600Y-113228200D03*
%TO.P,J2,28,Pin_28*%
%TO.N,/GPIO/CTL.2{slash}FLAGC*%
X113380600Y-113228200D03*
%TO.P,J2,29,Pin_29*%
%TO.N,/GPIO/PC0*%
X110840600Y-115768200D03*
%TO.P,J2,30,Pin_30*%
%TO.N,/GPIO/PC1*%
X113380600Y-115768200D03*
%TO.P,J2,31,Pin_31*%
%TO.N,/GPIO/PC2*%
X110840600Y-118308200D03*
%TO.P,J2,32,Pin_32*%
%TO.N,/GPIO/PC3*%
X113380600Y-118308200D03*
%TO.P,J2,33,Pin_33*%
%TO.N,/GPIO/PC4*%
X110840600Y-120848200D03*
%TO.P,J2,34,Pin_34*%
%TO.N,/GPIO/PC5*%
X113380600Y-120848200D03*
%TO.P,J2,35,Pin_35*%
%TO.N,/GPIO/PC6*%
X110840600Y-123388200D03*
%TO.P,J2,36,Pin_36*%
%TO.N,/GPIO/PC7*%
X113380600Y-123388200D03*
%TD*%
D28*
%TO.P,C4,1*%
%TO.N,Net-(C4-Pad1)*%
X143052800Y-83517800D03*
%TO.P,C4,2*%
%TO.N,GND*%
X143052800Y-84477800D03*
%TD*%
D39*
%TO.N,+3V3*%
X151494800Y-72982600D03*
X147354800Y-71982600D03*
X135925000Y-90825000D03*
X151494800Y-73982600D03*
X150088600Y-102029000D03*
X127381000Y-107848400D03*
X133841503Y-86408000D03*
X137210800Y-104165400D03*
X147599400Y-89227400D03*
X126593600Y-95882200D03*
X141574600Y-126820800D03*
X133578600Y-115874800D03*
X146319800Y-71982600D03*
X148389800Y-71982600D03*
X140475000Y-90875000D03*
X145745200Y-107924600D03*
X122021600Y-102892600D03*
X150459800Y-71982600D03*
X122459689Y-91831618D03*
X146319800Y-73982600D03*
X151494800Y-71982600D03*
X146319800Y-72982600D03*
X149424800Y-71982600D03*
%TO.N,GND*%
X146075400Y-81610200D03*
X135975000Y-83025000D03*
X136024600Y-127745800D03*
X133800000Y-72400000D03*
X128752600Y-90878400D03*
X135975000Y-85025000D03*
X121081800Y-92554800D03*
X132308600Y-86791800D03*
X141554200Y-73533000D03*
X135975000Y-81025000D03*
X133925000Y-81025000D03*
X135975000Y-79025000D03*
X133925000Y-82025000D03*
X136245600Y-109598200D03*
X131013200Y-120573800D03*
X131749800Y-131826000D03*
X145542000Y-109448600D03*
X149098000Y-89052400D03*
X118541800Y-77216000D03*
X133925000Y-80025000D03*
X133985000Y-90878400D03*
X138506200Y-90903800D03*
X129625000Y-78925000D03*
X135300000Y-72900000D03*
X147116800Y-81610200D03*
X137200000Y-81725000D03*
X137300000Y-73750000D03*
X145034000Y-90700600D03*
X121081800Y-95982700D03*
X140350000Y-78925000D03*
X140792200Y-129006600D03*
X132350000Y-72900000D03*
X124412600Y-74100000D03*
X151180800Y-84632800D03*
X139500000Y-78925000D03*
X130475000Y-78925000D03*
X143078200Y-127203200D03*
X122402600Y-104394000D03*
X135975000Y-87025000D03*
X125631800Y-76335200D03*
X126619000Y-102384600D03*
X142494000Y-75158600D03*
X133925000Y-84025000D03*
X143764000Y-84455000D03*
X127736600Y-109649000D03*
X137541000Y-82829400D03*
X135975000Y-80025000D03*
X145897600Y-95247200D03*
X135975000Y-82025000D03*
X135999600Y-128995800D03*
X133925000Y-79025000D03*
X133925000Y-83025000D03*
X133925000Y-85025000D03*
X135975000Y-84025000D03*
X135975000Y-86025000D03*
X151942800Y-101182700D03*
X149529800Y-83718400D03*
X132675000Y-81750000D03*
X135305800Y-104183700D03*
X142417800Y-104137200D03*
X145897600Y-91996000D03*
%TO.N,/USB-Power/RST*%
X143713200Y-107162600D03*
X120142000Y-77165200D03*
%TO.N,VBUS*%
X153035000Y-79857600D03*
X142550000Y-80975000D03*
X153060400Y-81153000D03*
X142550000Y-80125000D03*
%TO.N,/USB-Power/D-*%
X133301673Y-74712609D03*
X137772588Y-74723804D03*
%TO.N,/USB-Power/D+*%
X136722588Y-74723804D03*
X132251673Y-74712609D03*
%TO.N,/USB-Power/SDA*%
X137617200Y-131546600D03*
X128725000Y-93900000D03*
%TO.N,/USB-Power/SCL*%
X137617200Y-129870200D03*
X128750000Y-92775000D03*
%TO.N,/GPIO/CTL.5*%
X146685000Y-104848400D03*
%TO.N,/GPIO/PE0*%
X137083800Y-115900200D03*
X145567400Y-101092000D03*
%TO.N,/GPIO/PE1*%
X140919200Y-115900200D03*
X145567400Y-99161600D03*
%TO.N,/USB-Power/VUSB*%
X131575000Y-80975000D03*
X131575000Y-80150000D03*
X138350000Y-81000000D03*
X138350000Y-80150000D03*
%TD*%
D40*
%TO.N,VBUS*%
X161640600Y-82748200D02*
X160375600Y-81483200D01*
X160375600Y-81483200D02*
X153390600Y-81483200D01*
X153390600Y-81483200D02*
X153060400Y-81153000D01*
D41*
%TO.N,/GPIO/PD3*%
X147370600Y-102408200D02*
X148613600Y-102408200D01*
X148613600Y-102408200D02*
X148613600Y-102411000D01*
X148613600Y-102411000D02*
X154350800Y-108148200D01*
X154350800Y-108148200D02*
X159100600Y-108148200D01*
%TO.N,/GPIO/PD0*%
X146083811Y-107202188D02*
X150844822Y-111963200D01*
X150844822Y-111963200D02*
X160375600Y-111963200D01*
X160375600Y-111963200D02*
X161640600Y-113228200D01*
%TO.N,/GPIO/PC6*%
X110840600Y-123388200D02*
X112105600Y-122123200D01*
X112105600Y-122123200D02*
X122257928Y-122123200D01*
X122257928Y-122123200D02*
X134620600Y-109760529D01*
X134620600Y-109760529D02*
X134620600Y-105658200D01*
D42*
%TO.N,GND*%
X135975000Y-79025000D02*
X135975000Y-87025000D01*
X133925000Y-79025000D02*
X133925000Y-85025000D01*
D41*
%TO.N,+3V3*%
X140470600Y-89408200D02*
X140470600Y-90870600D01*
X122936000Y-92656400D02*
X122936000Y-92307929D01*
X147370600Y-101108200D02*
X150084800Y-101108200D01*
X141569600Y-127745800D02*
X141569600Y-126825800D01*
X136570600Y-105658200D02*
X136570600Y-104805600D01*
D40*
X135920600Y-89408200D02*
X135920600Y-90820600D01*
D41*
X141569600Y-127745800D02*
X139404400Y-127745800D01*
X136570600Y-104805600D02*
X137210800Y-104165400D01*
X145020600Y-107174600D02*
X145020600Y-105658200D01*
D40*
X135920600Y-90820600D02*
X135925000Y-90825000D01*
D41*
X143720600Y-108940000D02*
X144710600Y-107950000D01*
X145020600Y-107950000D02*
X145719800Y-107950000D01*
X128117600Y-107845600D02*
X127383800Y-107845600D01*
X122983600Y-95908200D02*
X122933400Y-95958400D01*
X150091200Y-102026400D02*
X150088600Y-102029000D01*
X145719800Y-107950000D02*
X145745200Y-107924600D01*
X133779200Y-87347800D02*
X133779200Y-86470303D01*
X125120600Y-95908200D02*
X126567600Y-95908200D01*
X144715800Y-107174600D02*
X145020600Y-107174600D01*
X125118800Y-92656400D02*
X125120600Y-92658200D01*
X145020600Y-107950000D02*
X145020600Y-107174600D01*
X133576600Y-115872800D02*
X133578600Y-115874800D01*
X122936000Y-92656400D02*
X125118800Y-92656400D01*
X147424200Y-88338400D02*
X147602000Y-88516200D01*
X142559600Y-130270800D02*
X142559600Y-129530800D01*
X150084800Y-101108200D02*
X150091200Y-101114600D01*
X141569600Y-126825800D02*
X141574600Y-126820800D01*
X136570600Y-107472400D02*
X136245600Y-107797400D01*
X122936000Y-92307929D02*
X122459689Y-91831618D01*
X122049600Y-102920600D02*
X122021600Y-102892600D01*
X125120600Y-95908200D02*
X122983600Y-95908200D01*
X128117600Y-107845600D02*
X128117600Y-105661200D01*
X147602000Y-88516200D02*
X147602000Y-89224800D01*
X144370600Y-105658200D02*
X144370600Y-106829400D01*
X141569600Y-128540800D02*
X141569600Y-127745800D01*
X136570600Y-105658200D02*
X136570600Y-107472400D01*
X128117600Y-105661200D02*
X128120600Y-105658200D01*
X145670600Y-89408200D02*
X145670600Y-88565400D01*
X125120600Y-103058200D02*
X123073600Y-103058200D01*
X126567600Y-95908200D02*
X126593600Y-95882200D01*
X133299200Y-87834730D02*
X133423720Y-87710210D01*
X127383800Y-107845600D02*
X127381000Y-107848400D01*
X144710600Y-107950000D02*
X145020600Y-107950000D01*
X145670600Y-88565400D02*
X145897600Y-88338400D01*
X133423720Y-87703280D02*
X133779200Y-87347800D01*
X133779200Y-86470303D02*
X133841503Y-86408000D01*
X142559600Y-129530800D02*
X141569600Y-128540800D01*
X139404400Y-127745800D02*
X139395200Y-127736600D01*
X123073600Y-103058200D02*
X122936000Y-102920600D01*
X133299200Y-89386800D02*
X133299200Y-87834730D01*
X147602000Y-89224800D02*
X147599400Y-89227400D01*
X145897600Y-88338400D02*
X147424200Y-88338400D01*
X142559600Y-131545800D02*
X142559600Y-130270800D01*
X144370600Y-106829400D02*
X144715800Y-107174600D01*
X133423720Y-87710210D02*
X133423720Y-87703280D01*
X140470600Y-90870600D02*
X140475000Y-90875000D01*
X150091200Y-101114600D02*
X150091200Y-102026400D01*
X122936000Y-102920600D02*
X122049600Y-102920600D01*
X133320600Y-89408200D02*
X133299200Y-89386800D01*
X132435600Y-115872800D02*
X133576600Y-115872800D01*
%TO.N,GND*%
X118554600Y-76294200D02*
X118554600Y-77203200D01*
X145908600Y-95258200D02*
X145897600Y-95247200D01*
D43*
X138882627Y-78892373D02*
X138915254Y-78925000D01*
D41*
X132670600Y-89408200D02*
X132670600Y-87496400D01*
D43*
X138145600Y-78155346D02*
X138882627Y-78892373D01*
D41*
X125120600Y-103708200D02*
X123108400Y-103708200D01*
D43*
X131745600Y-77465000D02*
X131745600Y-78248030D01*
D41*
X143134200Y-109626400D02*
X144304200Y-109626400D01*
X151051200Y-101114600D02*
X151874700Y-101114600D01*
X142420600Y-105658200D02*
X142420600Y-104140000D01*
D40*
X143210400Y-75158600D02*
X142494000Y-75158600D01*
D41*
X142535600Y-127745800D02*
X143078200Y-127203200D01*
X121183400Y-92656400D02*
X121081800Y-92554800D01*
X138520600Y-89408200D02*
X138520600Y-90889400D01*
D43*
X138915254Y-78925000D02*
X139500000Y-78925000D01*
D41*
X145020600Y-89408200D02*
X145020600Y-90687200D01*
X132260000Y-131315800D02*
X131749800Y-131826000D01*
X142420600Y-108912800D02*
X143134200Y-109626400D01*
D44*
X141740600Y-84477800D02*
X141370600Y-84847800D01*
X143052800Y-84477800D02*
X141740600Y-84477800D01*
D41*
X151874700Y-101114600D02*
X151942800Y-101182700D01*
X132670600Y-87496400D02*
X132819200Y-87347800D01*
X121973400Y-95958400D02*
X121106100Y-95958400D01*
X133970600Y-89408200D02*
X133970600Y-90864000D01*
X121973400Y-96189600D02*
X121973400Y-95958400D01*
X132819200Y-87302400D02*
X132308600Y-86791800D01*
X148562000Y-88516200D02*
X148562000Y-88516400D01*
X145020600Y-90687200D02*
X145034000Y-90700600D01*
D40*
X149529800Y-82976600D02*
X149529800Y-83718400D01*
D41*
X121976000Y-92656400D02*
X121183400Y-92656400D01*
X118554600Y-72194200D02*
X118554600Y-76294200D01*
X147370600Y-92008200D02*
X145909800Y-92008200D01*
X132675000Y-81060000D02*
X132675000Y-81750000D01*
X132373600Y-131315800D02*
X132260000Y-131315800D01*
X128117600Y-109268000D02*
X127736600Y-109649000D01*
D42*
X142483800Y-73533000D02*
X141554200Y-73533000D01*
D43*
X126548100Y-76335200D02*
X125631800Y-76335200D01*
D41*
X144304200Y-109626400D02*
X145020600Y-108910000D01*
D43*
X139500000Y-78925000D02*
X140350000Y-78925000D01*
D41*
X126595400Y-102408200D02*
X126619000Y-102384600D01*
X123108400Y-103708200D02*
X122936000Y-103880600D01*
D43*
X138145600Y-77465000D02*
X138145600Y-78155346D01*
D41*
X132819200Y-87347800D02*
X132819200Y-87302400D01*
X145020600Y-108910000D02*
X145020600Y-108927200D01*
X123571000Y-96758680D02*
X122542480Y-96758680D01*
D42*
X125425000Y-74100000D02*
X124412600Y-74100000D01*
D41*
X132435600Y-120596900D02*
X131036300Y-120596900D01*
X122916000Y-103880600D02*
X122402600Y-104394000D01*
X137200000Y-81035000D02*
X137200000Y-81725000D01*
X128117600Y-108805600D02*
X128117600Y-109268000D01*
X145909800Y-92008200D02*
X145897600Y-91996000D01*
X134445200Y-129006600D02*
X135988800Y-129006600D01*
X121106100Y-95958400D02*
X121081800Y-95982700D01*
X134445200Y-127736600D02*
X136015400Y-127736600D01*
D44*
X143052800Y-84477800D02*
X143741200Y-84477800D01*
D41*
X123771480Y-96558200D02*
X123571000Y-96758680D01*
X135920600Y-105658200D02*
X135920600Y-104798500D01*
D43*
X131745600Y-78248030D02*
X131084315Y-78909315D01*
D44*
X138800600Y-83517800D02*
X139170600Y-83147800D01*
D41*
X135988800Y-129006600D02*
X135999600Y-128995800D01*
D43*
X129625000Y-78925000D02*
X130475000Y-78925000D01*
D41*
X147370600Y-95258200D02*
X145908600Y-95258200D01*
X125120600Y-96558200D02*
X123771480Y-96558200D01*
X139395200Y-129006600D02*
X140792200Y-129006600D01*
X148562000Y-88516400D02*
X149098000Y-89052400D01*
X118554600Y-77203200D02*
X118541800Y-77216000D01*
X132373600Y-131315800D02*
X132604400Y-131546600D01*
X132604400Y-131546600D02*
X134445200Y-131546600D01*
D43*
X131068630Y-78925000D02*
X130475000Y-78925000D01*
D44*
X143741200Y-84477800D02*
X143764000Y-84455000D01*
D41*
X128770600Y-89408200D02*
X128770600Y-90860400D01*
D44*
X137541000Y-83517800D02*
X137541000Y-82829400D01*
D41*
X133970600Y-90864000D02*
X133985000Y-90878400D01*
D43*
X131084315Y-78909315D02*
X131068630Y-78925000D01*
D41*
X142529600Y-127745800D02*
X142535600Y-127745800D01*
D44*
X137541000Y-83517800D02*
X138800600Y-83517800D01*
D41*
X125120600Y-102408200D02*
X126595400Y-102408200D01*
X136015400Y-127736600D02*
X136024600Y-127745800D01*
X122936000Y-103880600D02*
X122916000Y-103880600D01*
X142420600Y-104140000D02*
X142417800Y-104137200D01*
X136245600Y-108757400D02*
X136245600Y-109598200D01*
X135920600Y-104798500D02*
X135305800Y-104183700D01*
X145020600Y-108927200D02*
X145542000Y-109448600D01*
D42*
X151180800Y-83703200D02*
X151180800Y-84632800D01*
D41*
X128770600Y-90860400D02*
X128752600Y-90878400D01*
X131036300Y-120596900D02*
X131013200Y-120573800D01*
X122542480Y-96758680D02*
X121973400Y-96189600D01*
X138520600Y-90889400D02*
X138506200Y-90903800D01*
%TO.N,/USB-Power/RST*%
X120154600Y-77152600D02*
X120142000Y-77165200D01*
X120154600Y-76294200D02*
X120154600Y-72194200D01*
X143720600Y-107920000D02*
X143720600Y-107170000D01*
X143720600Y-107155200D02*
X143713200Y-107162600D01*
X142420600Y-107952800D02*
X143687800Y-107952800D01*
X143720600Y-107170000D02*
X143713200Y-107162600D01*
X143720600Y-105658200D02*
X143720600Y-107155200D01*
X120154600Y-76294200D02*
X120154600Y-77152600D01*
X143687800Y-107952800D02*
X143720600Y-107920000D01*
D44*
%TO.N,Net-(C3-Pad2)*%
X139170600Y-89408200D02*
X139170600Y-84847800D01*
X137541000Y-84477800D02*
X138800600Y-84477800D01*
X138800600Y-84477800D02*
X139170600Y-84847800D01*
%TO.N,Net-(C4-Pad1)*%
X139820600Y-89408200D02*
X139820600Y-86823600D01*
X141740600Y-83517800D02*
X141370600Y-83147800D01*
X139820600Y-86823600D02*
X140284200Y-86360000D01*
X141270600Y-83147800D02*
X141370600Y-83147800D01*
X140284200Y-84134200D02*
X141270600Y-83147800D01*
X140284200Y-86360000D02*
X140284200Y-84134200D01*
X143052800Y-83517800D02*
X141740600Y-83517800D01*
D43*
%TO.N,/USB-Power/SHIELD*%
X129810000Y-72665000D02*
X130625600Y-72665000D01*
X128375000Y-74100000D02*
X129810000Y-72665000D01*
X128373100Y-74101900D02*
X128375000Y-74100000D01*
X128373100Y-76335200D02*
X128373100Y-74101900D01*
D45*
%TO.N,/USB-Power/D-*%
X134695600Y-77465000D02*
X134695600Y-76995000D01*
X137422588Y-75073804D02*
X137772588Y-74723804D01*
X132951673Y-75604185D02*
X132951673Y-75062609D01*
X134695600Y-77465000D02*
X134695600Y-78395001D01*
X135620600Y-76576888D02*
X136022488Y-76175000D01*
X135695600Y-77465000D02*
X135695600Y-76995000D01*
X136972488Y-76175000D02*
X137422588Y-75724900D01*
X134770600Y-89258200D02*
X134620600Y-89408200D01*
X134620600Y-76423112D02*
X134022488Y-75825000D01*
X136022488Y-76175000D02*
X136972488Y-76175000D01*
X134022488Y-75825000D02*
X133172488Y-75825000D01*
X132951673Y-75062609D02*
X133301673Y-74712609D01*
X135695600Y-76995000D02*
X135620600Y-76920000D01*
X134620600Y-76920000D02*
X134620600Y-76423112D01*
X133172488Y-75825000D02*
X132951673Y-75604185D01*
X134695600Y-78395001D02*
X134770600Y-78470001D01*
X135620600Y-76920000D02*
X135620600Y-76576888D01*
X134695600Y-76995000D02*
X134620600Y-76920000D01*
X134770600Y-78470001D02*
X134770600Y-89258200D01*
X137422588Y-75724900D02*
X137422588Y-75073804D01*
%TO.N,/USB-Power/D+*%
X135120600Y-89258200D02*
X135270600Y-89408200D01*
X134195600Y-76995000D02*
X134270600Y-76920000D01*
X135195600Y-77465000D02*
X135195600Y-76995000D01*
X133027512Y-76175000D02*
X132601673Y-75749161D01*
X132601673Y-75062609D02*
X132251673Y-74712609D01*
X135270600Y-76431912D02*
X135877512Y-75825000D01*
X135195600Y-77465000D02*
X135195600Y-78395001D01*
X134270600Y-76920000D02*
X134270600Y-76568088D01*
X135120600Y-78470001D02*
X135120600Y-89258200D01*
X137072588Y-75073804D02*
X136722588Y-74723804D01*
X137072588Y-75579924D02*
X137072588Y-75073804D01*
X134195600Y-77465000D02*
X134195600Y-76995000D01*
X135195600Y-78395001D02*
X135120600Y-78470001D01*
X132601673Y-75749161D02*
X132601673Y-75062609D01*
X134270600Y-76568088D02*
X133877512Y-76175000D01*
X136827512Y-75825000D02*
X137072588Y-75579924D01*
X135877512Y-75825000D02*
X136827512Y-75825000D01*
X135195600Y-76995000D02*
X135270600Y-76920000D01*
X135270600Y-76920000D02*
X135270600Y-76431912D01*
X133877512Y-76175000D02*
X133027512Y-76175000D01*
D41*
%TO.N,Net-(J4-Pad1)*%
X134445200Y-130276600D02*
X132392800Y-130276600D01*
X132392800Y-130276600D02*
X132373600Y-130295800D01*
X131248000Y-130295800D02*
X130530600Y-131013200D01*
X130530600Y-131013200D02*
X125477266Y-131013200D01*
X132373600Y-130295800D02*
X131248000Y-130295800D01*
%TO.N,/GPIO/INT4*%
X126734892Y-82764308D02*
X132020600Y-88050016D01*
X113380600Y-82748200D02*
X126718784Y-82748200D01*
X126718784Y-82748200D02*
X126734892Y-82764308D01*
X132020600Y-88050016D02*
X132020600Y-89408200D01*
%TO.N,/GPIO/IFCLK*%
X129420600Y-87995600D02*
X129420600Y-89408200D01*
X124841000Y-87172800D02*
X128597800Y-87172800D01*
X124185600Y-87828200D02*
X124841000Y-87172800D01*
X113380600Y-87828200D02*
X124185600Y-87828200D01*
X128597800Y-87172800D02*
X129420600Y-87995600D01*
%TO.N,/GPIO/BKPT*%
X110840600Y-90368200D02*
X112080200Y-89128600D01*
X112080200Y-89128600D02*
X123926600Y-89128600D01*
X125196600Y-87858600D02*
X127787400Y-87858600D01*
X123926600Y-89128600D02*
X125196600Y-87858600D01*
X127787400Y-87858600D02*
X128120600Y-88191800D01*
X128120600Y-88191800D02*
X128120600Y-89408200D01*
%TO.N,/GPIO/~{RD}*%
X125120600Y-91358200D02*
X123692400Y-91358200D01*
X122702400Y-90368200D02*
X113380600Y-90368200D01*
X123692400Y-91358200D02*
X122702400Y-90368200D01*
%TO.N,/GPIO/~{WR}*%
X123660885Y-92008200D02*
X123660885Y-92007509D01*
X125120600Y-92008200D02*
X123660885Y-92008200D01*
X112105600Y-91643200D02*
X110840600Y-92908200D01*
X123660885Y-92007509D02*
X122737776Y-91084400D01*
X120015000Y-91084400D02*
X119456200Y-91643200D01*
X122737776Y-91084400D02*
X120015000Y-91084400D01*
X119456200Y-91643200D02*
X112105600Y-91643200D01*
%TO.N,/USB-Power/SDA*%
X141539600Y-131545800D02*
X139396000Y-131545800D01*
X126820600Y-91995600D02*
X128725000Y-93900000D01*
X139396000Y-131545800D02*
X139395200Y-131546600D01*
X126820600Y-89408200D02*
X126820600Y-91995600D01*
X139395200Y-131546600D02*
X137617200Y-131546600D01*
%TO.N,/USB-Power/SCL*%
X127470600Y-91495600D02*
X128750000Y-92775000D01*
X127470600Y-89408200D02*
X127470600Y-91495600D01*
X141539600Y-130270800D02*
X139401000Y-130270800D01*
X138023600Y-130276600D02*
X137617200Y-129870200D01*
X139395200Y-130276600D02*
X138023600Y-130276600D01*
X139401000Y-130270800D02*
X139395200Y-130276600D01*
%TO.N,/USB-Power/TXD0*%
X125120600Y-97208200D02*
X114160600Y-97208200D01*
X114160600Y-97208200D02*
X113380600Y-97988200D01*
%TO.N,/USB-Power/RXD0*%
X116060600Y-97858200D02*
X114681000Y-99237800D01*
X114681000Y-99237800D02*
X112131000Y-99237800D01*
X125120600Y-97858200D02*
X116060600Y-97858200D01*
X112131000Y-99237800D02*
X110840600Y-100528200D01*
%TO.N,/USB-Power/TXD1*%
X125120600Y-98508200D02*
X116756800Y-98508200D01*
X114736800Y-100528200D02*
X113380600Y-100528200D01*
X116756800Y-98508200D02*
X114736800Y-100528200D01*
%TO.N,/USB-Power/RXD1*%
X125120600Y-99158200D02*
X117046600Y-99158200D01*
X117046600Y-99158200D02*
X114401600Y-101803200D01*
X112105600Y-101803200D02*
X110840600Y-103068200D01*
X114401600Y-101803200D02*
X112105600Y-101803200D01*
%TO.N,/GPIO/RDY.5*%
X144076620Y-85555000D02*
X154932200Y-85555000D01*
X154932200Y-85555000D02*
X157739000Y-82748200D01*
X157739000Y-82748200D02*
X159100600Y-82748200D01*
X141120600Y-89408200D02*
X141120600Y-88511020D01*
X141120600Y-88511020D02*
X144076620Y-85555000D01*
%TO.N,/GPIO/RDY.4*%
X141770600Y-88497416D02*
X144263016Y-86005000D01*
X155345800Y-86005000D02*
X157302200Y-84048600D01*
X160401000Y-84048600D02*
X161640600Y-85288200D01*
X141770600Y-89408200D02*
X141770600Y-88497416D01*
X157302200Y-84048600D02*
X160401000Y-84048600D01*
X144263016Y-86005000D02*
X155345800Y-86005000D01*
%TO.N,/GPIO/RDY.3*%
X144449412Y-86455000D02*
X156521400Y-86455000D01*
X142420600Y-89408200D02*
X142420600Y-88483812D01*
X157688200Y-85288200D02*
X159100600Y-85288200D01*
X156521400Y-86455000D02*
X157688200Y-85288200D01*
X142420600Y-88483812D02*
X144449412Y-86455000D01*
%TO.N,/GPIO/RDY.2*%
X157937200Y-86537800D02*
X160350200Y-86537800D01*
X143070600Y-88470208D02*
X144635808Y-86905000D01*
X157570000Y-86905000D02*
X157937200Y-86537800D01*
X160350200Y-86537800D02*
X161640600Y-87828200D01*
X143070600Y-89408200D02*
X143070600Y-88470208D01*
X144635808Y-86905000D02*
X157570000Y-86905000D01*
%TO.N,/GPIO/RDY.0{slash}SLRD*%
X145008600Y-87805000D02*
X155369000Y-87805000D01*
X155369000Y-87805000D02*
X156641800Y-89077800D01*
X144370600Y-88443000D02*
X145008600Y-87805000D01*
X144370600Y-89408200D02*
X144370600Y-88443000D01*
X156641800Y-89077800D02*
X160350200Y-89077800D01*
X160350200Y-89077800D02*
X161640600Y-90368200D01*
%TO.N,/GPIO/RDY.1{slash}SLWR*%
X144822204Y-87355000D02*
X157227700Y-87355000D01*
X157700900Y-87828200D02*
X159100600Y-87828200D01*
X143720600Y-88456604D02*
X144822204Y-87355000D01*
X143720600Y-89408200D02*
X143720600Y-88456604D01*
X157227700Y-87355000D02*
X157700900Y-87828200D01*
%TO.N,/GPIO/T.0*%
X127357388Y-84023200D02*
X131370600Y-88036412D01*
X112105600Y-84023200D02*
X127357388Y-84023200D01*
X131370600Y-88036412D02*
X131370600Y-89408200D01*
X110840600Y-85288200D02*
X112105600Y-84023200D01*
%TO.N,/GPIO/T.1*%
X127985992Y-85288200D02*
X130720600Y-88022808D01*
X130720600Y-88022808D02*
X130720600Y-89408200D01*
X113380600Y-85288200D02*
X127985992Y-85288200D01*
%TO.N,/GPIO/T.2*%
X112131000Y-86537800D02*
X128599196Y-86537800D01*
X110840600Y-87828200D02*
X112131000Y-86537800D01*
X130070600Y-88009204D02*
X130070600Y-89408200D01*
X128599196Y-86537800D02*
X130070600Y-88009204D01*
%TO.N,/GPIO/CTL.3*%
X126820600Y-105658200D02*
X126820600Y-106628000D01*
X126820600Y-106628000D02*
X125300400Y-108148200D01*
X125300400Y-108148200D02*
X113380600Y-108148200D01*
%TO.N,/GPIO/CTL.4*%
X127470600Y-106613717D02*
X124661117Y-109423200D01*
X127470600Y-105658200D02*
X127470600Y-106613717D01*
X124661117Y-109423200D02*
X112105600Y-109423200D01*
X112105600Y-109423200D02*
X110840600Y-110688200D01*
%TO.N,/GPIO/CTL.0{slash}FLAGA*%
X127967400Y-110688200D02*
X113380600Y-110688200D01*
X128770600Y-109885000D02*
X127967400Y-110688200D01*
X128770600Y-105658200D02*
X128770600Y-109885000D01*
%TO.N,/GPIO/CTL.1{slash}FLAGB*%
X129420600Y-105658200D02*
X129420600Y-109870718D01*
X127328118Y-111963200D02*
X112105600Y-111963200D01*
X129420600Y-109870718D02*
X127328118Y-111963200D01*
X112105600Y-111963200D02*
X110840600Y-113228200D01*
%TO.N,/GPIO/CTL.2{slash}FLAGC*%
X130070600Y-105658200D02*
X130070600Y-109856435D01*
X130070600Y-109856435D02*
X126698835Y-113228200D01*
X126698835Y-113228200D02*
X113380600Y-113228200D01*
%TO.N,/GPIO/CTL.5*%
X143070600Y-105658200D02*
X143070600Y-104525800D01*
X146608800Y-104772200D02*
X146685000Y-104848400D01*
X146583400Y-104772200D02*
X146608800Y-104772200D01*
X143484600Y-104111800D02*
X145923000Y-104111800D01*
X143070600Y-104525800D02*
X143484600Y-104111800D01*
X145923000Y-104111800D02*
X146583400Y-104772200D01*
%TO.N,/GPIO/CLKOUT*%
X148468600Y-91358200D02*
X147370600Y-91358200D01*
X159100600Y-90368200D02*
X149458600Y-90368200D01*
X149458600Y-90368200D02*
X148468600Y-91358200D01*
%TO.N,/GPIO/PB0*%
X119502000Y-92908200D02*
X113380600Y-92908200D01*
X125120600Y-93308200D02*
X119902000Y-93308200D01*
X119902000Y-93308200D02*
X119502000Y-92908200D01*
%TO.N,/GPIO/PB1*%
X125120600Y-93958200D02*
X119915604Y-93958200D01*
X112131000Y-94157800D02*
X110840600Y-95448200D01*
X115747800Y-94157800D02*
X112131000Y-94157800D01*
X119915604Y-93958200D02*
X119455502Y-93498098D01*
X116407502Y-93498098D02*
X115747800Y-94157800D01*
X119455502Y-93498098D02*
X116407502Y-93498098D01*
%TO.N,/GPIO/PB2*%
X116159200Y-95448200D02*
X113380600Y-95448200D01*
X116999200Y-94608200D02*
X116159200Y-95448200D01*
X125120600Y-94608200D02*
X116999200Y-94608200D01*
%TO.N,/GPIO/PB3*%
X115900200Y-96697800D02*
X112131000Y-96697800D01*
X125120600Y-95258200D02*
X117339800Y-95258200D01*
X117339800Y-95258200D02*
X115900200Y-96697800D01*
X112131000Y-96697800D02*
X110840600Y-97988200D01*
%TO.N,/GPIO/PB4*%
X125120600Y-99808200D02*
X119186412Y-99808200D01*
X115926412Y-103068200D02*
X113380600Y-103068200D01*
X119186412Y-99808200D02*
X115926412Y-103068200D01*
%TO.N,/GPIO/PB5*%
X115287808Y-104343200D02*
X112105600Y-104343200D01*
X119172808Y-100458200D02*
X115287808Y-104343200D01*
X112105600Y-104343200D02*
X110840600Y-105608200D01*
X125120600Y-100458200D02*
X119172808Y-100458200D01*
%TO.N,/GPIO/PB6*%
X125120600Y-101108200D02*
X119159204Y-101108200D01*
X119159204Y-101108200D02*
X114659204Y-105608200D01*
X114659204Y-105608200D02*
X113380600Y-105608200D01*
%TO.N,/GPIO/PB7*%
X125120600Y-101758200D02*
X119145600Y-101758200D01*
X112105600Y-106883200D02*
X110840600Y-108148200D01*
X114020600Y-106883200D02*
X112105600Y-106883200D01*
X119145600Y-101758200D02*
X114020600Y-106883200D01*
%TO.N,/GPIO/PC0*%
X112131000Y-114477800D02*
X126085631Y-114477800D01*
X130720600Y-109842153D02*
X130720600Y-105658200D01*
X128599553Y-111963200D02*
X130720600Y-109842153D01*
X110840600Y-115768200D02*
X112131000Y-114477800D01*
X126085631Y-114477800D02*
X128599892Y-111963539D01*
%TO.N,/GPIO/PC1*%
X131370600Y-109828549D02*
X125430949Y-115768200D01*
X131370600Y-105658200D02*
X131370600Y-109828549D01*
X125430949Y-115768200D02*
X113380600Y-115768200D01*
%TO.N,/GPIO/PC2*%
X112105600Y-117043200D02*
X110840600Y-118308200D01*
X132020600Y-105658200D02*
X132020600Y-109814945D01*
X132020600Y-109814945D02*
X124792345Y-117043200D01*
X124792345Y-117043200D02*
X112105600Y-117043200D01*
%TO.N,/GPIO/PC3*%
X132670600Y-105658200D02*
X132670600Y-109801341D01*
X124163741Y-118308200D02*
X113380600Y-118308200D01*
X132670600Y-109801341D02*
X124163741Y-118308200D01*
%TO.N,/GPIO/PC4*%
X133320600Y-109787737D02*
X123550537Y-119557800D01*
X123550537Y-119557800D02*
X112131000Y-119557800D01*
X133320600Y-105658200D02*
X133320600Y-109787737D01*
X112131000Y-119557800D02*
X110840600Y-120848200D01*
%TO.N,/GPIO/PC5*%
X133970600Y-105658200D02*
X133970600Y-109774133D01*
X122896533Y-120848200D02*
X113380600Y-120848200D01*
X133970600Y-109774133D02*
X122896533Y-120848200D01*
%TO.N,/GPIO/PC7*%
X135270600Y-105658200D02*
X135270600Y-109746925D01*
X135270600Y-109746925D02*
X121629325Y-123388200D01*
X121629325Y-123388200D02*
X113380600Y-123388200D01*
%TO.N,/GPIO/PA0*%
X150490000Y-123388200D02*
X159100600Y-123388200D01*
X137220600Y-105658200D02*
X137220600Y-110118800D01*
X137220600Y-110118800D02*
X150490000Y-123388200D01*
%TO.N,/GPIO/PA1*%
X137870600Y-110132404D02*
X149861396Y-122123200D01*
X149861396Y-122123200D02*
X160375600Y-122123200D01*
X137870600Y-105658200D02*
X137870600Y-110132404D01*
X160375600Y-122123200D02*
X161640600Y-123388200D01*
%TO.N,/GPIO/PA2*%
X149222792Y-120848200D02*
X159100600Y-120848200D01*
X138520600Y-110146008D02*
X149222792Y-120848200D01*
X138520600Y-105658200D02*
X138520600Y-110146008D01*
%TO.N,/GPIO/PA3*%
X139170600Y-105658200D02*
X139170600Y-110159612D01*
X160375600Y-119583200D02*
X161640600Y-120848200D01*
X139170600Y-110159612D02*
X148594188Y-119583200D01*
X148594188Y-119583200D02*
X160375600Y-119583200D01*
%TO.N,/GPIO/PA4*%
X139820600Y-105658200D02*
X139820600Y-110173216D01*
X139820600Y-110173216D02*
X147955584Y-118308200D01*
X147955584Y-118308200D02*
X159100600Y-118308200D01*
%TO.N,/GPIO/PA5*%
X140470600Y-105658200D02*
X140470600Y-109609592D01*
X147878808Y-117017800D02*
X160350200Y-117017800D01*
X140470600Y-109609592D02*
X147878808Y-117017800D01*
X160350200Y-117017800D02*
X161640600Y-118308200D01*
%TO.N,/GPIO/PA6*%
X141120600Y-109622517D02*
X146355502Y-114857419D01*
X146355502Y-114857419D02*
X146355502Y-114858098D01*
X141120600Y-105658200D02*
X141120600Y-109622517D01*
X147265604Y-115768200D02*
X159100600Y-115768200D01*
X146355502Y-114858098D02*
X147265604Y-115768200D01*
%TO.N,/GPIO/PA7*%
X141770600Y-105658200D02*
X141770600Y-109636800D01*
X141770600Y-109636800D02*
X146611600Y-114477800D01*
X146611600Y-114477800D02*
X160350200Y-114477800D01*
X160350200Y-114477800D02*
X161640600Y-115768200D01*
%TO.N,/GPIO/PD0*%
X145670600Y-105658200D02*
X145670600Y-106805800D01*
X145670600Y-106805800D02*
X146075400Y-107210600D01*
%TO.N,/GPIO/PD1*%
X147370600Y-103708200D02*
X148542000Y-103708200D01*
X148542000Y-103708200D02*
X155522000Y-110688200D01*
X155522000Y-110688200D02*
X159100600Y-110688200D01*
%TO.N,/GPIO/PD2*%
X147370600Y-103058200D02*
X148527718Y-103058200D01*
X160375600Y-109423200D02*
X161640600Y-110688200D01*
X148527718Y-103058200D02*
X154892718Y-109423200D01*
X154892718Y-109423200D02*
X160375600Y-109423200D01*
%TO.N,/GPIO/PE0*%
X137081800Y-115898200D02*
X137083800Y-115900200D01*
X136271000Y-115898200D02*
X137081800Y-115898200D01*
X157775612Y-105608200D02*
X159100600Y-105608200D01*
X146201200Y-100458200D02*
X145567400Y-101092000D01*
X152625612Y-100458200D02*
X157775612Y-105608200D01*
X147370600Y-100458200D02*
X146201200Y-100458200D01*
X147370600Y-100458200D02*
X152625612Y-100458200D01*
%TO.N,/GPIO/PE1*%
X147370600Y-99808200D02*
X146214000Y-99808200D01*
X160350200Y-104317800D02*
X161640600Y-105608200D01*
X140106400Y-115898200D02*
X140917200Y-115898200D01*
X140917200Y-115898200D02*
X140919200Y-115900200D01*
X157121608Y-104317800D02*
X160350200Y-104317800D01*
X146214000Y-99808200D02*
X145567400Y-99161600D01*
X152612008Y-99808200D02*
X157121608Y-104317800D01*
X147370600Y-99808200D02*
X152612008Y-99808200D01*
%TO.N,/GPIO/PE2*%
X152598404Y-99158200D02*
X156508404Y-103068200D01*
X156508404Y-103068200D02*
X159100600Y-103068200D01*
X147370600Y-99158200D02*
X152598404Y-99158200D01*
%TO.N,/GPIO/PE3*%
X147370600Y-98508200D02*
X152584800Y-98508200D01*
X152584800Y-98508200D02*
X155854400Y-101777800D01*
X160350200Y-101777800D02*
X161640600Y-103068200D01*
X155854400Y-101777800D02*
X160350200Y-101777800D01*
%TO.N,/GPIO/PE4*%
X152571196Y-97858200D02*
X155241196Y-100528200D01*
X155241196Y-100528200D02*
X159100600Y-100528200D01*
X147370600Y-97858200D02*
X152571196Y-97858200D01*
%TO.N,/GPIO/PE5*%
X152557592Y-97208200D02*
X154587192Y-99237800D01*
X147370600Y-97208200D02*
X152557592Y-97208200D01*
X160350200Y-99237800D02*
X161640600Y-100528200D01*
X154587192Y-99237800D02*
X160350200Y-99237800D01*
%TO.N,/GPIO/PE6*%
X147370600Y-96558200D02*
X152543988Y-96558200D01*
X153973988Y-97988200D02*
X159100600Y-97988200D01*
X152543988Y-96558200D02*
X153973988Y-97988200D01*
%TO.N,/GPIO/PE7*%
X147370600Y-95908200D02*
X152530384Y-95908200D01*
X160375600Y-96723200D02*
X161640600Y-97988200D01*
X153345384Y-96723200D02*
X160375600Y-96723200D01*
X152530384Y-95908200D02*
X153345384Y-96723200D01*
%TO.N,/GPIO/PD4*%
X147370600Y-94608200D02*
X158260600Y-94608200D01*
X158260600Y-94608200D02*
X159100600Y-95448200D01*
%TO.N,/GPIO/PD5*%
X147370600Y-93958200D02*
X148415800Y-93958200D01*
X148415800Y-93958200D02*
X148615800Y-94158200D01*
X148615800Y-94158200D02*
X160350600Y-94158200D01*
X160350600Y-94158200D02*
X161640600Y-95448200D01*
%TO.N,/GPIO/PD6*%
X147370600Y-93308200D02*
X158700600Y-93308200D01*
X158700600Y-93308200D02*
X159100600Y-92908200D01*
%TO.N,/GPIO/PD7*%
X160350200Y-91617800D02*
X161640600Y-92908200D01*
X147370600Y-92658200D02*
X148438600Y-92658200D01*
X148438600Y-92658200D02*
X149479000Y-91617800D01*
X149479000Y-91617800D02*
X160350200Y-91617800D01*
%TO.N,/GPIO/~{INT5}*%
X160375600Y-106883200D02*
X161640600Y-108148200D01*
X153825200Y-106883200D02*
X160375600Y-106883200D01*
X148700200Y-101758200D02*
X153825200Y-106883200D01*
X147370600Y-101758200D02*
X148700200Y-101758200D01*
%TO.N,Net-(D1-Pad2)*%
X132435600Y-118721900D02*
X132435600Y-116892800D01*
%TO.N,Net-(D2-Pad1)*%
X143075900Y-120596900D02*
X147023932Y-124544932D01*
X136271000Y-120596900D02*
X140106400Y-120596900D01*
X140106400Y-120596900D02*
X143075900Y-120596900D01*
X147023932Y-124544932D02*
X147023932Y-131013200D01*
%TO.N,Net-(D2-Pad2)*%
X136271000Y-118721900D02*
X136271000Y-116918200D01*
%TO.N,Net-(D3-Pad2)*%
X140106400Y-118721900D02*
X140106400Y-116918200D01*
D43*
%TO.N,/USB-Power/VUSB*%
X138350000Y-79491116D02*
X138350000Y-80150000D01*
X132545600Y-77465000D02*
X132545600Y-78579400D01*
X131725000Y-79400000D02*
X131575000Y-79550000D01*
X132545600Y-78579400D02*
X131725000Y-79400000D01*
X131575000Y-79550000D02*
X131575000Y-80150000D01*
X131575000Y-80150000D02*
X131575000Y-80975000D01*
X137345600Y-78486716D02*
X138350000Y-79491116D01*
X137345600Y-77465000D02*
X137345600Y-78486716D01*
D41*
%TO.N,Net-(J5-PadA5)*%
X136195600Y-78220600D02*
X136195600Y-77465000D01*
X137200000Y-80015000D02*
X137200000Y-79225000D01*
X137200000Y-79225000D02*
X136195600Y-78220600D01*
%TO.N,Net-(J5-PadB5)*%
X133195600Y-78829400D02*
X133195600Y-77465000D01*
X132675000Y-80040000D02*
X132675000Y-79350000D01*
X132675000Y-79350000D02*
X133195600Y-78829400D01*
%TD*%
%TA.AperFunction,Conductor*%
%TO.N,/USB-Power/VUSB*%
G36*
X140117121Y-79695002D02*
G01*
X140163614Y-79748658D01*
X140175000Y-79801000D01*
X140175000Y-81349000D01*
X140154998Y-81417121D01*
X140101342Y-81463614D01*
X140049000Y-81475000D01*
X138126000Y-81475000D01*
X138057879Y-81454998D01*
X138011386Y-81401342D01*
X138000000Y-81349000D01*
X138000000Y-79801000D01*
X138020002Y-79732879D01*
X138073658Y-79686386D01*
X138126000Y-79675000D01*
X140049000Y-79675000D01*
X140117121Y-79695002D01*
G37*
%TD.AperFunction*%
%TD*%
%TA.AperFunction,Conductor*%
%TO.N,VBUS*%
G36*
X153942321Y-78836202D02*
G01*
X153988814Y-78889858D01*
X154000200Y-78942200D01*
X154000200Y-82269210D01*
X153980198Y-82337331D01*
X153963295Y-82358305D01*
X153859305Y-82462295D01*
X153796993Y-82496321D01*
X153770210Y-82499200D01*
X149936826Y-82499200D01*
X149879624Y-82485467D01*
X149832063Y-82461234D01*
X149832062Y-82461234D01*
X149823227Y-82456732D01*
X149813437Y-82455181D01*
X149813436Y-82455181D01*
X149787699Y-82451105D01*
X149730845Y-82442100D01*
X149529841Y-82442100D01*
X149328756Y-82442101D01*
X149253301Y-82454051D01*
X149182890Y-82444951D01*
X149144497Y-82418697D01*
X149058705Y-82332905D01*
X149024679Y-82270593D01*
X149021800Y-82243810D01*
X149021800Y-81789390D01*
X149041802Y-81721269D01*
X149058705Y-81700295D01*
X149213495Y-81545505D01*
X149275807Y-81511479D01*
X149302590Y-81508600D01*
X150012400Y-81508600D01*
X150444200Y-81076800D01*
X150444200Y-78942200D01*
X150464202Y-78874079D01*
X150517858Y-78827586D01*
X150570200Y-78816200D01*
X153874200Y-78816200D01*
X153942321Y-78836202D01*
G37*
%TD.AperFunction*%
%TD*%
%TA.AperFunction,Conductor*%
%TO.N,GND*%
G36*
X147490721Y-78658402D02*
G01*
X147537214Y-78712058D01*
X147548600Y-78764400D01*
X147548600Y-82093800D01*
X147528598Y-82161921D01*
X147474942Y-82208414D01*
X147422600Y-82219800D01*
X145769600Y-82219800D01*
X145701479Y-82199798D01*
X145654986Y-82146142D01*
X145643600Y-82093800D01*
X145643600Y-78764400D01*
X145663602Y-78696279D01*
X145717258Y-78649786D01*
X145769600Y-78638400D01*
X147422600Y-78638400D01*
X147490721Y-78658402D01*
G37*
%TD.AperFunction*%
%TD*%
%TA.AperFunction,Conductor*%
%TO.N,VBUS*%
G36*
X143017121Y-79695002D02*
G01*
X143063614Y-79748658D01*
X143075000Y-79801000D01*
X143075000Y-81349000D01*
X143054998Y-81417121D01*
X143001342Y-81463614D01*
X142949000Y-81475000D01*
X140801000Y-81475000D01*
X140732879Y-81454998D01*
X140686386Y-81401342D01*
X140675000Y-81349000D01*
X140675000Y-79801000D01*
X140695002Y-79732879D01*
X140748658Y-79686386D01*
X140801000Y-79675000D01*
X142949000Y-79675000D01*
X143017121Y-79695002D01*
G37*
%TD.AperFunction*%
%TD*%
%TA.AperFunction,Conductor*%
%TO.N,+3V3*%
G36*
X152291321Y-71202221D02*
G01*
X152337814Y-71255877D01*
X152349200Y-71308219D01*
X152349200Y-76097010D01*
X152329198Y-76165131D01*
X152312295Y-76186105D01*
X149834600Y-78663800D01*
X149834600Y-80900000D01*
X149814598Y-80968121D01*
X149760942Y-81014614D01*
X149708600Y-81026000D01*
X148081000Y-81026000D01*
X148012879Y-81005998D01*
X147966386Y-80952342D01*
X147955000Y-80900000D01*
X147955000Y-78613000D01*
X145008600Y-75666600D01*
X143943190Y-75666600D01*
X143875069Y-75646598D01*
X143854095Y-75629695D01*
X143768303Y-75543903D01*
X143734277Y-75481591D01*
X143732949Y-75435099D01*
X143744900Y-75359645D01*
X143744899Y-74957556D01*
X143730268Y-74865173D01*
X143725765Y-74856336D01*
X143725764Y-74856332D01*
X143701533Y-74808776D01*
X143687800Y-74751574D01*
X143687800Y-71308219D01*
X143707802Y-71240098D01*
X143761458Y-71193605D01*
X143813800Y-71182219D01*
X152223200Y-71182219D01*
X152291321Y-71202221D01*
G37*
%TD.AperFunction*%
%TD*%
M02*
