M48
; DRILL file {KiCad 6.0.11-2627ca5db0~126~ubuntu20.04.1} date Tue 28 Feb 2023 06:41:21 PM WIB
; FORMAT={-:-/ absolute / inch / decimal}
; #@! TF.CreationDate,2023-02-28T18:41:21+07:00
; #@! TF.GenerationSoftware,Kicad,Pcbnew,6.0.11-2627ca5db0~126~ubuntu20.04.1
; #@! TF.FileFunction,Plated,1,4,PTH
FMAT,2
INCH
; #@! TA.AperFunction,Plated,PTH,ViaDrill
T1C0.0157
; #@! TA.AperFunction,Plated,PTH,ComponentDrill
T2C0.0197
; #@! TA.AperFunction,Plated,PTH,ComponentDrill
T3C0.0236
; #@! TA.AperFunction,Plated,PTH,ComponentDrill
T4C0.0394
; #@! TA.AperFunction,Plated,PTH,ComponentDrill
T5C0.1260
%
G90
G05
T1
X4.667Y-3.04
X4.73Y-3.038
X4.767Y-3.6439
X4.767Y-3.7788
X4.804Y-4.0509
X4.819Y-4.11
X4.8212Y-3.6154
X4.8981Y-2.9173
X4.9461Y-3.0053
X4.984Y-3.7749
X4.985Y-4.0309
X5.015Y-4.246
X5.029Y-4.3169
X5.0679Y-3.6969
X5.0689Y-3.6526
X5.069Y-3.5779
X5.1033Y-3.1073
X5.1368Y-3.1073
X5.158Y-4.747
X5.1801Y-3.1555
X5.1801Y-3.188
X5.187Y-5.19
X5.2068Y-2.9414
X5.209Y-3.417
X5.2106Y-2.8701
X5.2234Y-3.2185
X5.2481Y-2.9414
X5.259Y-4.562
X5.2677Y-2.8504
X5.2694Y-3.4019
X5.2726Y-3.1112
X5.2726Y-3.1506
X5.2726Y-3.19
X5.2726Y-3.2293
X5.2726Y-3.2687
X5.2726Y-3.3081
X5.2726Y-3.3474
X5.275Y-3.5779
X5.3268Y-2.8701
X5.327Y-4.1017
X5.3514Y-3.5758
X5.3533Y-3.1112
X5.3533Y-3.1506
X5.3533Y-3.19
X5.3533Y-3.2293
X5.3533Y-3.2687
X5.3533Y-3.3081
X5.3533Y-3.3474
X5.3533Y-3.3868
X5.3533Y-3.4262
X5.3543Y-5.0786
X5.3553Y-5.0294
X5.364Y-4.3149
X5.3828Y-2.9419
X5.397Y-4.563
X5.4016Y-3.2175
X5.402Y-4.101
X5.4055Y-2.9035
X5.415Y-3.261
X5.418Y-5.113
X5.418Y-5.179
X5.4241Y-2.9419
X5.4469Y-3.1555
X5.4469Y-3.189
X5.453Y-3.5789
X5.4921Y-3.1073
X5.5256Y-3.1073
X5.5305Y-3.5778
X5.543Y-5.079
X5.548Y-4.563
X5.573Y-2.895
X5.5738Y-4.9929
X5.607Y-4.0999
X5.61Y-2.959
X5.6122Y-3.1545
X5.6122Y-3.188
X5.633Y-5.008
X5.658Y-4.219
X5.66Y-3.325
X5.71Y-3.5709
X5.73Y-4.309
X5.731Y-3.904
X5.731Y-3.98
X5.738Y-4.249
X5.744Y-3.6219
X5.744Y-3.7499
X5.751Y-3.213
X5.7606Y-2.834
X5.7606Y-2.8733
X5.7606Y-2.9127
X5.775Y-4.1279
X5.792Y-3.213
X5.8014Y-2.834
X5.811Y-3.5129
X5.8421Y-2.834
X5.87Y-3.506
X5.8829Y-2.834
X5.887Y-3.296
X5.909Y-4.0169
X5.9236Y-2.834
X5.952Y-3.332
X5.9644Y-2.834
X5.9644Y-2.8733
X5.9644Y-2.9127
X5.982Y-3.9836
X6.025Y-3.144
X6.026Y-3.195
T2
X4.3693Y-2.9578
X4.3693Y-5.0578
X4.397Y-2.891
X4.397Y-3.0246
X4.397Y-4.991
X4.397Y-5.1246
X4.4638Y-2.8633
X4.4638Y-3.0523
X4.4638Y-4.9633
X4.4638Y-5.1523
X4.5306Y-2.891
X4.5306Y-3.0246
X4.5306Y-4.991
X4.5306Y-5.1246
X4.5583Y-2.9578
X4.5583Y-5.0578
X6.1693Y-2.9578
X6.1693Y-5.0578
X6.197Y-2.891
X6.197Y-3.0246
X6.197Y-4.991
X6.197Y-5.1246
X6.2638Y-2.8633
X6.2638Y-3.0523
X6.2638Y-4.9633
X6.2638Y-5.1523
X6.3306Y-2.891
X6.3306Y-3.0246
X6.3306Y-4.991
X6.3306Y-5.1246
X6.3583Y-2.9578
X6.3583Y-5.0578
T4
X4.3638Y-3.1578
X4.3638Y-3.2578
X4.3638Y-3.3578
X4.3638Y-3.4578
X4.3638Y-3.5578
X4.3638Y-3.6578
X4.3638Y-3.7578
X4.3638Y-3.8578
X4.3638Y-3.9578
X4.3638Y-4.0578
X4.3638Y-4.1578
X4.3638Y-4.2578
X4.3638Y-4.3578
X4.3638Y-4.4578
X4.3638Y-4.5578
X4.3638Y-4.6578
X4.3638Y-4.7578
X4.3638Y-4.8578
X4.4638Y-3.1578
X4.4638Y-3.2578
X4.4638Y-3.3578
X4.4638Y-3.4578
X4.4638Y-3.5578
X4.4638Y-3.6578
X4.4638Y-3.7578
X4.4638Y-3.8578
X4.4638Y-3.9578
X4.4638Y-4.0578
X4.4638Y-4.1578
X4.4638Y-4.2578
X4.4638Y-4.3578
X4.4638Y-4.4578
X4.4638Y-4.5578
X4.4638Y-4.6578
X4.4638Y-4.7578
X4.4638Y-4.8578
X4.84Y-5.158
X4.94Y-5.158
X5.7883Y-5.158
X5.8883Y-5.158
X6.2638Y-3.1578
X6.2638Y-3.2578
X6.2638Y-3.3578
X6.2638Y-3.4578
X6.2638Y-3.5578
X6.2638Y-3.6578
X6.2638Y-3.7578
X6.2638Y-3.8578
X6.2638Y-3.9578
X6.2638Y-4.0578
X6.2638Y-4.1578
X6.2638Y-4.2578
X6.2638Y-4.3578
X6.2638Y-4.4578
X6.2638Y-4.5578
X6.2638Y-4.6578
X6.2638Y-4.7578
X6.2638Y-4.8578
X6.3638Y-3.1578
X6.3638Y-3.2578
X6.3638Y-3.3578
X6.3638Y-3.4578
X6.3638Y-3.5578
X6.3638Y-3.6578
X6.3638Y-3.7578
X6.3638Y-3.8578
X6.3638Y-3.9578
X6.3638Y-4.0578
X6.3638Y-4.1578
X6.3638Y-4.2578
X6.3638Y-4.3578
X6.3638Y-4.4578
X6.3638Y-4.5578
X6.3638Y-4.6578
X6.3638Y-4.7578
X6.3638Y-4.8578
T5
X4.4638Y-2.9578
X4.4638Y-5.0578
X6.2638Y-2.9578
X6.2638Y-5.0578
T3
G00X5.1427Y-2.8766
M15
G01X5.1427Y-2.8451
M16
G05
G00X5.1427Y-3.0478
M15
G01X5.1427Y-3.0045
M16
G05
G00X5.4829Y-2.8766
M15
G01X5.4829Y-2.8451
M16
G05
G00X5.4829Y-3.0478
M15
G01X5.4829Y-3.0045
M16
G05
T0
M30
