%TF.GenerationSoftware,KiCad,Pcbnew,6.0.11-2627ca5db0~126~ubuntu20.04.1*%
%TF.CreationDate,2023-02-28T18:41:23+07:00*%
%TF.ProjectId,CY7C68013A-100,43593743-3638-4303-9133-412d3130302e,rev?*%
%TF.SameCoordinates,Original*%
%TF.FileFunction,Copper,L4,Bot*%
%TF.FilePolarity,Positive*%
%FSLAX46Y46*%
G04 Gerber Fmt 4.6, Leading zero omitted, Abs format (unit mm)*
G04 Created by KiCad (PCBNEW 6.0.11-2627ca5db0~126~ubuntu20.04.1) date 2023-02-28 18:41:23*
%MOMM*%
%LPD*%
G01*
G04 APERTURE LIST*
%ADD10C,0.250000*%
%TA.AperFunction,NonConductor*%
%ADD11C,0.250000*%
%TD*%
%TA.AperFunction,ComponentPad*%
%ADD12R,1.700000X1.700000*%
%TD*%
%TA.AperFunction,ComponentPad*%
%ADD13O,1.700000X1.700000*%
%TD*%
%TA.AperFunction,ComponentPad*%
%ADD14C,0.800000*%
%TD*%
%TA.AperFunction,ComponentPad*%
%ADD15C,6.400000*%
%TD*%
%TA.AperFunction,ComponentPad*%
%ADD16O,1.000000X2.100000*%
%TD*%
%TA.AperFunction,ComponentPad*%
%ADD17O,1.000000X1.800000*%
%TD*%
%TA.AperFunction,ViaPad*%
%ADD18C,0.800000*%
%TD*%
%TA.AperFunction,Conductor*%
%ADD19C,0.800000*%
%TD*%
%TA.AperFunction,Conductor*%
%ADD20C,0.250000*%
%TD*%
%TA.AperFunction,Conductor*%
%ADD21C,0.600000*%
%TD*%
%TA.AperFunction,Conductor*%
%ADD22C,0.150000*%
%TD*%
G04 APERTURE END LIST*
D10*
D11*
X120713476Y-131306914D02*
X120713476Y-131973580D01*
X120475380Y-130925961D02*
X120237285Y-131640247D01*
X120856333Y-131640247D01*
D12*
%TO.P,J3,1,Pin_1*%
%TO.N,GND*%
X149563932Y-131013200D03*
D13*
%TO.P,J3,2,Pin_2*%
%TO.N,Net-(D2-Pad1)*%
X147023932Y-131013200D03*
%TD*%
D14*
%TO.P,H1,1,1*%
%TO.N,GND*%
X110980600Y-128468200D03*
X115780600Y-128468200D03*
X115077656Y-130165256D03*
D15*
X113380600Y-128468200D03*
D14*
X111683544Y-130165256D03*
X113380600Y-130868200D03*
X113380600Y-126068200D03*
X115077656Y-126771144D03*
X111683544Y-126771144D03*
%TD*%
D16*
%TO.P,J5,S1,SHIELD*%
%TO.N,/USB-Power/SHIELD*%
X130625600Y-76865000D03*
D17*
X130625600Y-72665000D03*
X139265600Y-72665000D03*
D16*
X139265600Y-76865000D03*
%TD*%
D12*
%TO.P,J4,1,Pin_1*%
%TO.N,Net-(J4-Pad1)*%
X125477266Y-131013200D03*
D13*
%TO.P,J4,2,Pin_2*%
%TO.N,+3V3*%
X122937266Y-131013200D03*
%TD*%
D14*
%TO.P,H4,1,1*%
%TO.N,GND*%
X157403544Y-126771144D03*
X161500600Y-128468200D03*
X159100600Y-126068200D03*
X157403544Y-130165256D03*
X156700600Y-128468200D03*
X160797656Y-126771144D03*
X159100600Y-130868200D03*
X160797656Y-130165256D03*
D15*
X159100600Y-128468200D03*
%TD*%
D14*
%TO.P,H2,1,1*%
%TO.N,GND*%
X115077656Y-76825256D03*
X113380600Y-72728200D03*
X115077656Y-73431144D03*
D15*
X113380600Y-75128200D03*
D14*
X115780600Y-75128200D03*
X113380600Y-77528200D03*
X111683544Y-76825256D03*
X111683544Y-73431144D03*
X110980600Y-75128200D03*
%TD*%
%TO.P,H3,1,1*%
%TO.N,GND*%
X157403544Y-76825256D03*
D15*
X159100600Y-75128200D03*
D14*
X160797656Y-76825256D03*
X159100600Y-77528200D03*
X156700600Y-75128200D03*
X161500600Y-75128200D03*
X157403544Y-73431144D03*
X160797656Y-73431144D03*
X159100600Y-72728200D03*
%TD*%
D12*
%TO.P,J1,1,Pin_1*%
%TO.N,GND*%
X159100600Y-80208200D03*
D13*
%TO.P,J1,2,Pin_2*%
X161640600Y-80208200D03*
%TO.P,J1,3,Pin_3*%
%TO.N,/GPIO/RDY.5*%
X159100600Y-82748200D03*
%TO.P,J1,4,Pin_4*%
%TO.N,VBUS*%
X161640600Y-82748200D03*
%TO.P,J1,5,Pin_5*%
%TO.N,/GPIO/RDY.3*%
X159100600Y-85288200D03*
%TO.P,J1,6,Pin_6*%
%TO.N,/GPIO/RDY.4*%
X161640600Y-85288200D03*
%TO.P,J1,7,Pin_7*%
%TO.N,/GPIO/RDY.1{slash}SLWR*%
X159100600Y-87828200D03*
%TO.P,J1,8,Pin_8*%
%TO.N,/GPIO/RDY.2*%
X161640600Y-87828200D03*
%TO.P,J1,9,Pin_9*%
%TO.N,/GPIO/CLKOUT*%
X159100600Y-90368200D03*
%TO.P,J1,10,Pin_10*%
%TO.N,/GPIO/RDY.0{slash}SLRD*%
X161640600Y-90368200D03*
%TO.P,J1,11,Pin_11*%
%TO.N,/GPIO/PD6*%
X159100600Y-92908200D03*
%TO.P,J1,12,Pin_12*%
%TO.N,/GPIO/PD7*%
X161640600Y-92908200D03*
%TO.P,J1,13,Pin_13*%
%TO.N,/GPIO/PD4*%
X159100600Y-95448200D03*
%TO.P,J1,14,Pin_14*%
%TO.N,/GPIO/PD5*%
X161640600Y-95448200D03*
%TO.P,J1,15,Pin_15*%
%TO.N,/GPIO/PE6*%
X159100600Y-97988200D03*
%TO.P,J1,16,Pin_16*%
%TO.N,/GPIO/PE7*%
X161640600Y-97988200D03*
%TO.P,J1,17,Pin_17*%
%TO.N,/GPIO/PE4*%
X159100600Y-100528200D03*
%TO.P,J1,18,Pin_18*%
%TO.N,/GPIO/PE5*%
X161640600Y-100528200D03*
%TO.P,J1,19,Pin_19*%
%TO.N,/GPIO/PE2*%
X159100600Y-103068200D03*
%TO.P,J1,20,Pin_20*%
%TO.N,/GPIO/PE3*%
X161640600Y-103068200D03*
%TO.P,J1,21,Pin_21*%
%TO.N,/GPIO/PE0*%
X159100600Y-105608200D03*
%TO.P,J1,22,Pin_22*%
%TO.N,/GPIO/PE1*%
X161640600Y-105608200D03*
%TO.P,J1,23,Pin_23*%
%TO.N,/GPIO/PD3*%
X159100600Y-108148200D03*
%TO.P,J1,24,Pin_24*%
%TO.N,/GPIO/~{INT5}*%
X161640600Y-108148200D03*
%TO.P,J1,25,Pin_25*%
%TO.N,/GPIO/PD1*%
X159100600Y-110688200D03*
%TO.P,J1,26,Pin_26*%
%TO.N,/GPIO/PD2*%
X161640600Y-110688200D03*
%TO.P,J1,27,Pin_27*%
%TO.N,/GPIO/CTL.5*%
X159100600Y-113228200D03*
%TO.P,J1,28,Pin_28*%
%TO.N,/GPIO/PD0*%
X161640600Y-113228200D03*
%TO.P,J1,29,Pin_29*%
%TO.N,/GPIO/PA6*%
X159100600Y-115768200D03*
%TO.P,J1,30,Pin_30*%
%TO.N,/GPIO/PA7*%
X161640600Y-115768200D03*
%TO.P,J1,31,Pin_31*%
%TO.N,/GPIO/PA4*%
X159100600Y-118308200D03*
%TO.P,J1,32,Pin_32*%
%TO.N,/GPIO/PA5*%
X161640600Y-118308200D03*
%TO.P,J1,33,Pin_33*%
%TO.N,/GPIO/PA2*%
X159100600Y-120848200D03*
%TO.P,J1,34,Pin_34*%
%TO.N,/GPIO/PA3*%
X161640600Y-120848200D03*
%TO.P,J1,35,Pin_35*%
%TO.N,/GPIO/PA0*%
X159100600Y-123388200D03*
%TO.P,J1,36,Pin_36*%
%TO.N,/GPIO/PA1*%
X161640600Y-123388200D03*
%TD*%
D12*
%TO.P,J2,1,Pin_1*%
%TO.N,GND*%
X110840600Y-80208200D03*
D13*
%TO.P,J2,2,Pin_2*%
X113380600Y-80208200D03*
%TO.P,J2,3,Pin_3*%
%TO.N,+3V3*%
X110840600Y-82748200D03*
%TO.P,J2,4,Pin_4*%
%TO.N,/GPIO/INT4*%
X113380600Y-82748200D03*
%TO.P,J2,5,Pin_5*%
%TO.N,/GPIO/T.0*%
X110840600Y-85288200D03*
%TO.P,J2,6,Pin_6*%
%TO.N,/GPIO/T.1*%
X113380600Y-85288200D03*
%TO.P,J2,7,Pin_7*%
%TO.N,/GPIO/T.2*%
X110840600Y-87828200D03*
%TO.P,J2,8,Pin_8*%
%TO.N,/GPIO/IFCLK*%
X113380600Y-87828200D03*
%TO.P,J2,9,Pin_9*%
%TO.N,/GPIO/BKPT*%
X110840600Y-90368200D03*
%TO.P,J2,10,Pin_10*%
%TO.N,/GPIO/~{RD}*%
X113380600Y-90368200D03*
%TO.P,J2,11,Pin_11*%
%TO.N,/GPIO/~{WR}*%
X110840600Y-92908200D03*
%TO.P,J2,12,Pin_12*%
%TO.N,/GPIO/PB0*%
X113380600Y-92908200D03*
%TO.P,J2,13,Pin_13*%
%TO.N,/GPIO/PB1*%
X110840600Y-95448200D03*
%TO.P,J2,14,Pin_14*%
%TO.N,/GPIO/PB2*%
X113380600Y-95448200D03*
%TO.P,J2,15,Pin_15*%
%TO.N,/GPIO/PB3*%
X110840600Y-97988200D03*
%TO.P,J2,16,Pin_16*%
%TO.N,/USB-Power/TXD0*%
X113380600Y-97988200D03*
%TO.P,J2,17,Pin_17*%
%TO.N,/USB-Power/RXD0*%
X110840600Y-100528200D03*
%TO.P,J2,18,Pin_18*%
%TO.N,/USB-Power/TXD1*%
X113380600Y-100528200D03*
%TO.P,J2,19,Pin_19*%
%TO.N,/USB-Power/RXD1*%
X110840600Y-103068200D03*
%TO.P,J2,20,Pin_20*%
%TO.N,/GPIO/PB4*%
X113380600Y-103068200D03*
%TO.P,J2,21,Pin_21*%
%TO.N,/GPIO/PB5*%
X110840600Y-105608200D03*
%TO.P,J2,22,Pin_22*%
%TO.N,/GPIO/PB6*%
X113380600Y-105608200D03*
%TO.P,J2,23,Pin_23*%
%TO.N,/GPIO/PB7*%
X110840600Y-108148200D03*
%TO.P,J2,24,Pin_24*%
%TO.N,/GPIO/CTL.3*%
X113380600Y-108148200D03*
%TO.P,J2,25,Pin_25*%
%TO.N,/GPIO/CTL.4*%
X110840600Y-110688200D03*
%TO.P,J2,26,Pin_26*%
%TO.N,/GPIO/CTL.0{slash}FLAGA*%
X113380600Y-110688200D03*
%TO.P,J2,27,Pin_27*%
%TO.N,/GPIO/CTL.1{slash}FLAGB*%
X110840600Y-113228200D03*
%TO.P,J2,28,Pin_28*%
%TO.N,/GPIO/CTL.2{slash}FLAGC*%
X113380600Y-113228200D03*
%TO.P,J2,29,Pin_29*%
%TO.N,/GPIO/PC0*%
X110840600Y-115768200D03*
%TO.P,J2,30,Pin_30*%
%TO.N,/GPIO/PC1*%
X113380600Y-115768200D03*
%TO.P,J2,31,Pin_31*%
%TO.N,/GPIO/PC2*%
X110840600Y-118308200D03*
%TO.P,J2,32,Pin_32*%
%TO.N,/GPIO/PC3*%
X113380600Y-118308200D03*
%TO.P,J2,33,Pin_33*%
%TO.N,/GPIO/PC4*%
X110840600Y-120848200D03*
%TO.P,J2,34,Pin_34*%
%TO.N,/GPIO/PC5*%
X113380600Y-120848200D03*
%TO.P,J2,35,Pin_35*%
%TO.N,/GPIO/PC6*%
X110840600Y-123388200D03*
%TO.P,J2,36,Pin_36*%
%TO.N,/GPIO/PC7*%
X113380600Y-123388200D03*
%TD*%
D18*
%TO.N,+3V3*%
X151494800Y-72982600D03*
X147354800Y-71982600D03*
X135925000Y-90825000D03*
X151494800Y-73982600D03*
X150088600Y-102029000D03*
X127381000Y-107848400D03*
X133841503Y-86408000D03*
X137210800Y-104165400D03*
X147599400Y-89227400D03*
X126593600Y-95882200D03*
X141574600Y-126820800D03*
X133578600Y-115874800D03*
X146319800Y-71982600D03*
X148389800Y-71982600D03*
X140475000Y-90875000D03*
X145745200Y-107924600D03*
X122021600Y-102892600D03*
X150459800Y-71982600D03*
X122459689Y-91831618D03*
X146319800Y-73982600D03*
X151494800Y-71982600D03*
X146319800Y-72982600D03*
X149424800Y-71982600D03*
%TO.N,GND*%
X146075400Y-81610200D03*
X135975000Y-83025000D03*
X136024600Y-127745800D03*
X133800000Y-72400000D03*
X128752600Y-90878400D03*
X135975000Y-85025000D03*
X121081800Y-92554800D03*
X132308600Y-86791800D03*
X141554200Y-73533000D03*
X135975000Y-81025000D03*
X133925000Y-81025000D03*
X135975000Y-79025000D03*
X133925000Y-82025000D03*
X136245600Y-109598200D03*
X131013200Y-120573800D03*
X131749800Y-131826000D03*
X145542000Y-109448600D03*
X149098000Y-89052400D03*
X118541800Y-77216000D03*
X133925000Y-80025000D03*
X133985000Y-90878400D03*
X138506200Y-90903800D03*
X129625000Y-78925000D03*
X135300000Y-72900000D03*
X147116800Y-81610200D03*
X137200000Y-81725000D03*
X137300000Y-73750000D03*
X145034000Y-90700600D03*
X121081800Y-95982700D03*
X140350000Y-78925000D03*
X140792200Y-129006600D03*
X132350000Y-72900000D03*
X124412600Y-74100000D03*
X151180800Y-84632800D03*
X139500000Y-78925000D03*
X130475000Y-78925000D03*
X143078200Y-127203200D03*
X122402600Y-104394000D03*
X135975000Y-87025000D03*
X125631800Y-76335200D03*
X126619000Y-102384600D03*
X142494000Y-75158600D03*
X133925000Y-84025000D03*
X143764000Y-84455000D03*
X127736600Y-109649000D03*
X137541000Y-82829400D03*
X135975000Y-80025000D03*
X145897600Y-95247200D03*
X135975000Y-82025000D03*
X135999600Y-128995800D03*
X133925000Y-79025000D03*
X133925000Y-83025000D03*
X133925000Y-85025000D03*
X135975000Y-84025000D03*
X135975000Y-86025000D03*
X151942800Y-101182700D03*
X149529800Y-83718400D03*
X132675000Y-81750000D03*
X135305800Y-104183700D03*
X142417800Y-104137200D03*
X145897600Y-91996000D03*
%TO.N,/USB-Power/RST*%
X143713200Y-107162600D03*
X120142000Y-77165200D03*
%TO.N,VBUS*%
X153035000Y-79857600D03*
X142550000Y-80975000D03*
X153060400Y-81153000D03*
X142550000Y-80125000D03*
%TO.N,/USB-Power/D-*%
X133301673Y-74712609D03*
X137772588Y-74723804D03*
%TO.N,/USB-Power/D+*%
X136722588Y-74723804D03*
X132251673Y-74712609D03*
%TO.N,/USB-Power/SDA*%
X137617200Y-131546600D03*
X128725000Y-93900000D03*
%TO.N,/USB-Power/SCL*%
X137617200Y-129870200D03*
X128750000Y-92775000D03*
%TO.N,/GPIO/CTL.5*%
X146685000Y-104848400D03*
%TO.N,/GPIO/PE0*%
X137083800Y-115900200D03*
X145567400Y-101092000D03*
%TO.N,/GPIO/PE1*%
X140919200Y-115900200D03*
X145567400Y-99161600D03*
%TO.N,/USB-Power/VUSB*%
X131575000Y-80975000D03*
X131575000Y-80150000D03*
X138350000Y-81000000D03*
X138350000Y-80150000D03*
%TD*%
D19*
%TO.N,GND*%
X135300000Y-72900000D02*
X136123804Y-73723804D01*
X136123804Y-73723804D02*
X137273804Y-73723804D01*
X137273804Y-73723804D02*
X137300000Y-73750000D01*
X132350000Y-72900000D02*
X132850000Y-72400000D01*
X132850000Y-72400000D02*
X133800000Y-72400000D01*
X133800000Y-72400000D02*
X134800000Y-72400000D01*
X134800000Y-72400000D02*
X135300000Y-72900000D01*
D20*
%TO.N,/USB-Power/RST*%
X120142000Y-77165200D02*
X129844800Y-86868000D01*
X146830200Y-101506996D02*
X143713200Y-104623996D01*
X129844800Y-86868000D02*
X129844800Y-93192600D01*
X146830200Y-99399095D02*
X146830200Y-101506996D01*
X145867705Y-98436600D02*
X146830200Y-99399095D01*
X135088800Y-98436600D02*
X145867705Y-98436600D01*
X129844800Y-93192600D02*
X135088800Y-98436600D01*
X143713200Y-104623996D02*
X143713200Y-107162600D01*
D21*
%TO.N,/USB-Power/SHIELD*%
X139265600Y-72665000D02*
X139265600Y-76865000D01*
X130625600Y-76865000D02*
X130625600Y-72665000D01*
D22*
%TO.N,/USB-Power/D-*%
X134372400Y-73569888D02*
X133301314Y-73569888D01*
X133301314Y-73569888D02*
X132951673Y-73919529D01*
X136973589Y-76175000D02*
X135327512Y-76175000D01*
X135327512Y-76175000D02*
X134745027Y-75592515D01*
X134745027Y-73942515D02*
X134372400Y-73569888D01*
X132951673Y-74362609D02*
X133301673Y-74712609D01*
X137422588Y-75726001D02*
X136973589Y-76175000D01*
X132951673Y-73919529D02*
X132951673Y-74362609D01*
X137772588Y-74723804D02*
X137422588Y-75073804D01*
X137422588Y-75073804D02*
X137422588Y-75726001D01*
X134745027Y-75592515D02*
X134745027Y-73942515D01*
%TO.N,/USB-Power/D+*%
X135095027Y-75447539D02*
X135095027Y-73797539D01*
X135472488Y-75825000D02*
X135095027Y-75447539D01*
X133156338Y-73219888D02*
X132601673Y-73774553D01*
X136828613Y-75825000D02*
X135472488Y-75825000D01*
X132601673Y-74362609D02*
X132251673Y-74712609D01*
X134517376Y-73219888D02*
X133156338Y-73219888D01*
X135095027Y-73797539D02*
X134517376Y-73219888D01*
X136722588Y-74723804D02*
X137072588Y-75073804D01*
X137072588Y-75581025D02*
X136828613Y-75825000D01*
X137072588Y-75073804D02*
X137072588Y-75581025D01*
X132601673Y-73774553D02*
X132601673Y-74362609D01*
D20*
%TO.N,/USB-Power/SDA*%
X135864600Y-131546600D02*
X137617200Y-131546600D01*
X132359400Y-128041400D02*
X135864600Y-131546600D01*
X132359400Y-97534400D02*
X132359400Y-128041400D01*
X128725000Y-93900000D02*
X132359400Y-97534400D01*
%TO.N,/USB-Power/SCL*%
X132824600Y-96849600D02*
X128750000Y-92775000D01*
X135128000Y-129870200D02*
X132824600Y-127566800D01*
X137617200Y-129870200D02*
X135128000Y-129870200D01*
X132824600Y-127566800D02*
X132824600Y-96849600D01*
%TO.N,/GPIO/CTL.5*%
X155064800Y-113228200D02*
X159100600Y-113228200D01*
X146685000Y-104848400D02*
X155064800Y-113228200D01*
%TO.N,/GPIO/PE0*%
X137083800Y-111734600D02*
X138531600Y-110286800D01*
X137083800Y-115900200D02*
X137083800Y-111734600D01*
X138531600Y-104343200D02*
X141782800Y-101092000D01*
X138531600Y-110286800D02*
X138531600Y-104343200D01*
X141782800Y-101092000D02*
X145567400Y-101092000D01*
%TO.N,/GPIO/PE1*%
X146380200Y-101320600D02*
X146380200Y-99974400D01*
X145796000Y-101904800D02*
X146380200Y-101320600D01*
X146380200Y-99974400D02*
X145567400Y-99161600D01*
X141775600Y-101904800D02*
X145796000Y-101904800D01*
X140919200Y-102761200D02*
X141775600Y-101904800D01*
X140919200Y-115900200D02*
X140919200Y-102761200D01*
%TD*%
%TA.AperFunction,Conductor*%
%TO.N,+3V3*%
G36*
X152291321Y-71202221D02*
G01*
X152337814Y-71255877D01*
X152349200Y-71308219D01*
X152349200Y-74677000D01*
X152329198Y-74745121D01*
X152275542Y-74791614D01*
X152223200Y-74803000D01*
X145591800Y-74803000D01*
X145523679Y-74782998D01*
X145477186Y-74729342D01*
X145465800Y-74677000D01*
X145465800Y-71308219D01*
X145485802Y-71240098D01*
X145539458Y-71193605D01*
X145591800Y-71182219D01*
X152223200Y-71182219D01*
X152291321Y-71202221D01*
G37*
%TD.AperFunction*%
%TD*%
M02*
