%TF.GenerationSoftware,KiCad,Pcbnew,6.0.11-2627ca5db0~126~ubuntu20.04.1*%
%TF.CreationDate,2023-02-28T18:41:23+07:00*%
%TF.ProjectId,CY7C68013A-100,43593743-3638-4303-9133-412d3130302e,rev?*%
%TF.SameCoordinates,Original*%
%TF.FileFunction,Paste,Top*%
%TF.FilePolarity,Positive*%
%FSLAX46Y46*%
G04 Gerber Fmt 4.6, Leading zero omitted, Abs format (unit mm)*
G04 Created by KiCad (PCBNEW 6.0.11-2627ca5db0~126~ubuntu20.04.1) date 2023-02-28 18:41:23*
%MOMM*%
%LPD*%
G01*
G04 APERTURE LIST*
G04 Aperture macros list*
%AMRoundRect*
0 Rectangle with rounded corners*
0 $1 Rounding radius*
0 $2 $3 $4 $5 $6 $7 $8 $9 X,Y pos of 4 corners*
0 Add a 4 corners polygon primitive as box body*
4,1,4,$2,$3,$4,$5,$6,$7,$8,$9,$2,$3,0*
0 Add four circle primitives for the rounded corners*
1,1,$1+$1,$2,$3*
1,1,$1+$1,$4,$5*
1,1,$1+$1,$6,$7*
1,1,$1+$1,$8,$9*
0 Add four rect primitives between the rounded corners*
20,1,$1+$1,$2,$3,$4,$5,0*
20,1,$1+$1,$4,$5,$6,$7,0*
20,1,$1+$1,$6,$7,$8,$9,0*
20,1,$1+$1,$8,$9,$2,$3,0*%
G04 Aperture macros list end*
%ADD10RoundRect,0.243750X0.456250X-0.243750X0.456250X0.243750X-0.456250X0.243750X-0.456250X-0.243750X0*%
%ADD11RoundRect,0.135000X-0.185000X0.135000X-0.185000X-0.135000X0.185000X-0.135000X0.185000X0.135000X0*%
%ADD12RoundRect,0.135000X0.185000X-0.135000X0.185000X0.135000X-0.185000X0.135000X-0.185000X-0.135000X0*%
%ADD13R,1.500000X2.000000*%
%ADD14R,3.800000X2.000000*%
%ADD15RoundRect,0.140000X0.140000X0.170000X-0.140000X0.170000X-0.140000X-0.170000X0.140000X-0.170000X0*%
%ADD16R,1.000000X0.900000*%
%ADD17R,0.600000X1.240000*%
%ADD18R,0.300000X1.240000*%
%ADD19RoundRect,0.250000X-0.475000X0.250000X-0.475000X-0.250000X0.475000X-0.250000X0.475000X0.250000X0*%
%ADD20RoundRect,0.140000X-0.170000X0.140000X-0.170000X-0.140000X0.170000X-0.140000X0.170000X0.140000X0*%
%ADD21RoundRect,0.250000X0.325000X0.650000X-0.325000X0.650000X-0.325000X-0.650000X0.325000X-0.650000X0*%
%ADD22RoundRect,0.140000X-0.140000X-0.170000X0.140000X-0.170000X0.140000X0.170000X-0.140000X0.170000X0*%
%ADD23RoundRect,0.135000X0.135000X0.185000X-0.135000X0.185000X-0.135000X-0.185000X0.135000X-0.185000X0*%
%ADD24RoundRect,0.243750X0.243750X0.456250X-0.243750X0.456250X-0.243750X-0.456250X0.243750X-0.456250X0*%
%ADD25RoundRect,0.250000X0.250000X0.475000X-0.250000X0.475000X-0.250000X-0.475000X0.250000X-0.475000X0*%
%ADD26R,1.400000X1.200000*%
%ADD27RoundRect,0.150000X-0.825000X-0.150000X0.825000X-0.150000X0.825000X0.150000X-0.825000X0.150000X0*%
%ADD28RoundRect,0.250000X0.262500X0.450000X-0.262500X0.450000X-0.262500X-0.450000X0.262500X-0.450000X0*%
%ADD29RoundRect,0.100000X-0.100000X0.775000X-0.100000X-0.775000X0.100000X-0.775000X0.100000X0.775000X0*%
%ADD30RoundRect,0.100000X-0.775000X0.100000X-0.775000X-0.100000X0.775000X-0.100000X0.775000X0.100000X0*%
G04 APERTURE END LIST*
D10*
%TO.C,D3*%
X140106400Y-120596900D03*
X140106400Y-118721900D03*
%TD*%
D11*
%TO.C,R1*%
X143720600Y-107920000D03*
X143720600Y-108940000D03*
%TD*%
D12*
%TO.C,R9*%
X140106400Y-116918200D03*
X140106400Y-115898200D03*
%TD*%
%TO.C,R10*%
X132675000Y-81060000D03*
X132675000Y-80040000D03*
%TD*%
D10*
%TO.C,D1*%
X132435600Y-120596900D03*
X132435600Y-118721900D03*
%TD*%
D13*
%TO.C,U3*%
X146594800Y-79832600D03*
D14*
X148894800Y-73532600D03*
D13*
X148894800Y-79832600D03*
X151194800Y-79832600D03*
%TD*%
D15*
%TO.C,C17*%
X144170400Y-75158600D03*
X143210400Y-75158600D03*
%TD*%
D16*
%TO.C,SW1*%
X120154600Y-72194200D03*
X120154600Y-76294200D03*
X118554600Y-72194200D03*
X118554600Y-76294200D03*
%TD*%
D17*
%TO.C,J5*%
X138145600Y-77465000D03*
X137345600Y-77465000D03*
D18*
X136195600Y-77465000D03*
X135195600Y-77465000D03*
X134695600Y-77465000D03*
X133695600Y-77465000D03*
D17*
X132545600Y-77465000D03*
X131745600Y-77465000D03*
X131745600Y-77465000D03*
X132545600Y-77465000D03*
D18*
X133195600Y-77465000D03*
X134195600Y-77465000D03*
X135695600Y-77465000D03*
X136695600Y-77465000D03*
D17*
X137345600Y-77465000D03*
X138145600Y-77465000D03*
%TD*%
D12*
%TO.C,R7*%
X137200000Y-81035000D03*
X137200000Y-80015000D03*
%TD*%
D19*
%TO.C,C15*%
X151180800Y-81803200D03*
X151180800Y-83703200D03*
%TD*%
D20*
%TO.C,C6*%
X136245600Y-107797400D03*
X136245600Y-108757400D03*
%TD*%
D11*
%TO.C,R6*%
X132435600Y-115872800D03*
X132435600Y-116892800D03*
%TD*%
D15*
%TO.C,C11*%
X122936000Y-92656400D03*
X121976000Y-92656400D03*
%TD*%
D21*
%TO.C,C5*%
X128375000Y-74100000D03*
X125425000Y-74100000D03*
%TD*%
D22*
%TO.C,C12*%
X147602000Y-88516200D03*
X148562000Y-88516200D03*
%TD*%
D20*
%TO.C,C10*%
X122936000Y-102920600D03*
X122936000Y-103880600D03*
%TD*%
%TO.C,C14*%
X128117600Y-107845600D03*
X128117600Y-108805600D03*
%TD*%
D23*
%TO.C,R2*%
X142559600Y-131545800D03*
X141539600Y-131545800D03*
%TD*%
D22*
%TO.C,C7*%
X150091200Y-101114600D03*
X151051200Y-101114600D03*
%TD*%
D20*
%TO.C,C13*%
X145020600Y-107950000D03*
X145020600Y-108910000D03*
%TD*%
%TO.C,C2*%
X142420600Y-107952800D03*
X142420600Y-108912800D03*
%TD*%
D24*
%TO.C,F1*%
X141350000Y-80575000D03*
X139475000Y-80575000D03*
%TD*%
D25*
%TO.C,C18*%
X144383800Y-73533000D03*
X142483800Y-73533000D03*
%TD*%
D15*
%TO.C,C8*%
X122933400Y-95958400D03*
X121973400Y-95958400D03*
%TD*%
D20*
%TO.C,C16*%
X149529800Y-82016600D03*
X149529800Y-82976600D03*
%TD*%
D11*
%TO.C,R5*%
X132373600Y-130295800D03*
X132373600Y-131315800D03*
%TD*%
D26*
%TO.C,Y1*%
X141370600Y-83147800D03*
X139170600Y-83147800D03*
X139170600Y-84847800D03*
X141370600Y-84847800D03*
%TD*%
D15*
%TO.C,C9*%
X133779200Y-87347800D03*
X132819200Y-87347800D03*
%TD*%
D20*
%TO.C,C3*%
X137541000Y-83517800D03*
X137541000Y-84477800D03*
%TD*%
D22*
%TO.C,C1*%
X141569600Y-127745800D03*
X142529600Y-127745800D03*
%TD*%
D23*
%TO.C,R3*%
X142559600Y-130270800D03*
X141539600Y-130270800D03*
%TD*%
D27*
%TO.C,U1*%
X134445200Y-127736600D03*
X134445200Y-129006600D03*
X134445200Y-130276600D03*
X134445200Y-131546600D03*
X139395200Y-131546600D03*
X139395200Y-130276600D03*
X139395200Y-129006600D03*
X139395200Y-127736600D03*
%TD*%
D10*
%TO.C,D2*%
X136271000Y-120596900D03*
X136271000Y-118721900D03*
%TD*%
D12*
%TO.C,R8*%
X136271000Y-116918200D03*
X136271000Y-115898200D03*
%TD*%
D28*
%TO.C,R4*%
X128373100Y-76335200D03*
X126548100Y-76335200D03*
%TD*%
D29*
%TO.C,U2*%
X145670600Y-89408200D03*
X145020600Y-89408200D03*
X144370600Y-89408200D03*
X143720600Y-89408200D03*
X143070600Y-89408200D03*
X142420600Y-89408200D03*
X141770600Y-89408200D03*
X141120600Y-89408200D03*
X140470600Y-89408200D03*
X139820600Y-89408200D03*
X139170600Y-89408200D03*
X138520600Y-89408200D03*
X137870600Y-89408200D03*
X137220600Y-89408200D03*
X136570600Y-89408200D03*
X135920600Y-89408200D03*
X135270600Y-89408200D03*
X134620600Y-89408200D03*
X133970600Y-89408200D03*
X133320600Y-89408200D03*
X132670600Y-89408200D03*
X132020600Y-89408200D03*
X131370600Y-89408200D03*
X130720600Y-89408200D03*
X130070600Y-89408200D03*
X129420600Y-89408200D03*
X128770600Y-89408200D03*
X128120600Y-89408200D03*
X127470600Y-89408200D03*
X126820600Y-89408200D03*
D30*
X125120600Y-91358200D03*
X125120600Y-92008200D03*
X125120600Y-92658200D03*
X125120600Y-93308200D03*
X125120600Y-93958200D03*
X125120600Y-94608200D03*
X125120600Y-95258200D03*
X125120600Y-95908200D03*
X125120600Y-96558200D03*
X125120600Y-97208200D03*
X125120600Y-97858200D03*
X125120600Y-98508200D03*
X125120600Y-99158200D03*
X125120600Y-99808200D03*
X125120600Y-100458200D03*
X125120600Y-101108200D03*
X125120600Y-101758200D03*
X125120600Y-102408200D03*
X125120600Y-103058200D03*
X125120600Y-103708200D03*
D29*
X126820600Y-105658200D03*
X127470600Y-105658200D03*
X128120600Y-105658200D03*
X128770600Y-105658200D03*
X129420600Y-105658200D03*
X130070600Y-105658200D03*
X130720600Y-105658200D03*
X131370600Y-105658200D03*
X132020600Y-105658200D03*
X132670600Y-105658200D03*
X133320600Y-105658200D03*
X133970600Y-105658200D03*
X134620600Y-105658200D03*
X135270600Y-105658200D03*
X135920600Y-105658200D03*
X136570600Y-105658200D03*
X137220600Y-105658200D03*
X137870600Y-105658200D03*
X138520600Y-105658200D03*
X139170600Y-105658200D03*
X139820600Y-105658200D03*
X140470600Y-105658200D03*
X141120600Y-105658200D03*
X141770600Y-105658200D03*
X142420600Y-105658200D03*
X143070600Y-105658200D03*
X143720600Y-105658200D03*
X144370600Y-105658200D03*
X145020600Y-105658200D03*
X145670600Y-105658200D03*
D30*
X147370600Y-103708200D03*
X147370600Y-103058200D03*
X147370600Y-102408200D03*
X147370600Y-101758200D03*
X147370600Y-101108200D03*
X147370600Y-100458200D03*
X147370600Y-99808200D03*
X147370600Y-99158200D03*
X147370600Y-98508200D03*
X147370600Y-97858200D03*
X147370600Y-97208200D03*
X147370600Y-96558200D03*
X147370600Y-95908200D03*
X147370600Y-95258200D03*
X147370600Y-94608200D03*
X147370600Y-93958200D03*
X147370600Y-93308200D03*
X147370600Y-92658200D03*
X147370600Y-92008200D03*
X147370600Y-91358200D03*
%TD*%
D20*
%TO.C,C4*%
X143052800Y-83517800D03*
X143052800Y-84477800D03*
%TD*%
M02*
