%TF.GenerationSoftware,KiCad,Pcbnew,6.0.11-2627ca5db0~126~ubuntu20.04.1*%
%TF.CreationDate,2023-02-28T18:41:23+07:00*%
%TF.ProjectId,CY7C68013A-100,43593743-3638-4303-9133-412d3130302e,rev?*%
%TF.SameCoordinates,Original*%
%TF.FileFunction,Soldermask,Top*%
%TF.FilePolarity,Negative*%
%FSLAX46Y46*%
G04 Gerber Fmt 4.6, Leading zero omitted, Abs format (unit mm)*
G04 Created by KiCad (PCBNEW 6.0.11-2627ca5db0~126~ubuntu20.04.1) date 2023-02-28 18:41:23*
%MOMM*%
%LPD*%
G01*
G04 APERTURE LIST*
G04 Aperture macros list*
%AMRoundRect*
0 Rectangle with rounded corners*
0 $1 Rounding radius*
0 $2 $3 $4 $5 $6 $7 $8 $9 X,Y pos of 4 corners*
0 Add a 4 corners polygon primitive as box body*
4,1,4,$2,$3,$4,$5,$6,$7,$8,$9,$2,$3,0*
0 Add four circle primitives for the rounded corners*
1,1,$1+$1,$2,$3*
1,1,$1+$1,$4,$5*
1,1,$1+$1,$6,$7*
1,1,$1+$1,$8,$9*
0 Add four rect primitives between the rounded corners*
20,1,$1+$1,$2,$3,$4,$5,0*
20,1,$1+$1,$4,$5,$6,$7,0*
20,1,$1+$1,$6,$7,$8,$9,0*
20,1,$1+$1,$8,$9,$2,$3,0*%
G04 Aperture macros list end*
%ADD10RoundRect,0.243750X0.456250X-0.243750X0.456250X0.243750X-0.456250X0.243750X-0.456250X-0.243750X0*%
%ADD11R,1.700000X1.700000*%
%ADD12O,1.700000X1.700000*%
%ADD13RoundRect,0.135000X-0.185000X0.135000X-0.185000X-0.135000X0.185000X-0.135000X0.185000X0.135000X0*%
%ADD14C,0.800000*%
%ADD15C,6.400000*%
%ADD16RoundRect,0.135000X0.185000X-0.135000X0.185000X0.135000X-0.185000X0.135000X-0.185000X-0.135000X0*%
%ADD17R,1.500000X2.000000*%
%ADD18R,3.800000X2.000000*%
%ADD19RoundRect,0.140000X0.140000X0.170000X-0.140000X0.170000X-0.140000X-0.170000X0.140000X-0.170000X0*%
%ADD20R,1.000000X0.900000*%
%ADD21C,0.650000*%
%ADD22R,0.600000X1.240000*%
%ADD23R,0.300000X1.240000*%
%ADD24O,1.000000X2.100000*%
%ADD25O,1.000000X1.800000*%
%ADD26RoundRect,0.250000X-0.475000X0.250000X-0.475000X-0.250000X0.475000X-0.250000X0.475000X0.250000X0*%
%ADD27RoundRect,0.140000X-0.170000X0.140000X-0.170000X-0.140000X0.170000X-0.140000X0.170000X0.140000X0*%
%ADD28RoundRect,0.250000X0.325000X0.650000X-0.325000X0.650000X-0.325000X-0.650000X0.325000X-0.650000X0*%
%ADD29RoundRect,0.140000X-0.140000X-0.170000X0.140000X-0.170000X0.140000X0.170000X-0.140000X0.170000X0*%
%ADD30RoundRect,0.135000X0.135000X0.185000X-0.135000X0.185000X-0.135000X-0.185000X0.135000X-0.185000X0*%
%ADD31RoundRect,0.243750X0.243750X0.456250X-0.243750X0.456250X-0.243750X-0.456250X0.243750X-0.456250X0*%
%ADD32RoundRect,0.250000X0.250000X0.475000X-0.250000X0.475000X-0.250000X-0.475000X0.250000X-0.475000X0*%
%ADD33R,1.400000X1.200000*%
%ADD34RoundRect,0.150000X-0.825000X-0.150000X0.825000X-0.150000X0.825000X0.150000X-0.825000X0.150000X0*%
%ADD35RoundRect,0.250000X0.262500X0.450000X-0.262500X0.450000X-0.262500X-0.450000X0.262500X-0.450000X0*%
%ADD36RoundRect,0.100000X-0.100000X0.775000X-0.100000X-0.775000X0.100000X-0.775000X0.100000X0.775000X0*%
%ADD37RoundRect,0.100000X-0.775000X0.100000X-0.775000X-0.100000X0.775000X-0.100000X0.775000X0.100000X0*%
G04 APERTURE END LIST*
D10*
%TO.C,D3*%
X140106400Y-120596900D03*
X140106400Y-118721900D03*
%TD*%
D11*
%TO.C,J3*%
X149563932Y-131013200D03*
D12*
X147023932Y-131013200D03*
%TD*%
D13*
%TO.C,R1*%
X143720600Y-107920000D03*
X143720600Y-108940000D03*
%TD*%
D14*
%TO.C,H1*%
X110980600Y-128468200D03*
X115780600Y-128468200D03*
X115077656Y-130165256D03*
D15*
X113380600Y-128468200D03*
D14*
X111683544Y-130165256D03*
X113380600Y-130868200D03*
X113380600Y-126068200D03*
X115077656Y-126771144D03*
X111683544Y-126771144D03*
%TD*%
D16*
%TO.C,R9*%
X140106400Y-116918200D03*
X140106400Y-115898200D03*
%TD*%
%TO.C,R10*%
X132675000Y-81060000D03*
X132675000Y-80040000D03*
%TD*%
D10*
%TO.C,D1*%
X132435600Y-120596900D03*
X132435600Y-118721900D03*
%TD*%
D17*
%TO.C,U3*%
X146594800Y-79832600D03*
D18*
X148894800Y-73532600D03*
D17*
X148894800Y-79832600D03*
X151194800Y-79832600D03*
%TD*%
D19*
%TO.C,C17*%
X144170400Y-75158600D03*
X143210400Y-75158600D03*
%TD*%
D20*
%TO.C,SW1*%
X120154600Y-72194200D03*
X120154600Y-76294200D03*
X118554600Y-72194200D03*
X118554600Y-76294200D03*
%TD*%
D21*
%TO.C,J5*%
X132055600Y-76345000D03*
X137835600Y-76345000D03*
D22*
X138145600Y-77465000D03*
X137345600Y-77465000D03*
D23*
X136195600Y-77465000D03*
X135195600Y-77465000D03*
X134695600Y-77465000D03*
X133695600Y-77465000D03*
D22*
X132545600Y-77465000D03*
X131745600Y-77465000D03*
X131745600Y-77465000D03*
X132545600Y-77465000D03*
D23*
X133195600Y-77465000D03*
X134195600Y-77465000D03*
X135695600Y-77465000D03*
X136695600Y-77465000D03*
D22*
X137345600Y-77465000D03*
X138145600Y-77465000D03*
D24*
X130625600Y-76865000D03*
D25*
X130625600Y-72665000D03*
X139265600Y-72665000D03*
D24*
X139265600Y-76865000D03*
%TD*%
D16*
%TO.C,R7*%
X137200000Y-81035000D03*
X137200000Y-80015000D03*
%TD*%
D26*
%TO.C,C15*%
X151180800Y-81803200D03*
X151180800Y-83703200D03*
%TD*%
D27*
%TO.C,C6*%
X136245600Y-107797400D03*
X136245600Y-108757400D03*
%TD*%
D13*
%TO.C,R6*%
X132435600Y-115872800D03*
X132435600Y-116892800D03*
%TD*%
D19*
%TO.C,C11*%
X122936000Y-92656400D03*
X121976000Y-92656400D03*
%TD*%
D28*
%TO.C,C5*%
X128375000Y-74100000D03*
X125425000Y-74100000D03*
%TD*%
D29*
%TO.C,C12*%
X147602000Y-88516200D03*
X148562000Y-88516200D03*
%TD*%
D11*
%TO.C,J4*%
X125477266Y-131013200D03*
D12*
X122937266Y-131013200D03*
%TD*%
D27*
%TO.C,C10*%
X122936000Y-102920600D03*
X122936000Y-103880600D03*
%TD*%
%TO.C,C14*%
X128117600Y-107845600D03*
X128117600Y-108805600D03*
%TD*%
D30*
%TO.C,R2*%
X142559600Y-131545800D03*
X141539600Y-131545800D03*
%TD*%
D29*
%TO.C,C7*%
X150091200Y-101114600D03*
X151051200Y-101114600D03*
%TD*%
D27*
%TO.C,C13*%
X145020600Y-107950000D03*
X145020600Y-108910000D03*
%TD*%
D14*
%TO.C,H4*%
X157403544Y-126771144D03*
X161500600Y-128468200D03*
X159100600Y-126068200D03*
X157403544Y-130165256D03*
X156700600Y-128468200D03*
X160797656Y-126771144D03*
X159100600Y-130868200D03*
X160797656Y-130165256D03*
D15*
X159100600Y-128468200D03*
%TD*%
D27*
%TO.C,C2*%
X142420600Y-107952800D03*
X142420600Y-108912800D03*
%TD*%
D31*
%TO.C,F1*%
X141350000Y-80575000D03*
X139475000Y-80575000D03*
%TD*%
D32*
%TO.C,C18*%
X144383800Y-73533000D03*
X142483800Y-73533000D03*
%TD*%
D19*
%TO.C,C8*%
X122933400Y-95958400D03*
X121973400Y-95958400D03*
%TD*%
D27*
%TO.C,C16*%
X149529800Y-82016600D03*
X149529800Y-82976600D03*
%TD*%
D13*
%TO.C,R5*%
X132373600Y-130295800D03*
X132373600Y-131315800D03*
%TD*%
D33*
%TO.C,Y1*%
X141370600Y-83147800D03*
X139170600Y-83147800D03*
X139170600Y-84847800D03*
X141370600Y-84847800D03*
%TD*%
D19*
%TO.C,C9*%
X133779200Y-87347800D03*
X132819200Y-87347800D03*
%TD*%
D27*
%TO.C,C3*%
X137541000Y-83517800D03*
X137541000Y-84477800D03*
%TD*%
D14*
%TO.C,H2*%
X115077656Y-76825256D03*
X113380600Y-72728200D03*
X115077656Y-73431144D03*
D15*
X113380600Y-75128200D03*
D14*
X115780600Y-75128200D03*
X113380600Y-77528200D03*
X111683544Y-76825256D03*
X111683544Y-73431144D03*
X110980600Y-75128200D03*
%TD*%
D29*
%TO.C,C1*%
X141569600Y-127745800D03*
X142529600Y-127745800D03*
%TD*%
D30*
%TO.C,R3*%
X142559600Y-130270800D03*
X141539600Y-130270800D03*
%TD*%
D14*
%TO.C,H3*%
X157403544Y-76825256D03*
D15*
X159100600Y-75128200D03*
D14*
X160797656Y-76825256D03*
X159100600Y-77528200D03*
X156700600Y-75128200D03*
X161500600Y-75128200D03*
X157403544Y-73431144D03*
X160797656Y-73431144D03*
X159100600Y-72728200D03*
%TD*%
D11*
%TO.C,J1*%
X159100600Y-80208200D03*
D12*
X161640600Y-80208200D03*
X159100600Y-82748200D03*
X161640600Y-82748200D03*
X159100600Y-85288200D03*
X161640600Y-85288200D03*
X159100600Y-87828200D03*
X161640600Y-87828200D03*
X159100600Y-90368200D03*
X161640600Y-90368200D03*
X159100600Y-92908200D03*
X161640600Y-92908200D03*
X159100600Y-95448200D03*
X161640600Y-95448200D03*
X159100600Y-97988200D03*
X161640600Y-97988200D03*
X159100600Y-100528200D03*
X161640600Y-100528200D03*
X159100600Y-103068200D03*
X161640600Y-103068200D03*
X159100600Y-105608200D03*
X161640600Y-105608200D03*
X159100600Y-108148200D03*
X161640600Y-108148200D03*
X159100600Y-110688200D03*
X161640600Y-110688200D03*
X159100600Y-113228200D03*
X161640600Y-113228200D03*
X159100600Y-115768200D03*
X161640600Y-115768200D03*
X159100600Y-118308200D03*
X161640600Y-118308200D03*
X159100600Y-120848200D03*
X161640600Y-120848200D03*
X159100600Y-123388200D03*
X161640600Y-123388200D03*
%TD*%
D34*
%TO.C,U1*%
X134445200Y-127736600D03*
X134445200Y-129006600D03*
X134445200Y-130276600D03*
X134445200Y-131546600D03*
X139395200Y-131546600D03*
X139395200Y-130276600D03*
X139395200Y-129006600D03*
X139395200Y-127736600D03*
%TD*%
D10*
%TO.C,D2*%
X136271000Y-120596900D03*
X136271000Y-118721900D03*
%TD*%
D16*
%TO.C,R8*%
X136271000Y-116918200D03*
X136271000Y-115898200D03*
%TD*%
D35*
%TO.C,R4*%
X128373100Y-76335200D03*
X126548100Y-76335200D03*
%TD*%
D36*
%TO.C,U2*%
X145670600Y-89408200D03*
X145020600Y-89408200D03*
X144370600Y-89408200D03*
X143720600Y-89408200D03*
X143070600Y-89408200D03*
X142420600Y-89408200D03*
X141770600Y-89408200D03*
X141120600Y-89408200D03*
X140470600Y-89408200D03*
X139820600Y-89408200D03*
X139170600Y-89408200D03*
X138520600Y-89408200D03*
X137870600Y-89408200D03*
X137220600Y-89408200D03*
X136570600Y-89408200D03*
X135920600Y-89408200D03*
X135270600Y-89408200D03*
X134620600Y-89408200D03*
X133970600Y-89408200D03*
X133320600Y-89408200D03*
X132670600Y-89408200D03*
X132020600Y-89408200D03*
X131370600Y-89408200D03*
X130720600Y-89408200D03*
X130070600Y-89408200D03*
X129420600Y-89408200D03*
X128770600Y-89408200D03*
X128120600Y-89408200D03*
X127470600Y-89408200D03*
X126820600Y-89408200D03*
D37*
X125120600Y-91358200D03*
X125120600Y-92008200D03*
X125120600Y-92658200D03*
X125120600Y-93308200D03*
X125120600Y-93958200D03*
X125120600Y-94608200D03*
X125120600Y-95258200D03*
X125120600Y-95908200D03*
X125120600Y-96558200D03*
X125120600Y-97208200D03*
X125120600Y-97858200D03*
X125120600Y-98508200D03*
X125120600Y-99158200D03*
X125120600Y-99808200D03*
X125120600Y-100458200D03*
X125120600Y-101108200D03*
X125120600Y-101758200D03*
X125120600Y-102408200D03*
X125120600Y-103058200D03*
X125120600Y-103708200D03*
D36*
X126820600Y-105658200D03*
X127470600Y-105658200D03*
X128120600Y-105658200D03*
X128770600Y-105658200D03*
X129420600Y-105658200D03*
X130070600Y-105658200D03*
X130720600Y-105658200D03*
X131370600Y-105658200D03*
X132020600Y-105658200D03*
X132670600Y-105658200D03*
X133320600Y-105658200D03*
X133970600Y-105658200D03*
X134620600Y-105658200D03*
X135270600Y-105658200D03*
X135920600Y-105658200D03*
X136570600Y-105658200D03*
X137220600Y-105658200D03*
X137870600Y-105658200D03*
X138520600Y-105658200D03*
X139170600Y-105658200D03*
X139820600Y-105658200D03*
X140470600Y-105658200D03*
X141120600Y-105658200D03*
X141770600Y-105658200D03*
X142420600Y-105658200D03*
X143070600Y-105658200D03*
X143720600Y-105658200D03*
X144370600Y-105658200D03*
X145020600Y-105658200D03*
X145670600Y-105658200D03*
D37*
X147370600Y-103708200D03*
X147370600Y-103058200D03*
X147370600Y-102408200D03*
X147370600Y-101758200D03*
X147370600Y-101108200D03*
X147370600Y-100458200D03*
X147370600Y-99808200D03*
X147370600Y-99158200D03*
X147370600Y-98508200D03*
X147370600Y-97858200D03*
X147370600Y-97208200D03*
X147370600Y-96558200D03*
X147370600Y-95908200D03*
X147370600Y-95258200D03*
X147370600Y-94608200D03*
X147370600Y-93958200D03*
X147370600Y-93308200D03*
X147370600Y-92658200D03*
X147370600Y-92008200D03*
X147370600Y-91358200D03*
%TD*%
D11*
%TO.C,J2*%
X110840600Y-80208200D03*
D12*
X113380600Y-80208200D03*
X110840600Y-82748200D03*
X113380600Y-82748200D03*
X110840600Y-85288200D03*
X113380600Y-85288200D03*
X110840600Y-87828200D03*
X113380600Y-87828200D03*
X110840600Y-90368200D03*
X113380600Y-90368200D03*
X110840600Y-92908200D03*
X113380600Y-92908200D03*
X110840600Y-95448200D03*
X113380600Y-95448200D03*
X110840600Y-97988200D03*
X113380600Y-97988200D03*
X110840600Y-100528200D03*
X113380600Y-100528200D03*
X110840600Y-103068200D03*
X113380600Y-103068200D03*
X110840600Y-105608200D03*
X113380600Y-105608200D03*
X110840600Y-108148200D03*
X113380600Y-108148200D03*
X110840600Y-110688200D03*
X113380600Y-110688200D03*
X110840600Y-113228200D03*
X113380600Y-113228200D03*
X110840600Y-115768200D03*
X113380600Y-115768200D03*
X110840600Y-118308200D03*
X113380600Y-118308200D03*
X110840600Y-120848200D03*
X113380600Y-120848200D03*
X110840600Y-123388200D03*
X113380600Y-123388200D03*
%TD*%
D27*
%TO.C,C4*%
X143052800Y-83517800D03*
X143052800Y-84477800D03*
%TD*%
G36*
X152316721Y-71140002D02*
G01*
X152363214Y-71193658D01*
X152374600Y-71246000D01*
X152374600Y-74677000D01*
X152354598Y-74745121D01*
X152300942Y-74791614D01*
X152248600Y-74803000D01*
X145591800Y-74803000D01*
X145523679Y-74782998D01*
X145477186Y-74729342D01*
X145465800Y-74677000D01*
X145465800Y-71246000D01*
X145485802Y-71177879D01*
X145539458Y-71131386D01*
X145591800Y-71120000D01*
X152248600Y-71120000D01*
X152316721Y-71140002D01*
G37*
G36*
X121074721Y-130703002D02*
G01*
X121121214Y-130756658D01*
X121132600Y-130809000D01*
X121132600Y-132182600D01*
X121112598Y-132250721D01*
X121058942Y-132297214D01*
X121006600Y-132308600D01*
X116331000Y-132308600D01*
X116262879Y-132288598D01*
X116216386Y-132234942D01*
X116205000Y-132182600D01*
X116205000Y-130809000D01*
X116225002Y-130740879D01*
X116278658Y-130694386D01*
X116331000Y-130683000D01*
X121006600Y-130683000D01*
X121074721Y-130703002D01*
G37*
M02*
